<?xml version='1.0' encoding='ascii'?>
<svg xmlns="http://www.w3.org/2000/svg" xmlns:inkscape="http://www.inkscape.org/namespaces/inkscape" height="540" version="1.1" width="960">
    <g id="RenderLayer_LineSet" inkscape:groupmode="lineset" inkscape:label="RenderLayer_LineSet">
        <g id="fills" inkscape:groupmode="layer" inkscape:label="fills" xmlns:inkscape="http://www.inkscape.org/namespaces/inkscape">
            <path d=" M 394.847, 278.453 398.040, 357.303 522.573, 431.464 646.204, 361.121 659.602, 198.252 524.017, 150.727 391.477, 195.224 394.839, 278.254  z" fill="rgb(204, 4, 99)" fill-opacity="1.0" fill_rule="evenodd" stroke="none" />
            <path d=" M 118.427, 274.663 221.485, 347.658 394.847, 278.453 395.059, 278.368 394.839, 278.254 283.657, 220.450 118.427, 274.663  z" fill="rgb(3, 204, 0)" fill-opacity="1.0" fill_rule="evenodd" stroke="none" />
        </g>
        <g id="strokes" inkscape:groupmode="layer" inkscape:label="strokes">
            <path d=" M 118.427, 274.663 126.587, 280.443 134.747, 286.223 142.908, 292.003 151.068, 297.783 159.229, 303.563 167.389, 309.343 175.550, 315.123 183.710, 320.902 191.871, 326.682 200.031, 332.462 208.192, 338.242 216.352, 344.022 221.485, 347.658 230.773, 343.950 240.060, 340.243 249.347, 336.535 258.635, 332.828 267.922, 329.120 277.209, 325.413 286.497, 321.706 295.784, 317.998 305.071, 314.291 314.359, 310.583 323.646, 306.876 332.933, 303.168 342.221, 299.461 351.508, 295.754 360.795, 292.046 370.083, 288.339 379.370, 284.631 388.658, 280.924 394.847, 278.453 395.059, 278.368 394.839, 278.254 385.967, 273.641 377.094, 269.028 368.222, 264.415 359.349, 259.802 350.477, 255.190 341.604, 250.577 332.731, 245.964 323.859, 241.351 314.986, 236.738 306.114, 232.125 297.241, 227.513 288.369, 222.900 283.657, 220.450 274.155, 223.568 264.654, 226.685 255.152, 229.803 245.650, 232.920 236.149, 236.038 226.647, 239.155 217.145, 242.273 207.644, 245.391 198.142, 248.508 188.641, 251.626 179.139, 254.743 169.637, 257.861 160.136, 260.978 150.634, 264.096 141.133, 267.213 131.631, 270.331 122.129, 273.449 118.427, 274.663 " fill="none" stroke="rgb(0, 0, 0)" stroke-linecap="butt" stroke-linejoin="mitter" stroke-opacity="1.0" stroke-width="0.5000002384185791" />
            <path d=" M 394.847, 278.453 395.252, 288.445 395.656, 298.437 396.061, 308.428 396.466, 318.420 396.870, 328.412 397.275, 338.404 397.679, 348.396 398.040, 357.303 406.632, 362.420 415.224, 367.536 423.816, 372.653 432.408, 377.769 440.999, 382.886 449.591, 388.003 458.183, 393.119 466.775, 398.236 475.367, 403.352 483.959, 408.469 492.551, 413.585 501.143, 418.702 509.735, 423.819 518.326, 428.935 522.573, 431.464 531.265, 426.519 539.956, 421.573 548.648, 416.628 557.339, 411.683 566.031, 406.737 574.723, 401.792 583.414, 396.847 592.106, 391.901 600.797, 386.956 609.489, 382.011 618.180, 377.065 626.872, 372.120 635.564, 367.175 644.255, 362.229 646.204, 361.121 647.023, 351.154 647.843, 341.188 648.663, 331.222 649.483, 321.255 650.303, 311.289 651.123, 301.323 651.943, 291.356 652.763, 281.390 653.583, 271.424 654.402, 261.457 655.222, 251.491 656.042, 241.525 656.862, 231.558 657.682, 221.592 658.502, 211.626 659.322, 201.659 659.602, 198.252 650.165, 194.944 640.728, 191.636 631.291, 188.329 621.854, 185.021 612.417, 181.713 602.980, 178.405 593.543, 175.097 584.106, 171.789 574.669, 168.481 565.232, 165.174 555.794, 161.866 546.357, 158.558 536.920, 155.250 527.483, 151.942 524.017, 150.727 514.537, 153.910 505.057, 157.092 495.577, 160.275 486.097, 163.458 476.617, 166.640 467.137, 169.823 457.657, 173.006 448.177, 176.188 438.697, 179.371 429.216, 182.554 419.736, 185.736 410.256, 188.919 400.776, 192.102 391.477, 195.224 391.882, 205.216 392.286, 215.207 392.691, 225.199 393.096, 235.191 393.500, 245.183 393.905, 255.175 394.309, 265.166 394.714, 275.158 394.839, 278.254 " fill="none" stroke="rgb(0, 0, 0)" stroke-linecap="butt" stroke-linejoin="mitter" stroke-opacity="1.0" stroke-width="0.5000002384185791" />
            <path d=" M 391.477, 195.224 400.630, 199.251 409.784, 203.278 418.937, 207.305 428.090, 211.332 437.244, 215.359 446.397, 219.386 455.550, 223.414 464.703, 227.441 473.857, 231.468 483.010, 235.495 492.163, 239.522 501.316, 243.549 510.470, 247.576 519.623, 251.603 526.434, 254.600 " fill="none" stroke="rgb(0, 0, 0)" stroke-linecap="butt" stroke-linejoin="mitter" stroke-opacity="1.0" stroke-width="0.5000002384185791" />
            <path d=" M 522.573, 431.464 522.791, 421.466 523.010, 411.469 523.228, 401.471 523.446, 391.474 523.664, 381.476 523.883, 371.478 524.101, 361.481 524.319, 351.483 524.537, 341.486 524.756, 331.488 524.974, 321.490 525.192, 311.493 525.411, 301.495 525.629, 291.497 525.847, 281.500 526.065, 271.502 526.284, 261.505 526.434, 254.600 535.644, 250.703 544.853, 246.806 554.063, 242.910 563.272, 239.013 572.482, 235.116 581.691, 231.219 590.901, 227.322 600.110, 223.425 609.320, 219.528 618.529, 215.632 627.739, 211.735 636.948, 207.838 646.158, 203.941 655.367, 200.044 659.602, 198.252 " fill="none" stroke="rgb(0, 0, 0)" stroke-linecap="butt" stroke-linejoin="mitter" stroke-opacity="1.0" stroke-width="0.5000002384185791" />
        </g>
    </g>
</svg>
