<?xml version='1.0' encoding='ascii'?>
<svg xmlns="http://www.w3.org/2000/svg" xmlns:inkscape="http://www.inkscape.org/namespaces/inkscape" height="540" version="1.1" width="960">
    <g id="RenderLayer_LineSet" inkscape:groupmode="lineset" inkscape:label="RenderLayer_LineSet">
        <g id="frame_0001" inkscape:groupmode="frame" inkscape:label="frame_0001">
            <g id="strokes" inkscape:groupmode="layer" inkscape:label="strokes">
                <path d=" M 435.090, 461.052 443.863, 456.253 452.636, 451.454 461.409, 446.654 470.182, 441.855 478.956, 437.056 487.729, 432.257 496.502, 427.458 505.275, 422.659 514.048, 417.860 522.821, 413.061 531.595, 408.262 540.368, 403.463 549.141, 398.663 557.914, 393.864 566.687, 389.065 571.682, 386.333 572.141, 376.344 572.600, 366.354 573.059, 356.365 573.518, 346.375 573.977, 336.386 574.436, 326.396 574.895, 316.407 575.354, 306.417 575.813, 296.428 576.272, 286.438 576.732, 276.449 577.191, 266.459 577.650, 256.470 578.109, 246.481 578.568, 236.491 579.027, 226.502 579.270, 221.216 569.976, 217.524 560.683, 213.832 551.389, 210.140 542.095, 206.448 532.802, 202.756 523.508, 199.065 514.215, 195.373 504.921, 191.681 495.628, 187.989 486.334, 184.297 477.041, 180.605 467.747, 176.913 458.454, 173.221 449.912, 169.828 440.409, 172.940 430.905, 176.051 421.401, 179.162 411.897, 182.274 402.394, 185.385 392.890, 188.496 383.386, 191.607 373.883, 194.719 364.379, 197.830 354.875, 200.941 345.372, 204.053 335.868, 207.164 326.364, 210.275 316.861, 213.387 307.357, 216.498 304.906, 217.300 305.713, 227.268 306.519, 237.235 307.326, 247.202 308.132, 257.170 308.938, 267.137 309.745, 277.105 310.551, 287.072 311.358, 297.040 312.164, 307.007 312.971, 316.974 313.777, 326.942 314.583, 336.909 315.390, 346.877 316.196, 356.844 317.003, 366.812 317.809, 376.779 318.187, 381.452 326.453, 387.080 334.719, 392.709 342.985, 398.337 351.250, 403.965 359.516, 409.593 367.782, 415.221 376.048, 420.850 384.313, 426.478 392.579, 432.106 400.845, 437.734 409.111, 443.363 417.377, 448.991 425.642, 454.619 433.908, 460.247 435.090, 461.052 " fill="none" stroke="rgb(0, 0, 0)" stroke-linecap="butt" stroke-linejoin="round" stroke-opacity="1.0" stroke-width="3.0" />
                <path d=" M 304.906, 217.300 313.808, 221.856 322.710, 226.412 331.612, 230.968 340.514, 235.524 349.415, 240.080 358.317, 244.636 367.219, 249.192 376.121, 253.748 385.023, 258.304 393.925, 262.860 402.826, 267.416 411.728, 271.972 420.630, 276.528 429.532, 281.084 430.897, 281.783 " fill="none" stroke="rgb(0, 0, 0)" stroke-linecap="butt" stroke-linejoin="round" stroke-opacity="1.0" stroke-width="3.0" />
                <path d=" M 435.090, 461.052 434.856, 451.055 434.622, 441.057 434.388, 431.060 434.154, 421.063 433.921, 411.065 433.687, 401.068 433.453, 391.071 433.219, 381.074 432.985, 371.076 432.752, 361.079 432.518, 351.082 432.284, 341.085 432.050, 331.087 431.816, 321.090 431.583, 311.093 431.349, 301.096 431.115, 291.098 430.897, 281.783 440.156, 278.004 449.414, 274.224 458.672, 270.445 467.931, 266.666 477.189, 262.886 486.447, 259.107 495.705, 255.328 504.964, 251.548 514.222, 247.769 523.480, 243.990 532.739, 240.210 541.997, 236.431 551.255, 232.652 560.514, 228.872 569.772, 225.093 579.270, 221.216 " fill="none" stroke="rgb(0, 0, 0)" stroke-linecap="butt" stroke-linejoin="round" stroke-opacity="1.0" stroke-width="3.0" />
            </g>
            <animate attributeName="display" begin="-0.417s" dur="0.417s" id="anim_RenderLayer_LineSet_000001" keyTimes="0.0;0.1;0.2;0.3;0.4;0.5;0.6;0.7;0.8;0.9;1" repeatCount="indefinite" values="none;none;none;none;none;none;none;none;none;inline;none" />
        </g>
        <g id="frame_0002" inkscape:groupmode="frame" inkscape:label="frame_0002">
            <g id="strokes" inkscape:groupmode="layer" inkscape:label="strokes">
                <path d=" M 440.311, 461.106 448.925, 456.026 457.538, 450.946 466.152, 445.866 474.765, 440.786 483.379, 435.706 491.993, 430.626 500.606, 425.546 509.220, 420.466 517.833, 415.387 526.447, 410.307 535.061, 405.227 543.674, 400.147 552.288, 395.067 560.901, 389.987 569.515, 384.907 571.397, 383.797 571.854, 373.807 572.312, 363.817 572.769, 353.828 573.226, 343.838 573.683, 333.849 574.140, 323.859 574.597, 313.870 575.054, 303.880 575.511, 293.891 575.968, 283.901 576.425, 273.911 576.882, 263.922 577.339, 253.932 577.796, 243.943 578.253, 233.953 578.710, 223.964 578.929, 219.180 569.550, 215.712 560.171, 212.243 550.791, 208.775 541.412, 205.306 532.033, 201.838 522.654, 198.369 513.275, 194.901 503.895, 191.433 494.516, 187.964 485.137, 184.496 475.758, 181.027 466.378, 177.559 456.999, 174.090 447.620, 170.622 445.400, 169.801 435.963, 173.107 426.525, 176.414 417.088, 179.720 407.650, 183.027 398.213, 186.334 388.775, 189.640 379.338, 192.947 369.900, 196.254 360.463, 199.560 351.025, 202.867 341.588, 206.173 332.150, 209.480 322.713, 212.787 313.275, 216.093 304.067, 219.319 304.878, 229.286 305.689, 239.254 306.500, 249.221 307.311, 259.188 308.122, 269.155 308.933, 279.122 309.744, 289.089 310.555, 299.056 311.366, 309.023 312.177, 318.990 312.988, 328.957 313.799, 338.924 314.610, 348.891 315.421, 358.858 316.232, 368.825 317.043, 378.792 317.465, 383.970 325.933, 389.288 334.402, 394.605 342.871, 399.923 351.340, 405.241 359.809, 410.558 368.278, 415.876 376.747, 421.194 385.216, 426.511 393.685, 431.829 402.154, 437.147 410.622, 442.464 419.091, 447.782 427.560, 453.100 436.029, 458.417 440.311, 461.106 " fill="none" stroke="rgb(0, 0, 0)" stroke-linecap="butt" stroke-linejoin="round" stroke-opacity="1.0" stroke-width="3.0" />
                <path d=" M 304.067, 219.319 313.111, 223.585 322.156, 227.851 331.201, 232.116 340.245, 236.382 349.290, 240.647 358.334, 244.913 367.379, 249.179 376.424, 253.444 385.468, 257.710 394.513, 261.976 403.557, 266.241 412.602, 270.507 421.646, 274.772 430.691, 279.038 436.606, 281.828 " fill="none" stroke="rgb(0, 0, 0)" stroke-linecap="butt" stroke-linejoin="round" stroke-opacity="1.0" stroke-width="3.0" />
                <path d=" M 440.311, 461.106 440.104, 451.108 439.898, 441.110 439.691, 431.113 439.485, 421.115 439.278, 411.117 439.071, 401.119 438.865, 391.121 438.658, 381.123 438.451, 371.125 438.245, 361.128 438.038, 351.130 437.831, 341.132 437.625, 331.134 437.418, 321.136 437.212, 311.138 437.005, 301.140 436.798, 291.142 436.606, 281.828 445.758, 277.799 454.911, 273.770 464.063, 269.741 473.216, 265.713 482.369, 261.684 491.521, 257.655 500.674, 253.626 509.826, 249.598 518.979, 245.569 528.131, 241.540 537.284, 237.512 546.436, 233.483 555.589, 229.454 564.742, 225.425 573.894, 221.397 578.929, 219.180 " fill="none" stroke="rgb(0, 0, 0)" stroke-linecap="butt" stroke-linejoin="round" stroke-opacity="1.0" stroke-width="3.0" />
            </g>
            <animate attributeName="display" begin="-0.375s" dur="0.417s" id="anim_RenderLayer_LineSet_000002" keyTimes="0.0;0.1;0.2;0.3;0.4;0.5;0.6;0.7;0.8;0.9;1" repeatCount="indefinite" values="none;none;none;none;none;none;none;none;none;inline;none" />
        </g>
        <g id="frame_0003" inkscape:groupmode="frame" inkscape:label="frame_0003">
            <g id="strokes" inkscape:groupmode="layer" inkscape:label="strokes">
                <path d=" M 455.976, 460.570 464.007, 454.612 472.038, 448.654 480.070, 442.696 488.101, 436.738 496.133, 430.780 504.164, 424.822 512.195, 418.864 520.227, 412.906 528.258, 406.948 536.289, 400.990 544.321, 395.033 552.352, 389.075 560.383, 383.117 569.546, 376.320 569.992, 366.330 570.438, 356.340 570.884, 346.350 571.330, 336.360 571.776, 326.370 572.222, 316.380 572.669, 306.390 573.115, 296.400 573.561, 286.409 574.007, 276.419 574.453, 266.429 574.899, 256.439 575.345, 246.449 575.792, 236.459 576.238, 226.469 576.684, 216.479 576.831, 213.188 567.246, 210.338 557.660, 207.487 548.075, 204.637 538.490, 201.787 528.905, 198.936 519.320, 196.086 509.735, 193.236 500.149, 190.385 490.564, 187.535 480.979, 184.685 471.394, 181.834 461.809, 178.984 452.224, 176.134 442.638, 173.283 431.850, 170.075 422.659, 174.015 413.468, 177.956 404.277, 181.896 395.086, 185.836 385.896, 189.776 376.705, 193.717 367.514, 197.657 358.323, 201.597 349.132, 205.538 339.941, 209.478 330.750, 213.418 321.559, 217.358 312.368, 221.299 302.634, 225.472 303.454, 235.438 304.274, 245.404 305.094, 255.371 305.914, 265.337 306.733, 275.303 307.553, 285.270 308.373, 295.236 309.193, 305.202 310.013, 315.169 310.833, 325.135 311.653, 335.101 312.473, 345.068 313.293, 355.034 314.113, 365.000 314.932, 374.967 315.752, 384.933 316.303, 391.631 325.271, 396.057 334.238, 400.483 343.205, 404.909 352.172, 409.335 361.139, 413.761 370.107, 418.187 379.074, 422.613 388.041, 427.039 397.008, 431.465 405.975, 435.891 414.942, 440.317 423.910, 444.743 432.877, 449.169 441.844, 453.595 450.811, 458.021 455.976, 460.570 " fill="none" stroke="rgb(0, 0, 0)" stroke-linecap="butt" stroke-linejoin="round" stroke-opacity="1.0" stroke-width="3.0" />
                <path d=" M 302.634, 225.472 312.012, 228.942 321.391, 232.413 330.769, 235.883 340.148, 239.354 349.526, 242.825 358.904, 246.295 368.283, 249.766 377.661, 253.237 387.040, 256.707 396.418, 260.178 405.797, 263.648 415.175, 267.119 424.553, 270.590 433.932, 274.060 443.310, 277.531 453.735, 281.389 " fill="none" stroke="rgb(0, 0, 0)" stroke-linecap="butt" stroke-linejoin="round" stroke-opacity="1.0" stroke-width="3.0" />
                <path d=" M 455.976, 460.570 455.851, 450.571 455.726, 440.572 455.601, 430.572 455.475, 420.573 455.350, 410.574 455.225, 400.575 455.100, 390.575 454.975, 380.576 454.850, 370.577 454.725, 360.578 454.600, 350.579 454.475, 340.579 454.350, 330.580 454.225, 320.581 454.100, 310.582 453.975, 300.583 453.850, 290.583 453.735, 281.389 462.482, 276.542 471.229, 271.696 479.976, 266.850 488.723, 262.003 497.471, 257.157 506.218, 252.311 514.965, 247.465 523.712, 242.618 532.459, 237.772 541.206, 232.926 549.954, 228.079 558.701, 223.233 567.448, 218.387 576.831, 213.188 " fill="none" stroke="rgb(0, 0, 0)" stroke-linecap="butt" stroke-linejoin="round" stroke-opacity="1.0" stroke-width="3.0" />
            </g>
            <animate attributeName="display" begin="-0.333s" dur="0.417s" id="anim_RenderLayer_LineSet_000003" keyTimes="0.0;0.1;0.2;0.3;0.4;0.5;0.6;0.7;0.8;0.9;1" repeatCount="indefinite" values="none;none;none;none;none;none;none;none;none;inline;none" />
        </g>
        <g id="frame_0004" inkscape:groupmode="frame" inkscape:label="frame_0004">
            <g id="strokes" inkscape:groupmode="layer" inkscape:label="strokes">
                <path d=" M 480.598, 457.552 487.270, 450.104 493.942, 442.655 500.615, 435.207 507.287, 427.758 513.959, 420.310 520.632, 412.861 527.304, 405.413 533.976, 397.964 540.649, 390.516 547.321, 383.067 553.993, 375.619 560.666, 368.171 563.601, 364.894 564.015, 354.903 564.429, 344.912 564.843, 334.920 565.258, 324.929 565.672, 314.937 566.086, 304.946 566.500, 294.954 566.914, 284.963 567.329, 274.972 567.743, 264.980 568.157, 254.989 568.571, 244.997 568.985, 235.006 569.400, 225.015 569.814, 215.023 570.269, 204.054 560.468, 202.068 550.667, 200.081 540.866, 198.095 531.066, 196.109 521.265, 194.123 511.464, 192.137 501.663, 190.151 491.862, 188.165 482.062, 186.179 472.261, 184.193 462.460, 182.206 452.659, 180.220 442.858, 178.234 433.058, 176.248 423.257, 174.262 413.456, 172.276 410.289, 171.634 401.715, 176.781 393.141, 181.927 384.567, 187.073 375.993, 192.219 367.419, 197.366 358.845, 202.512 350.270, 207.658 341.696, 212.805 333.122, 217.951 324.548, 223.097 315.974, 228.243 307.400, 233.390 303.895, 235.493 304.713, 245.460 305.531, 255.426 306.349, 265.393 307.166, 275.359 307.984, 285.326 308.802, 295.292 309.620, 305.259 310.438, 315.225 311.256, 325.192 312.074, 335.158 312.892, 345.125 313.710, 355.091 314.527, 365.058 315.345, 375.024 316.163, 384.991 316.981, 394.957 317.730, 404.078 327.231, 407.197 336.732, 410.317 346.233, 413.436 355.734, 416.556 365.235, 419.675 374.736, 422.795 384.237, 425.914 393.738, 429.034 403.239, 432.153 412.740, 435.272 422.241, 438.392 431.742, 441.511 441.243, 444.631 450.744, 447.750 460.245, 450.870 469.746, 453.989 480.598, 457.552 " fill="none" stroke="rgb(0, 0, 0)" stroke-linecap="butt" stroke-linejoin="round" stroke-opacity="1.0" stroke-width="3.0" />
                <path d=" M 303.895, 235.493 313.606, 237.879 323.317, 240.265 333.029, 242.651 342.740, 245.037 352.451, 247.423 362.162, 249.809 371.873, 252.195 381.585, 254.580 391.296, 256.966 401.007, 259.352 410.718, 261.738 420.429, 264.124 430.141, 266.510 439.852, 268.896 449.563, 271.282 459.274, 273.667 468.985, 276.053 478.697, 278.439 480.653, 278.920 " fill="none" stroke="rgb(0, 0, 0)" stroke-linecap="butt" stroke-linejoin="round" stroke-opacity="1.0" stroke-width="3.0" />
                <path d=" M 480.598, 457.552 480.601, 447.552 480.604, 437.552 480.607, 427.552 480.610, 417.552 480.613, 407.552 480.616, 397.552 480.619, 387.552 480.622, 377.552 480.625, 367.552 480.629, 357.552 480.632, 347.552 480.635, 337.552 480.638, 327.552 480.641, 317.552 480.644, 307.552 480.647, 297.552 480.650, 287.552 480.653, 278.920 488.327, 272.509 496.002, 266.097 503.676, 259.686 511.350, 253.275 519.025, 246.864 526.699, 240.452 534.373, 234.041 542.048, 227.630 549.722, 221.218 557.396, 214.807 565.071, 208.396 570.269, 204.054 " fill="none" stroke="rgb(0, 0, 0)" stroke-linecap="butt" stroke-linejoin="round" stroke-opacity="1.0" stroke-width="3.0" />
            </g>
            <animate attributeName="display" begin="-0.292s" dur="0.417s" id="anim_RenderLayer_LineSet_000004" keyTimes="0.0;0.1;0.2;0.3;0.4;0.5;0.6;0.7;0.8;0.9;1" repeatCount="indefinite" values="none;none;none;none;none;none;none;none;none;inline;none" />
        </g>
        <g id="frame_0005" inkscape:groupmode="frame" inkscape:label="frame_0005">
            <g id="strokes" inkscape:groupmode="layer" inkscape:label="strokes">
                <path d=" M 509.566, 450.124 513.470, 440.918 517.375, 431.711 521.279, 422.505 525.183, 413.298 529.087, 404.092 532.991, 394.885 536.895, 385.679 540.799, 376.473 544.703, 367.266 548.607, 358.060 551.269, 351.783 551.620, 341.789 551.971, 331.795 552.322, 321.801 552.673, 311.807 553.024, 301.814 553.375, 291.820 553.726, 281.826 554.077, 271.832 554.427, 261.838 554.778, 251.844 555.129, 241.851 555.480, 231.857 555.831, 221.863 556.182, 211.869 556.533, 201.875 556.823, 193.604 546.877, 192.568 536.931, 191.531 526.985, 190.495 517.039, 189.458 507.093, 188.422 497.147, 187.385 487.200, 186.349 477.254, 185.312 467.308, 184.276 457.362, 183.239 447.416, 182.202 437.470, 181.166 427.524, 180.129 417.578, 179.093 407.631, 178.056 397.685, 177.020 387.739, 175.983 383.867, 175.580 376.831, 182.686 369.795, 189.792 362.759, 196.898 355.723, 204.004 348.687, 211.110 341.651, 218.216 334.616, 225.322 327.580, 232.428 320.544, 239.534 313.508, 246.640 312.136, 248.026 312.920, 257.996 313.704, 267.965 314.489, 277.934 315.273, 287.903 316.058, 297.872 316.842, 307.842 317.626, 317.811 318.411, 327.780 319.195, 337.749 319.980, 347.718 320.764, 357.688 321.548, 367.657 322.333, 377.626 323.117, 387.595 323.902, 397.564 324.686, 407.533 325.471, 417.503 325.635, 419.587 335.500, 421.225 345.365, 422.863 355.229, 424.501 365.094, 426.139 374.959, 427.776 384.824, 429.414 394.689, 431.052 404.554, 432.690 414.419, 434.328 424.284, 435.965 434.149, 437.603 444.014, 439.241 453.879, 440.879 463.744, 442.517 473.609, 444.154 483.474, 445.792 493.339, 447.430 503.204, 449.068 509.566, 450.124 " fill="none" stroke="rgb(0, 0, 0)" stroke-linecap="butt" stroke-linejoin="round" stroke-opacity="1.0" stroke-width="3.0" />
                <path d=" M 312.136, 248.026 322.060, 249.257 331.983, 250.488 341.907, 251.719 351.831, 252.950 361.755, 254.181 371.679, 255.412 381.603, 256.643 391.527, 257.874 401.451, 259.105 411.375, 260.336 421.299, 261.566 431.223, 262.797 441.147, 264.028 451.071, 265.259 460.995, 266.490 470.919, 267.721 480.843, 268.952 490.767, 270.183 500.691, 271.414 512.280, 272.851 " fill="none" stroke="rgb(0, 0, 0)" stroke-linecap="butt" stroke-linejoin="round" stroke-opacity="1.0" stroke-width="3.0" />
                <path d=" M 509.566, 450.124 509.719, 440.125 509.872, 430.126 510.026, 420.127 510.179, 410.129 510.332, 400.130 510.485, 390.131 510.638, 380.132 510.791, 370.133 510.944, 360.135 511.097, 350.136 511.250, 340.137 511.403, 330.138 511.556, 320.139 511.709, 310.140 511.862, 300.142 512.015, 290.143 512.168, 280.144 512.280, 272.851 517.180, 264.134 522.080, 255.416 526.980, 246.699 531.880, 237.982 536.779, 229.265 541.679, 220.547 546.579, 211.830 551.479, 203.113 556.823, 193.604 " fill="none" stroke="rgb(0, 0, 0)" stroke-linecap="butt" stroke-linejoin="round" stroke-opacity="1.0" stroke-width="3.0" />
            </g>
            <animate attributeName="display" begin="-0.250s" dur="0.417s" id="anim_RenderLayer_LineSet_000005" keyTimes="0.0;0.1;0.2;0.3;0.4;0.5;0.6;0.7;0.8;0.9;1" repeatCount="indefinite" values="none;none;none;none;none;none;none;none;none;inline;none" />
        </g>
        <g id="frame_0006" inkscape:groupmode="frame" inkscape:label="frame_0006">
            <g id="strokes" inkscape:groupmode="layer" inkscape:label="strokes">
                <path d=" M 341.796, 434.905 351.795, 435.079 361.793, 435.253 371.792, 435.427 381.790, 435.600 391.789, 435.774 401.787, 435.948 411.786, 436.122 421.784, 436.295 431.783, 436.469 441.781, 436.643 451.780, 436.817 461.778, 436.990 471.777, 437.164 481.775, 437.338 491.774, 437.512 501.772, 437.685 511.771, 437.859 521.769, 438.033 531.768, 438.207 535.939, 438.279 536.227, 428.283 536.515, 418.287 536.803, 408.292 537.090, 398.296 537.378, 388.300 537.666, 378.304 537.954, 368.308 538.241, 358.312 538.529, 348.316 538.817, 338.321 539.105, 328.325 539.392, 318.329 539.680, 308.333 539.968, 298.337 540.256, 288.341 540.544, 278.345 540.831, 268.350 540.980, 263.198 540.470, 253.211 539.960, 243.224 539.449, 233.237 538.939, 223.250 538.429, 213.263 537.919, 203.276 537.409, 193.289 536.944, 184.177 526.945, 184.067 516.945, 183.957 506.946, 183.847 496.946, 183.737 486.947, 183.628 476.948, 183.518 466.948, 183.408 456.949, 183.298 446.949, 183.188 436.950, 183.079 426.951, 182.969 416.951, 182.859 406.952, 182.749 396.952, 182.639 386.953, 182.530 376.954, 182.420 366.954, 182.310 357.688, 182.208 354.289, 191.613 350.890, 201.018 347.491, 210.422 344.093, 219.827 340.694, 229.232 337.295, 238.636 333.896, 248.041 330.498, 257.446 329.410, 260.454 330.119, 270.429 330.827, 280.404 331.535, 290.379 332.243, 300.354 332.952, 310.329 333.660, 320.304 334.368, 330.279 335.076, 340.253 335.784, 350.228 336.493, 360.203 337.201, 370.178 337.909, 380.153 338.617, 390.128 339.326, 400.103 340.034, 410.078 340.742, 420.053 341.450, 430.027 341.796, 434.905 " fill="none" stroke="rgb(0, 0, 0)" stroke-linecap="butt" stroke-linejoin="round" stroke-opacity="1.0" stroke-width="3.0" />
                <path d=" M 329.410, 260.454 339.410, 260.584 349.409, 260.714 359.408, 260.843 369.407, 260.973 379.406, 261.103 389.405, 261.232 399.405, 261.362 409.404, 261.492 419.403, 261.622 429.402, 261.751 439.401, 261.881 449.400, 262.011 459.400, 262.140 469.399, 262.270 479.398, 262.400 489.397, 262.529 499.396, 262.659 509.395, 262.789 519.395, 262.918 529.394, 263.048 540.980, 263.198 " fill="none" stroke="rgb(0, 0, 0)" stroke-linecap="butt" stroke-linejoin="round" stroke-opacity="1.0" stroke-width="3.0" />
            </g>
            <animate attributeName="display" begin="-0.208s" dur="0.417s" id="anim_RenderLayer_LineSet_000006" keyTimes="0.0;0.1;0.2;0.3;0.4;0.5;0.6;0.7;0.8;0.9;1" repeatCount="indefinite" values="none;none;none;none;none;none;none;none;none;inline;none" />
        </g>
        <g id="frame_0007" inkscape:groupmode="frame" inkscape:label="frame_0007">
            <g id="strokes" inkscape:groupmode="layer" inkscape:label="strokes">
                <path d=" M 363.314, 446.760 373.248, 445.611 383.182, 444.462 393.115, 443.313 403.049, 442.164 412.983, 441.014 422.917, 439.865 432.850, 438.716 442.784, 437.567 452.718, 436.418 462.652, 435.268 472.585, 434.119 482.519, 432.970 492.453, 431.821 502.387, 430.672 512.320, 429.523 522.254, 428.373 532.188, 427.224 542.122, 426.075 552.055, 424.926 554.429, 424.651 554.809, 414.658 555.189, 404.666 555.569, 394.673 555.950, 384.680 556.330, 374.687 556.710, 364.695 557.090, 354.702 557.470, 344.709 557.850, 334.716 558.230, 324.723 558.610, 314.731 558.990, 304.738 559.370, 294.745 559.750, 284.752 560.130, 274.760 560.511, 264.767 560.891, 254.774 560.991, 252.129 555.717, 243.634 550.442, 235.138 545.167, 226.642 539.893, 218.146 534.618, 209.651 529.343, 201.155 524.069, 192.659 518.794, 184.163 514.607, 177.419 504.633, 178.146 494.660, 178.873 484.686, 179.601 474.713, 180.328 464.739, 181.056 454.766, 181.783 444.792, 182.510 434.819, 183.238 424.845, 183.965 414.871, 184.692 404.898, 185.420 394.924, 186.147 384.951, 186.874 374.977, 187.602 365.004, 188.329 355.030, 189.056 345.057, 189.784 336.671, 190.395 337.324, 200.374 337.976, 210.353 338.629, 220.331 339.282, 230.310 339.935, 240.289 340.588, 250.267 341.240, 260.246 341.893, 270.225 342.546, 280.203 343.199, 290.182 343.851, 300.161 344.504, 310.139 345.157, 320.118 345.810, 330.097 346.462, 340.076 346.964, 347.748 348.594, 357.614 350.223, 367.480 351.852, 377.347 353.481, 387.213 355.110, 397.079 356.740, 406.946 358.369, 416.812 359.998, 426.679 361.627, 436.545 363.314, 446.760 " fill="none" stroke="rgb(0, 0, 0)" stroke-linecap="butt" stroke-linejoin="round" stroke-opacity="1.0" stroke-width="3.0" />
                <path d=" M 336.671, 190.395 338.638, 200.200 340.604, 210.005 342.571, 219.810 344.538, 229.614 346.504, 239.419 348.471, 249.224 350.438, 259.028 352.404, 268.833 352.660, 270.107 " fill="none" stroke="rgb(0, 0, 0)" stroke-linecap="butt" stroke-linejoin="round" stroke-opacity="1.0" stroke-width="3.0" />
                <path d=" M 363.314, 446.760 362.712, 436.778 362.110, 426.797 361.508, 416.815 360.906, 406.833 360.304, 396.851 359.702, 386.869 359.100, 376.887 358.498, 366.905 357.896, 356.924 357.294, 346.942 356.692, 336.960 356.090, 326.978 355.488, 316.996 354.886, 307.014 354.284, 297.032 353.682, 287.051 353.080, 277.069 352.660, 270.107 362.623, 269.247 372.586, 268.387 382.549, 267.528 392.512, 266.668 402.475, 265.808 412.438, 264.949 422.401, 264.089 432.363, 263.229 442.326, 262.369 452.289, 261.510 462.252, 260.650 472.215, 259.790 482.178, 258.930 492.141, 258.071 502.104, 257.211 512.067, 256.351 522.030, 255.491 531.993, 254.632 541.956, 253.772 551.919, 252.912 560.991, 252.129 " fill="none" stroke="rgb(0, 0, 0)" stroke-linecap="butt" stroke-linejoin="round" stroke-opacity="1.0" stroke-width="3.0" />
            </g>
            <animate attributeName="display" begin="-0.167s" dur="0.417s" id="anim_RenderLayer_LineSet_000007" keyTimes="0.0;0.1;0.2;0.3;0.4;0.5;0.6;0.7;0.8;0.9;1" repeatCount="indefinite" values="none;none;none;none;none;none;none;none;none;inline;none" />
        </g>
        <g id="frame_0008" inkscape:groupmode="frame" inkscape:label="frame_0008">
            <g id="strokes" inkscape:groupmode="layer" inkscape:label="strokes">
                <path d=" M 383.946, 453.893 393.697, 451.672 403.447, 449.451 413.197, 447.230 422.947, 445.009 432.698, 442.788 442.448, 440.567 452.198, 438.346 461.948, 436.125 471.699, 433.904 481.449, 431.683 491.199, 429.462 500.949, 427.241 510.700, 425.020 520.450, 422.799 530.200, 420.578 539.950, 418.357 549.701, 416.136 559.451, 413.916 564.395, 412.789 564.823, 402.798 565.252, 392.808 565.680, 382.817 566.108, 372.826 566.536, 362.835 566.965, 352.844 567.393, 342.854 567.821, 332.863 568.250, 322.872 568.678, 312.881 569.106, 302.890 569.535, 292.899 569.963, 282.909 570.391, 272.918 570.819, 262.927 571.248, 252.936 571.694, 242.527 564.262, 235.836 556.830, 229.146 549.397, 222.455 541.965, 215.765 534.533, 209.075 527.101, 202.384 519.668, 195.694 512.236, 189.003 504.804, 182.313 497.372, 175.622 495.079, 173.558 485.179, 174.969 475.279, 176.379 465.379, 177.789 455.479, 179.200 445.579, 180.610 435.678, 182.020 425.778, 183.430 415.878, 184.841 405.978, 186.251 396.078, 187.661 386.178, 189.071 376.278, 190.482 366.378, 191.892 356.478, 193.302 346.578, 194.712 336.678, 196.123 326.778, 197.533 323.043, 198.065 323.760, 208.039 324.477, 218.014 325.194, 227.988 325.911, 237.962 326.628, 247.936 327.345, 257.911 328.062, 267.885 328.779, 277.859 329.496, 287.833 330.213, 297.808 330.930, 307.782 331.647, 317.756 332.364, 327.730 333.081, 337.705 333.798, 347.679 334.496, 357.386 339.056, 366.285 343.616, 375.185 348.176, 384.085 352.737, 392.984 357.297, 401.884 361.857, 410.784 366.417, 419.683 370.978, 428.583 375.538, 437.483 380.098, 446.382 383.946, 453.893 " fill="none" stroke="rgb(0, 0, 0)" stroke-linecap="butt" stroke-linejoin="round" stroke-opacity="1.0" stroke-width="3.0" />
                <path d=" M 323.043, 198.065 328.599, 206.379 334.155, 214.694 339.712, 223.008 345.268, 231.322 350.824, 239.636 356.381, 247.951 361.937, 256.265 367.493, 264.579 373.050, 272.893 375.078, 275.929 " fill="none" stroke="rgb(0, 0, 0)" stroke-linecap="butt" stroke-linejoin="round" stroke-opacity="1.0" stroke-width="3.0" />
                <path d=" M 383.946, 453.893 383.449, 443.905 382.951, 433.917 382.453, 423.930 381.956, 413.942 381.458, 403.955 380.960, 393.967 380.462, 383.979 379.965, 373.992 379.467, 364.004 378.969, 354.017 378.472, 344.029 377.974, 334.041 377.476, 324.054 376.979, 314.066 376.481, 304.079 375.983, 294.091 375.485, 284.103 375.078, 275.929 384.937, 274.254 394.796, 272.579 404.654, 270.904 414.513, 269.229 424.372, 267.554 434.231, 265.880 444.089, 264.205 453.948, 262.530 463.807, 260.855 473.666, 259.180 483.524, 257.505 493.383, 255.831 503.242, 254.156 513.101, 252.481 522.959, 250.806 532.818, 249.131 542.677, 247.456 552.536, 245.781 562.394, 244.107 571.694, 242.527 " fill="none" stroke="rgb(0, 0, 0)" stroke-linecap="butt" stroke-linejoin="round" stroke-opacity="1.0" stroke-width="3.0" />
            </g>
            <animate attributeName="display" begin="-0.125s" dur="0.417s" id="anim_RenderLayer_LineSet_000008" keyTimes="0.0;0.1;0.2;0.3;0.4;0.5;0.6;0.7;0.8;0.9;1" repeatCount="indefinite" values="none;none;none;none;none;none;none;none;none;inline;none" />
        </g>
        <g id="frame_0009" inkscape:groupmode="frame" inkscape:label="frame_0009">
            <g id="strokes" inkscape:groupmode="layer" inkscape:label="strokes">
                <path d=" M 398.095, 457.182 407.659, 454.260 417.222, 451.337 426.786, 448.415 436.350, 445.493 445.913, 442.571 455.477, 439.649 465.040, 436.727 474.604, 433.805 484.167, 430.883 493.731, 427.961 503.294, 425.038 512.858, 422.116 522.421, 419.194 531.985, 416.272 541.548, 413.350 551.112, 410.428 560.676, 407.506 568.483, 405.120 568.931, 395.130 569.378, 385.140 569.825, 375.150 570.272, 365.160 570.720, 355.170 571.167, 345.180 571.614, 335.190 572.062, 325.200 572.509, 315.210 572.956, 305.220 573.403, 295.230 573.851, 285.240 574.298, 275.250 574.745, 265.260 575.192, 255.270 575.640, 245.280 576.040, 236.334 567.802, 230.666 559.563, 224.998 551.324, 219.330 543.086, 213.662 534.847, 207.995 526.608, 202.327 518.370, 196.659 510.131, 190.991 501.893, 185.323 493.654, 179.655 485.415, 173.987 482.276, 171.827 472.451, 173.689 462.626, 175.551 452.800, 177.413 442.975, 179.275 433.150, 181.137 423.325, 182.999 413.500, 184.861 403.675, 186.722 393.850, 188.584 384.024, 190.446 374.199, 192.308 364.374, 194.170 354.549, 196.032 344.724, 197.894 334.899, 199.756 325.074, 201.617 316.088, 203.320 316.838, 213.292 317.588, 223.264 318.339, 233.236 319.089, 243.208 319.840, 253.179 320.590, 263.151 321.341, 273.123 322.091, 283.095 322.841, 293.067 323.592, 303.038 324.342, 313.010 325.093, 322.982 325.843, 332.954 326.593, 342.926 327.344, 352.897 328.178, 363.976 334.178, 371.975 340.179, 379.975 346.180, 387.974 352.181, 395.974 358.181, 403.973 364.182, 411.972 370.183, 419.972 376.183, 427.971 382.184, 435.971 388.185, 443.970 394.186, 451.970 398.095, 457.182 " fill="none" stroke="rgb(0, 0, 0)" stroke-linecap="butt" stroke-linejoin="round" stroke-opacity="1.0" stroke-width="3.0" />
                <path d=" M 316.088, 203.320 323.117, 210.433 330.146, 217.546 337.174, 224.659 344.203, 231.772 351.232, 238.885 358.261, 245.998 365.290, 253.111 372.319, 260.224 379.348, 267.337 386.377, 274.450 390.495, 278.617 " fill="none" stroke="rgb(0, 0, 0)" stroke-linecap="butt" stroke-linejoin="round" stroke-opacity="1.0" stroke-width="3.0" />
                <path d=" M 398.095, 457.182 397.670, 447.191 397.245, 437.200 396.820, 427.209 396.394, 417.218 395.969, 407.227 395.544, 397.236 395.119, 387.245 394.693, 377.254 394.268, 367.263 393.843, 357.272 393.418, 347.281 392.992, 337.290 392.567, 327.299 392.142, 317.308 391.717, 307.317 391.291, 297.326 390.866, 287.335 390.495, 278.617 400.245, 276.395 409.995, 274.173 419.745, 271.951 429.495, 269.729 439.245, 267.507 448.995, 265.286 458.745, 263.064 468.495, 260.842 478.245, 258.620 487.995, 256.398 497.745, 254.176 507.495, 251.954 517.245, 249.732 526.995, 247.511 536.745, 245.289 546.495, 243.067 556.246, 240.845 565.996, 238.623 576.040, 236.334 " fill="none" stroke="rgb(0, 0, 0)" stroke-linecap="butt" stroke-linejoin="round" stroke-opacity="1.0" stroke-width="3.0" />
            </g>
            <animate attributeName="display" begin="-0.083s" dur="0.417s" id="anim_RenderLayer_LineSet_000009" keyTimes="0.0;0.1;0.2;0.3;0.4;0.5;0.6;0.7;0.8;0.9;1" repeatCount="indefinite" values="none;none;none;none;none;none;none;none;none;inline;none" />
        </g>
        <g id="frame_0010" inkscape:groupmode="frame" inkscape:label="frame_0010">
            <g id="strokes" inkscape:groupmode="layer" inkscape:label="strokes">
                <path d=" M 402.987, 458.066 412.474, 454.902 421.960, 451.738 431.446, 448.575 440.933, 445.411 450.419, 442.247 459.905, 439.084 469.392, 435.920 478.878, 432.756 488.365, 429.593 497.851, 426.429 507.337, 423.265 516.824, 420.102 526.310, 416.938 535.796, 413.774 545.283, 410.611 554.769, 407.447 564.255, 404.283 569.483, 402.540 569.935, 392.550 570.387, 382.560 570.838, 372.570 571.290, 362.581 571.742, 352.591 572.194, 342.601 572.645, 332.611 573.097, 322.621 573.549, 312.632 574.000, 302.642 574.452, 292.652 574.904, 282.662 575.356, 272.673 575.807, 262.683 576.259, 252.693 576.711, 242.703 577.093, 234.253 568.648, 228.898 560.203, 223.543 551.758, 218.187 543.312, 212.832 534.867, 207.477 526.422, 202.121 517.977, 196.766 509.532, 191.411 501.087, 186.055 492.642, 180.700 484.196, 175.345 477.924, 171.367 468.130, 173.386 458.336, 175.405 448.542, 177.424 438.748, 179.442 428.954, 181.461 419.160, 183.480 409.366, 185.499 399.571, 187.518 389.777, 189.536 379.983, 191.555 370.189, 193.574 360.395, 195.593 350.601, 197.612 340.807, 199.631 331.013, 201.649 321.219, 203.668 314.057, 205.144 314.817, 215.115 315.578, 225.086 316.338, 235.057 317.098, 245.029 317.858, 255.000 318.619, 264.971 319.379, 274.942 320.139, 284.913 320.900, 294.884 321.660, 304.855 322.420, 314.826 323.180, 324.797 323.941, 334.768 324.701, 344.739 325.461, 354.710 326.342, 366.260 332.751, 373.937 339.160, 381.613 345.568, 389.290 351.977, 396.966 358.386, 404.643 364.795, 412.319 371.204, 419.995 377.612, 427.672 384.021, 435.348 390.430, 443.025 396.839, 450.701 402.987, 458.066 " fill="none" stroke="rgb(0, 0, 0)" stroke-linecap="butt" stroke-linejoin="round" stroke-opacity="1.0" stroke-width="3.0" />
                <path d=" M 314.057, 205.144 321.463, 211.864 328.869, 218.583 336.275, 225.303 343.681, 232.023 351.087, 238.742 358.492, 245.462 365.898, 252.181 373.304, 258.901 380.710, 265.620 388.116, 272.340 395.831, 279.340 " fill="none" stroke="rgb(0, 0, 0)" stroke-linecap="butt" stroke-linejoin="round" stroke-opacity="1.0" stroke-width="3.0" />
                <path d=" M 402.987, 458.066 402.587, 448.074 402.187, 438.082 401.787, 428.090 401.387, 418.098 400.987, 408.106 400.587, 398.114 400.187, 388.122 399.786, 378.130 399.386, 368.138 398.986, 358.146 398.586, 348.154 398.186, 338.162 397.786, 328.170 397.386, 318.178 396.986, 308.186 396.586, 298.194 396.186, 288.202 395.831, 279.340 405.535, 276.926 415.240, 274.512 424.944, 272.098 434.648, 269.685 444.352, 267.271 454.057, 264.857 463.761, 262.443 473.465, 260.029 483.170, 257.615 492.874, 255.202 502.578, 252.788 512.283, 250.374 521.987, 247.960 531.691, 245.546 541.395, 243.133 551.100, 240.719 560.804, 238.305 570.508, 235.891 577.093, 234.253 " fill="none" stroke="rgb(0, 0, 0)" stroke-linecap="butt" stroke-linejoin="round" stroke-opacity="1.0" stroke-width="3.0" />
            </g>
            <animate attributeName="display" begin="-0.042s" dur="0.417s" id="anim_RenderLayer_LineSet_000010" keyTimes="0.0;0.1;0.2;0.3;0.4;0.5;0.6;0.7;0.8;0.9;1" repeatCount="indefinite" values="none;none;none;none;none;none;none;none;none;inline;none" />
        </g>
    </g>
</svg>
