<?xml version='1.0' encoding='ascii'?>
<svg xmlns="http://www.w3.org/2000/svg" xmlns:inkscape="http://www.inkscape.org/namespaces/inkscape" height="540" version="1.1" width="960">
    <g id="RenderLayer_LineSet" inkscape:groupmode="lineset" inkscape:label="RenderLayer_LineSet">
        <g id="frame_0001" inkscape:groupmode="frame" inkscape:label="frame_0001">
            <g id="fills" inkscape:groupmode="layer" inkscape:label="fills">
                <path d=" M 442.234, 322.572 459.154, 314.985 458.953, 295.017 443.835, 287.388 426.786, 294.574 427.294, 314.530 442.234, 322.572  z" fill="rgb(204, 112, 71)" fill-opacity="1.0" fill_rule="evenodd" stroke="none" />
            </g>
            <g id="strokes" inkscape:groupmode="layer" inkscape:label="strokes">
                <path d=" M 442.234, 322.572 451.358, 318.481 459.154, 314.985 459.053, 304.986 458.953, 295.017 450.025, 290.512 443.835, 287.388 434.620, 291.272 426.786, 294.574 427.041, 304.570 427.294, 314.530 436.100, 319.270 442.234, 322.572 " fill="none" stroke="rgb(0, 0, 0)" stroke-linecap="butt" stroke-linejoin="round" stroke-opacity="1.0" stroke-width="3.0" />
                <path d=" M 426.786, 294.574 435.659, 299.185 441.864, 302.409 " fill="none" stroke="rgb(0, 0, 0)" stroke-linecap="butt" stroke-linejoin="round" stroke-opacity="1.0" stroke-width="3.0" />
                <path d=" M 442.234, 322.572 442.050, 312.574 441.864, 302.409 451.042, 298.439 458.953, 295.017 " fill="none" stroke="rgb(0, 0, 0)" stroke-linecap="butt" stroke-linejoin="round" stroke-opacity="1.0" stroke-width="3.0" />
            </g>
            <animate attributeName="display" begin="-0.417s" dur="0.417s" id="anim_RenderLayer_LineSet_000001" keyTimes="0.0;0.1;0.2;0.3;0.4;0.5;0.6;0.7;0.8;0.9;1" repeatCount="indefinite" values="none;none;none;none;none;none;none;none;none;inline;none" />
        </g>
        <g id="frame_0002" inkscape:groupmode="frame" inkscape:label="frame_0002">
            <g id="fills" inkscape:groupmode="layer" inkscape:label="fills">
                <path d=" M 442.000, 327.700 463.731, 317.871 463.528, 292.197 444.059, 282.464 422.116, 291.629 422.827, 317.284 442.000, 327.700  z" fill="rgb(204, 112, 71)" fill-opacity="1.0" fill_rule="evenodd" stroke="none" />
            </g>
            <g id="strokes" inkscape:groupmode="layer" inkscape:label="strokes">
                <path d=" M 442.000, 327.700 451.112, 323.579 460.223, 319.458 463.731, 317.871 463.652, 307.871 463.573, 297.872 463.528, 292.197 454.584, 287.726 445.639, 283.254 444.059, 282.464 434.831, 286.318 425.604, 290.172 422.116, 291.629 422.393, 301.625 422.670, 311.622 422.827, 317.284 431.614, 322.057 440.401, 326.831 442.000, 327.700 " fill="none" stroke="rgb(0, 0, 0)" stroke-linecap="butt" stroke-linejoin="round" stroke-opacity="1.0" stroke-width="3.0" />
                <path d=" M 422.116, 291.629 430.991, 296.237 439.867, 300.844 441.519, 301.702 " fill="none" stroke="rgb(0, 0, 0)" stroke-linecap="butt" stroke-linejoin="round" stroke-opacity="1.0" stroke-width="3.0" />
                <path d=" M 442.000, 327.700 441.815, 317.701 441.630, 307.703 441.519, 301.702 450.700, 297.737 459.880, 293.773 463.528, 292.197 " fill="none" stroke="rgb(0, 0, 0)" stroke-linecap="butt" stroke-linejoin="round" stroke-opacity="1.0" stroke-width="3.0" />
            </g>
            <animate attributeName="display" begin="-0.375s" dur="0.417s" id="anim_RenderLayer_LineSet_000002" keyTimes="0.0;0.1;0.2;0.3;0.4;0.5;0.6;0.7;0.8;0.9;1" repeatCount="indefinite" values="none;none;none;none;none;none;none;none;none;inline;none" />
        </g>
        <g id="frame_0003" inkscape:groupmode="frame" inkscape:label="frame_0003">
            <g id="fills" inkscape:groupmode="layer" inkscape:label="fills">
                <path d=" M 441.293, 343.243 477.393, 326.487 477.339, 283.685 444.725, 267.837 408.035, 282.750 409.501, 325.497 441.293, 343.243  z" fill="rgb(204, 112, 71)" fill-opacity="1.0" fill_rule="evenodd" stroke="none" />
            </g>
            <g id="strokes" inkscape:groupmode="layer" inkscape:label="strokes">
                <path d=" M 441.293, 343.243 450.363, 339.032 459.434, 334.822 468.504, 330.612 477.393, 326.487 477.380, 316.487 477.368, 306.487 477.355, 296.487 477.342, 286.487 477.339, 283.685 468.344, 279.315 459.350, 274.944 450.356, 270.573 444.725, 267.837 435.461, 271.603 426.197, 275.368 416.933, 279.133 408.035, 282.750 408.378, 292.744 408.721, 302.738 409.063, 312.732 409.406, 322.726 409.501, 325.497 418.233, 330.371 426.965, 335.245 435.696, 340.119 441.293, 343.243 " fill="none" stroke="rgb(0, 0, 0)" stroke-linecap="butt" stroke-linejoin="round" stroke-opacity="1.0" stroke-width="3.0" />
                <path d=" M 408.035, 282.750 416.916, 287.347 425.797, 291.943 434.678, 296.540 440.463, 299.535 " fill="none" stroke="rgb(0, 0, 0)" stroke-linecap="butt" stroke-linejoin="round" stroke-opacity="1.0" stroke-width="3.0" />
                <path d=" M 441.293, 343.243 441.103, 333.244 440.913, 323.246 440.723, 313.248 440.533, 303.250 440.463, 299.535 449.650, 295.586 458.837, 291.637 468.025, 287.688 477.339, 283.685 " fill="none" stroke="rgb(0, 0, 0)" stroke-linecap="butt" stroke-linejoin="round" stroke-opacity="1.0" stroke-width="3.0" />
            </g>
            <animate attributeName="display" begin="-0.333s" dur="0.417s" id="anim_RenderLayer_LineSet_000003" keyTimes="0.0;0.1;0.2;0.3;0.4;0.5;0.6;0.7;0.8;0.9;1" repeatCount="indefinite" values="none;none;none;none;none;none;none;none;none;inline;none" />
        </g>
        <g id="frame_0004" inkscape:groupmode="frame" inkscape:label="frame_0004">
            <g id="fills" inkscape:groupmode="layer" inkscape:label="fills">
                <path d=" M 440.134, 368.709 499.118, 340.186 499.777, 269.856 445.773, 244.801 385.200, 268.350 388.349, 338.534 440.134, 368.709  z" fill="rgb(204, 112, 71)" fill-opacity="1.0" fill_rule="evenodd" stroke="none" />
            </g>
            <g id="strokes" inkscape:groupmode="layer" inkscape:label="strokes">
                <path d=" M 440.134, 368.709 449.136, 364.356 458.139, 360.002 467.142, 355.649 476.144, 351.295 485.147, 346.942 494.150, 342.589 499.118, 340.186 499.212, 330.187 499.305, 320.187 499.399, 310.187 499.492, 300.188 499.586, 290.188 499.680, 280.189 499.777, 269.856 490.705, 265.647 481.634, 261.439 472.563, 257.230 463.492, 253.021 454.420, 248.813 445.773, 244.801 436.453, 248.424 427.132, 252.048 417.812, 255.671 408.491, 259.295 399.171, 262.918 389.850, 266.542 385.200, 268.350 385.648, 278.340 386.096, 288.330 386.544, 298.320 386.993, 308.310 387.441, 318.300 387.889, 328.290 388.349, 338.534 396.989, 343.569 405.629, 348.603 414.269, 353.638 422.909, 358.672 431.550, 363.707 440.134, 368.709 " fill="none" stroke="rgb(0, 0, 0)" stroke-linecap="butt" stroke-linejoin="round" stroke-opacity="1.0" stroke-width="3.0" />
                <path d=" M 385.200, 268.350 394.090, 272.929 402.980, 277.508 411.870, 282.087 420.760, 286.666 429.650, 291.245 438.692, 295.901 " fill="none" stroke="rgb(0, 0, 0)" stroke-linecap="butt" stroke-linejoin="round" stroke-opacity="1.0" stroke-width="3.0" />
                <path d=" M 440.134, 368.709 439.936, 358.711 439.738, 348.713 439.540, 338.715 439.342, 328.717 439.144, 318.719 438.946, 308.721 438.748, 298.723 438.692, 295.901 447.890, 291.979 457.089, 288.057 466.288, 284.135 475.487, 280.213 484.685, 276.290 493.884, 272.368 499.777, 269.856 " fill="none" stroke="rgb(0, 0, 0)" stroke-linecap="butt" stroke-linejoin="round" stroke-opacity="1.0" stroke-width="3.0" />
            </g>
            <animate attributeName="display" begin="-0.292s" dur="0.417s" id="anim_RenderLayer_LineSet_000004" keyTimes="0.0;0.1;0.2;0.3;0.4;0.5;0.6;0.7;0.8;0.9;1" repeatCount="indefinite" values="none;none;none;none;none;none;none;none;none;inline;none" />
        </g>
        <g id="frame_0005" inkscape:groupmode="frame" inkscape:label="frame_0005">
            <g id="fills" inkscape:groupmode="layer" inkscape:label="fills">
                <path d=" M 438.617, 402.046 526.383, 357.379 528.798, 251.968 447.071, 216.271 355.741, 249.773 361.866, 354.856 438.617, 402.046  z" fill="rgb(204, 112, 71)" fill-opacity="1.0" fill_rule="evenodd" stroke="none" />
            </g>
            <g id="strokes" inkscape:groupmode="layer" inkscape:label="strokes">
                <path d=" M 438.617, 402.046 447.529, 397.511 456.441, 392.975 465.353, 388.439 474.265, 383.904 483.178, 379.368 492.090, 374.832 501.002, 370.296 509.914, 365.761 518.826, 361.225 526.383, 357.379 526.612, 347.382 526.841, 337.385 527.070, 327.387 527.299, 317.390 527.528, 307.392 527.758, 297.395 527.987, 287.398 528.216, 277.400 528.445, 267.403 528.674, 257.406 528.798, 251.968 519.634, 247.966 510.470, 243.963 501.307, 239.960 492.143, 235.958 482.979, 231.955 473.815, 227.952 464.651, 223.950 455.487, 219.947 447.071, 216.271 437.683, 219.715 428.295, 223.159 418.907, 226.603 409.518, 230.047 400.130, 233.490 390.742, 236.934 381.353, 240.378 371.965, 243.822 362.577, 247.266 355.741, 249.773 356.323, 259.756 356.905, 269.739 357.487, 279.723 358.069, 289.706 358.651, 299.689 359.233, 309.672 359.815, 319.655 360.396, 329.638 360.978, 339.621 361.560, 349.604 361.866, 354.856 370.385, 360.094 378.904, 365.332 387.422, 370.569 395.941, 375.807 404.459, 381.045 412.978, 386.282 421.497, 391.520 430.015, 396.758 438.617, 402.046 " fill="none" stroke="rgb(0, 0, 0)" stroke-linecap="butt" stroke-linejoin="round" stroke-opacity="1.0" stroke-width="3.0" />
                <path d=" M 355.741, 249.773 364.644, 254.328 373.546, 258.882 382.449, 263.437 391.352, 267.991 400.254, 272.546 409.157, 277.100 418.059, 281.655 426.962, 286.209 436.295, 290.984 " fill="none" stroke="rgb(0, 0, 0)" stroke-linecap="butt" stroke-linejoin="round" stroke-opacity="1.0" stroke-width="3.0" />
                <path d=" M 438.617, 402.046 438.408, 392.049 438.199, 382.051 437.990, 372.053 437.780, 362.055 437.571, 352.057 437.362, 342.060 437.153, 332.062 436.944, 322.064 436.735, 312.066 436.526, 302.068 436.295, 290.984 445.509, 287.097 454.723, 283.211 463.936, 279.325 473.150, 275.439 482.364, 271.553 491.578, 267.667 500.792, 263.780 510.006, 259.894 519.220, 256.008 528.798, 251.968 " fill="none" stroke="rgb(0, 0, 0)" stroke-linecap="butt" stroke-linejoin="round" stroke-opacity="1.0" stroke-width="3.0" />
            </g>
            <animate attributeName="display" begin="-0.250s" dur="0.417s" id="anim_RenderLayer_LineSet_000005" keyTimes="0.0;0.1;0.2;0.3;0.4;0.5;0.6;0.7;0.8;0.9;1" repeatCount="indefinite" values="none;none;none;none;none;none;none;none;none;inline;none" />
        </g>
        <g id="frame_0006" inkscape:groupmode="frame" inkscape:label="frame_0006">
            <g id="fills" inkscape:groupmode="layer" inkscape:label="fills">
                <path d=" M 436.923, 439.252 555.342, 375.641 560.727, 232.289 448.430, 186.424 323.432, 229.400 333.817, 372.144 436.923, 439.252  z" fill="rgb(204, 112, 71)" fill-opacity="1.0" fill_rule="evenodd" stroke="none" />
            </g>
            <g id="strokes" inkscape:groupmode="layer" inkscape:label="strokes">
                <path d=" M 436.923, 439.252 445.733, 434.520 454.542, 429.787 463.352, 425.055 472.161, 420.323 480.971, 415.591 489.780, 410.859 498.590, 406.126 507.399, 401.394 516.208, 396.662 525.018, 391.930 533.827, 387.198 542.637, 382.466 551.446, 377.733 555.342, 375.641 555.717, 365.648 556.093, 355.655 556.468, 345.662 556.844, 335.669 557.219, 325.676 557.594, 315.683 557.970, 305.690 558.345, 295.697 558.720, 285.704 559.096, 275.711 559.471, 265.718 559.846, 255.725 560.222, 245.732 560.597, 235.739 560.727, 232.289 551.469, 228.508 542.211, 224.727 532.954, 220.946 523.696, 217.165 514.439, 213.384 505.181, 209.603 495.923, 205.822 486.666, 202.040 477.408, 198.259 468.151, 194.478 458.893, 190.697 449.635, 186.916 448.430, 186.424 438.973, 189.675 429.516, 192.926 420.060, 196.178 410.603, 199.429 401.146, 202.680 391.690, 205.932 382.233, 209.183 372.776, 212.434 363.320, 215.686 353.863, 218.937 344.406, 222.188 334.950, 225.440 325.493, 228.691 323.432, 229.400 324.158, 239.373 324.883, 249.347 325.609, 259.321 326.335, 269.294 327.060, 279.268 327.786, 289.241 328.512, 299.215 329.237, 309.189 329.963, 319.162 330.688, 329.136 331.414, 339.110 332.140, 349.083 332.865, 359.057 333.591, 369.031 333.817, 372.144 342.198, 377.599 350.580, 383.054 358.961, 388.509 367.342, 393.964 375.723, 399.419 384.104, 404.874 392.485, 410.329 400.867, 415.784 409.248, 421.239 417.629, 426.694 426.010, 432.149 434.391, 437.604 436.923, 439.252 " fill="none" stroke="rgb(0, 0, 0)" stroke-linecap="butt" stroke-linejoin="round" stroke-opacity="1.0" stroke-width="3.0" />
                <path d=" M 323.432, 229.400 332.349, 233.925 341.267, 238.451 350.184, 242.977 359.101, 247.503 368.018, 252.029 376.936, 256.555 385.853, 261.080 394.770, 265.606 403.687, 270.132 412.604, 274.658 421.522, 279.184 430.439, 283.709 433.508, 285.267 " fill="none" stroke="rgb(0, 0, 0)" stroke-linecap="butt" stroke-linejoin="round" stroke-opacity="1.0" stroke-width="3.0" />
                <path d=" M 436.923, 439.252 436.702, 429.254 436.480, 419.257 436.258, 409.259 436.036, 399.262 435.815, 389.264 435.593, 379.266 435.371, 369.269 435.149, 359.271 434.928, 349.274 434.706, 339.276 434.484, 329.279 434.262, 319.281 434.041, 309.284 433.819, 299.286 433.597, 289.289 433.508, 285.267 442.740, 281.423 451.971, 277.578 461.203, 273.734 470.434, 269.890 479.666, 266.046 488.897, 262.201 498.129, 258.357 507.360, 254.513 516.592, 250.668 525.823, 246.824 535.055, 242.980 544.286, 239.136 553.518, 235.291 560.727, 232.289 " fill="none" stroke="rgb(0, 0, 0)" stroke-linecap="butt" stroke-linejoin="round" stroke-opacity="1.0" stroke-width="3.0" />
            </g>
            <animate attributeName="display" begin="-0.208s" dur="0.417s" id="anim_RenderLayer_LineSet_000006" keyTimes="0.0;0.1;0.2;0.3;0.4;0.5;0.6;0.7;0.8;0.9;1" repeatCount="indefinite" values="none;none;none;none;none;none;none;none;none;inline;none" />
        </g>
        <g id="frame_0007" inkscape:groupmode="frame" inkscape:label="frame_0007">
            <g id="fills" inkscape:groupmode="layer" inkscape:label="fills">
                <path d=" M 435.299, 474.943 581.770, 392.306 590.908, 213.687 449.651, 159.585 292.987, 210.201 308.290, 387.878 435.299, 474.943  z" fill="rgb(204, 112, 71)" fill-opacity="1.0" fill_rule="evenodd" stroke="none" />
            </g>
            <g id="strokes" inkscape:groupmode="layer" inkscape:label="strokes">
                <path d=" M 435.299, 474.943 444.008, 470.029 452.718, 465.115 461.427, 460.202 470.137, 455.288 478.846, 450.374 487.556, 445.460 496.265, 440.546 504.975, 435.633 513.684, 430.719 522.394, 425.805 531.103, 420.891 539.813, 415.978 548.522, 411.064 557.232, 406.150 565.941, 401.236 574.651, 396.323 581.770, 392.306 582.281, 382.319 582.792, 372.332 583.303, 362.345 583.814, 352.358 584.325, 342.371 584.836, 332.384 585.346, 322.397 585.857, 312.410 586.368, 302.424 586.879, 292.437 587.390, 282.450 587.901, 272.463 588.412, 262.476 588.923, 252.489 589.434, 242.502 589.945, 232.515 590.456, 222.528 590.908, 213.687 581.570, 210.110 572.231, 206.534 562.893, 202.957 553.555, 199.380 544.216, 195.804 534.878, 192.227 525.539, 188.650 516.201, 185.074 506.862, 181.497 497.524, 177.920 488.185, 174.344 478.847, 170.767 469.508, 167.190 460.170, 163.613 449.651, 159.585 440.136, 162.659 430.620, 165.734 421.104, 168.808 411.589, 171.882 402.073, 174.957 392.557, 178.031 383.041, 181.105 373.526, 184.180 364.010, 187.254 354.494, 190.329 344.979, 193.403 335.463, 196.477 325.947, 199.552 316.432, 202.626 306.916, 205.700 297.400, 208.775 292.987, 210.201 293.845, 220.164 294.703, 230.127 295.561, 240.090 296.419, 250.053 297.277, 260.016 298.136, 269.979 298.994, 279.943 299.852, 289.906 300.710, 299.869 301.568, 309.832 302.426, 319.795 303.284, 329.758 304.143, 339.721 305.001, 349.684 305.859, 359.647 306.717, 369.611 307.575, 379.574 308.290, 387.878 316.538, 393.532 324.786, 399.186 333.035, 404.840 341.283, 410.494 349.531, 416.148 357.779, 421.802 366.027, 427.457 374.275, 433.111 382.523, 438.765 390.771, 444.419 399.019, 450.073 407.267, 455.727 415.516, 461.381 423.764, 467.035 432.012, 472.689 435.299, 474.943 " fill="none" stroke="rgb(0, 0, 0)" stroke-linecap="butt" stroke-linejoin="round" stroke-opacity="1.0" stroke-width="3.0" />
                <path d=" M 292.987, 210.201 301.919, 214.698 310.850, 219.194 319.782, 223.691 328.714, 228.188 337.646, 232.685 346.578, 237.182 355.510, 241.679 364.442, 246.175 373.374, 250.672 382.306, 255.169 391.237, 259.666 400.169, 264.163 409.101, 268.659 418.033, 273.156 426.965, 277.653 430.717, 279.542 " fill="none" stroke="rgb(0, 0, 0)" stroke-linecap="butt" stroke-linejoin="round" stroke-opacity="1.0" stroke-width="3.0" />
                <path d=" M 435.299, 474.943 435.065, 464.946 434.830, 454.948 434.596, 444.951 434.361, 434.954 434.127, 424.957 433.893, 414.959 433.658, 404.962 433.424, 394.965 433.189, 384.968 432.955, 374.970 432.721, 364.973 432.486, 354.976 432.252, 344.979 432.017, 334.981 431.783, 324.984 431.548, 314.987 431.314, 304.990 431.080, 294.992 430.845, 284.995 430.717, 279.542 439.966, 275.740 449.215, 271.938 458.464, 268.135 467.713, 264.333 476.962, 260.531 486.211, 256.729 495.460, 252.926 504.709, 249.124 513.958, 245.322 523.207, 241.520 532.456, 237.717 541.705, 233.915 550.953, 230.113 560.202, 226.310 569.451, 222.508 578.700, 218.706 587.949, 214.904 590.908, 213.687 " fill="none" stroke="rgb(0, 0, 0)" stroke-linecap="butt" stroke-linejoin="round" stroke-opacity="1.0" stroke-width="3.0" />
            </g>
            <animate attributeName="display" begin="-0.167s" dur="0.417s" id="anim_RenderLayer_LineSet_000007" keyTimes="0.0;0.1;0.2;0.3;0.4;0.5;0.6;0.7;0.8;0.9;1" repeatCount="indefinite" values="none;none;none;none;none;none;none;none;none;inline;none" />
        </g>
        <g id="frame_0008" inkscape:groupmode="frame" inkscape:label="frame_0008">
            <g id="fills" inkscape:groupmode="layer" inkscape:label="fills">
                <path d=" M 433.983, 503.854 602.271, 405.234 615.042, 198.812 450.587, 139.023 268.709, 194.891 288.534, 400.054 433.983, 503.854  z" fill="rgb(204, 112, 71)" fill-opacity="1.0" fill_rule="evenodd" stroke="none" />
            </g>
            <g id="strokes" inkscape:groupmode="layer" inkscape:label="strokes">
                <path d=" M 433.983, 503.854 442.611, 498.798 451.239, 493.742 459.866, 488.686 468.494, 483.630 477.122, 478.574 485.749, 473.518 494.377, 468.462 503.005, 463.406 511.632, 458.350 520.260, 453.294 528.888, 448.238 537.515, 443.182 546.143, 438.126 554.771, 433.070 563.398, 428.014 572.026, 422.958 580.654, 417.902 589.281, 412.846 597.909, 407.790 602.271, 405.234 602.888, 395.253 603.506, 385.272 604.123, 375.291 604.741, 365.310 605.358, 355.329 605.976, 345.348 606.593, 335.367 607.211, 325.386 607.828, 315.405 608.446, 305.424 609.063, 295.444 609.681, 285.463 610.298, 275.482 610.916, 265.501 611.534, 255.520 612.151, 245.539 612.769, 235.558 613.386, 225.577 614.004, 215.596 614.621, 205.615 615.042, 198.812 605.644, 195.395 596.246, 191.979 586.848, 188.562 577.449, 185.145 568.051, 181.728 558.653, 178.311 549.255, 174.895 539.857, 171.478 530.459, 168.061 521.060, 164.644 511.662, 161.227 502.264, 157.811 492.866, 154.394 483.468, 150.977 474.070, 147.560 464.672, 144.143 455.273, 140.727 450.587, 139.023 441.028, 141.959 431.469, 144.896 421.909, 147.832 412.350, 150.768 402.791, 153.705 393.232, 156.641 383.673, 159.577 374.114, 162.514 364.554, 165.450 354.995, 168.386 345.436, 171.323 335.877, 174.259 326.318, 177.195 316.759, 180.132 307.199, 183.068 297.640, 186.004 288.081, 188.941 278.522, 191.877 268.709, 194.891 269.671, 204.845 270.633, 214.799 271.594, 224.752 272.556, 234.706 273.518, 244.660 274.480, 254.613 275.442, 264.567 276.404, 274.520 277.365, 284.474 278.327, 294.428 279.289, 304.381 280.251, 314.335 281.213, 324.289 282.175, 334.242 283.137, 344.196 284.098, 354.150 285.060, 364.103 286.022, 374.057 286.984, 384.010 287.946, 393.964 288.534, 400.054 296.674, 405.863 304.814, 411.672 312.954, 417.481 321.093, 423.290 329.233, 429.099 337.373, 434.908 345.513, 440.717 353.653, 446.526 361.792, 452.335 369.932, 458.144 378.072, 463.953 386.212, 469.762 394.352, 475.571 402.491, 481.380 410.631, 487.188 418.771, 492.997 426.911, 498.806 433.983, 503.854 " fill="none" stroke="rgb(0, 0, 0)" stroke-linecap="butt" stroke-linejoin="round" stroke-opacity="1.0" stroke-width="3.0" />
                <path d=" M 268.709, 194.891 277.653, 199.364 286.597, 203.836 295.542, 208.308 304.486, 212.780 313.430, 217.252 322.374, 221.724 331.319, 226.197 340.263, 230.669 349.207, 235.141 358.151, 239.613 367.096, 244.085 376.040, 248.557 384.984, 253.030 393.928, 257.502 402.873, 261.974 411.817, 266.446 420.761, 270.918 428.367, 274.721 " fill="none" stroke="rgb(0, 0, 0)" stroke-linecap="butt" stroke-linejoin="round" stroke-opacity="1.0" stroke-width="3.0" />
                <path d=" M 433.983, 503.854 433.738, 493.857 433.493, 483.860 433.248, 473.863 433.003, 463.866 432.758, 453.869 432.513, 443.872 432.268, 433.875 432.023, 423.878 431.778, 413.881 431.533, 403.884 431.288, 393.887 431.043, 383.890 430.798, 373.893 430.553, 363.896 430.308, 353.899 430.063, 343.902 429.818, 333.905 429.573, 323.908 429.328, 313.911 429.083, 303.914 428.838, 293.917 428.593, 283.920 428.367, 274.721 437.631, 270.954 446.894, 267.188 456.158, 263.421 465.421, 259.654 474.685, 255.887 483.948, 252.120 493.211, 248.353 502.475, 244.586 511.738, 240.820 521.002, 237.053 530.265, 233.286 539.528, 229.519 548.792, 225.752 558.055, 221.985 567.319, 218.218 576.582, 214.452 585.845, 210.685 595.109, 206.918 604.372, 203.151 615.042, 198.812 " fill="none" stroke="rgb(0, 0, 0)" stroke-linecap="butt" stroke-linejoin="round" stroke-opacity="1.0" stroke-width="3.0" />
            </g>
            <animate attributeName="display" begin="-0.125s" dur="0.417s" id="anim_RenderLayer_LineSet_000008" keyTimes="0.0;0.1;0.2;0.3;0.4;0.5;0.6;0.7;0.8;0.9;1" repeatCount="indefinite" values="none;none;none;none;none;none;none;none;none;inline;none" />
        </g>
        <g id="frame_0009" inkscape:groupmode="frame" inkscape:label="frame_0009">
            <g id="fills" inkscape:groupmode="layer" inkscape:label="fills">
                <path d=" M 433.146, 522.254 614.919, 413.209 630.258, 189.434 451.159, 126.447 253.433, 185.258 276.366, 407.554 433.146, 522.254  z" fill="rgb(204, 112, 71)" fill-opacity="1.0" fill_rule="evenodd" stroke="none" />
            </g>
            <g id="strokes" inkscape:groupmode="layer" inkscape:label="strokes">
                <path d=" M 433.146, 522.254 441.721, 517.110 450.296, 511.965 458.872, 506.821 467.447, 501.677 476.022, 496.533 484.598, 491.388 493.173, 486.244 501.748, 481.100 510.324, 475.955 518.899, 470.811 527.474, 465.667 536.050, 460.523 544.625, 455.378 553.200, 450.234 561.776, 445.090 570.351, 439.945 578.926, 434.801 587.502, 429.657 596.077, 424.512 604.652, 419.368 614.919, 413.209 615.602, 403.233 616.286, 393.256 616.970, 383.280 617.654, 373.303 618.338, 363.326 619.022, 353.350 619.706, 343.373 620.390, 333.397 621.073, 323.420 621.757, 313.444 622.441, 303.467 623.125, 293.490 623.809, 283.514 624.493, 273.537 625.177, 263.561 625.861, 253.584 626.545, 243.607 627.228, 233.631 627.912, 223.654 628.596, 213.678 629.280, 203.701 629.964, 193.724 630.258, 189.434 620.824, 186.116 611.391, 182.799 601.957, 179.481 592.524, 176.163 583.090, 172.846 573.656, 169.528 564.223, 166.210 554.789, 162.893 545.355, 159.575 535.922, 156.257 526.488, 152.940 517.055, 149.622 507.621, 146.304 498.187, 142.987 488.754, 139.669 479.320, 136.351 469.887, 133.034 460.453, 129.716 451.159, 126.447 441.574, 129.298 431.989, 132.149 422.404, 135.000 412.819, 137.851 403.234, 140.702 393.649, 143.553 384.064, 146.404 374.479, 149.255 364.894, 152.106 355.309, 154.957 345.724, 157.807 336.139, 160.658 326.554, 163.509 316.969, 166.360 307.384, 169.211 297.799, 172.062 288.214, 174.913 278.629, 177.764 269.044, 180.615 259.459, 183.466 253.433, 185.258 254.459, 195.205 255.485, 205.153 256.511, 215.100 257.537, 225.047 258.564, 234.994 259.590, 244.941 260.616, 254.889 261.642, 264.836 262.668, 274.783 263.695, 284.730 264.721, 294.677 265.747, 304.625 266.773, 314.572 267.799, 324.519 268.826, 334.466 269.852, 344.413 270.878, 354.361 271.904, 364.308 272.930, 374.255 273.956, 384.202 274.983, 394.150 276.009, 404.097 276.366, 407.554 284.436, 413.459 292.507, 419.364 300.578, 425.268 308.649, 431.173 316.719, 437.077 324.790, 442.982 332.861, 448.886 340.931, 454.791 349.002, 460.695 357.073, 466.600 365.144, 472.504 373.214, 478.409 381.285, 484.313 389.356, 490.218 397.427, 496.122 405.497, 502.027 413.568, 507.931 421.639, 513.836 429.710, 519.740 433.146, 522.254 " fill="none" stroke="rgb(0, 0, 0)" stroke-linecap="butt" stroke-linejoin="round" stroke-opacity="1.0" stroke-width="3.0" />
                <path d=" M 253.433, 185.258 262.385, 189.714 271.337, 194.170 280.290, 198.626 289.242, 203.082 298.194, 207.538 307.147, 211.994 316.099, 216.450 325.052, 220.905 334.004, 225.361 342.956, 229.817 351.909, 234.273 360.861, 238.729 369.813, 243.185 378.766, 247.641 387.718, 252.097 396.671, 256.553 405.623, 261.009 414.575, 265.464 423.528, 269.920 426.828, 271.563 " fill="none" stroke="rgb(0, 0, 0)" stroke-linecap="butt" stroke-linejoin="round" stroke-opacity="1.0" stroke-width="3.0" />
                <path d=" M 433.146, 522.254 432.894, 512.257 432.642, 502.260 432.390, 492.264 432.138, 482.267 431.886, 472.270 431.634, 462.273 431.382, 452.276 431.130, 442.279 430.878, 432.283 430.626, 422.286 430.374, 412.289 430.123, 402.292 429.871, 392.295 429.619, 382.299 429.367, 372.302 429.115, 362.305 428.863, 352.308 428.611, 342.311 428.359, 332.314 428.107, 322.318 427.855, 312.321 427.603, 302.324 427.351, 292.327 427.099, 282.330 426.828, 271.563 436.101, 267.819 445.374, 264.076 454.646, 260.332 463.919, 256.589 473.192, 252.845 482.465, 249.101 491.738, 245.358 501.010, 241.614 510.283, 237.870 519.556, 234.127 528.829, 230.383 538.102, 226.639 547.375, 222.896 556.647, 219.152 565.920, 215.409 575.193, 211.665 584.466, 207.921 593.739, 204.178 603.011, 200.434 612.284, 196.690 621.557, 192.947 630.258, 189.434 " fill="none" stroke="rgb(0, 0, 0)" stroke-linecap="butt" stroke-linejoin="round" stroke-opacity="1.0" stroke-width="3.0" />
            </g>
            <animate attributeName="display" begin="-0.083s" dur="0.417s" id="anim_RenderLayer_LineSet_000009" keyTimes="0.0;0.1;0.2;0.3;0.4;0.5;0.6;0.7;0.8;0.9;1" repeatCount="indefinite" values="none;none;none;none;none;none;none;none;none;inline;none" />
        </g>
        <g id="frame_0010" inkscape:groupmode="frame" inkscape:label="frame_0010">
            <g id="fills" inkscape:groupmode="layer" inkscape:label="fills">
                <path d=" M 432.864, 528.456 619.114, 415.855 635.362, 186.288 451.348, 122.295 248.314, 182.030 272.333, 410.040 432.864, 528.456  z" fill="rgb(204, 112, 71)" fill-opacity="1.0" fill_rule="evenodd" stroke="none" />
            </g>
            <g id="strokes" inkscape:groupmode="layer" inkscape:label="strokes">
                <path d=" M 432.864, 528.456 441.421, 523.282 449.979, 518.109 458.536, 512.935 467.094, 507.761 475.652, 502.588 484.209, 497.414 492.767, 492.240 501.325, 487.067 509.882, 481.893 518.440, 476.719 526.998, 471.546 535.555, 466.372 544.113, 461.198 552.670, 456.025 561.228, 450.851 569.786, 445.677 578.343, 440.504 586.901, 435.330 595.459, 430.156 604.016, 424.983 612.574, 419.809 619.114, 415.855 619.820, 405.880 620.526, 395.905 621.232, 385.930 621.938, 375.955 622.644, 365.980 623.350, 356.005 624.056, 346.030 624.762, 336.055 625.468, 326.080 626.174, 316.105 626.880, 306.130 627.586, 296.154 628.292, 286.179 628.998, 276.204 629.704, 266.229 630.410, 256.254 631.116, 246.279 631.822, 236.304 632.528, 226.329 633.234, 216.354 633.940, 206.379 634.646, 196.404 635.362, 186.288 625.916, 183.004 616.471, 179.719 607.026, 176.434 597.581, 173.150 588.136, 169.865 578.691, 166.580 569.246, 163.295 559.800, 160.011 550.355, 156.726 540.910, 153.441 531.465, 150.157 522.020, 146.872 512.575, 143.587 503.130, 140.302 493.684, 137.018 484.239, 133.733 474.794, 130.448 465.349, 127.164 455.904, 123.879 451.348, 122.295 441.755, 125.117 432.162, 127.940 422.568, 130.762 412.975, 133.585 403.381, 136.407 393.788, 139.230 384.195, 142.052 374.601, 144.875 365.008, 147.697 355.414, 150.520 345.821, 153.342 336.228, 156.165 326.634, 158.987 317.041, 161.810 307.447, 164.633 297.854, 167.455 288.261, 170.278 278.667, 173.100 269.074, 175.923 259.480, 178.745 248.314, 182.030 249.362, 191.975 250.409, 201.920 251.457, 211.865 252.504, 221.810 253.552, 231.755 254.600, 241.700 255.647, 251.645 256.695, 261.590 257.742, 271.535 258.790, 281.480 259.838, 291.425 260.885, 301.370 261.933, 311.315 262.980, 321.260 264.028, 331.205 265.076, 341.150 266.123, 351.095 267.171, 361.040 268.219, 370.985 269.266, 380.930 270.314, 390.875 271.361, 400.820 272.333, 410.040 280.380, 415.976 288.427, 421.913 296.475, 427.849 304.522, 433.785 312.570, 439.721 320.617, 445.657 328.665, 451.594 336.712, 457.530 344.760, 463.466 352.807, 469.402 360.855, 475.338 368.902, 481.275 376.949, 487.211 384.997, 493.147 393.044, 499.083 401.092, 505.020 409.139, 510.956 417.187, 516.892 425.234, 522.828 432.864, 528.456 " fill="none" stroke="rgb(0, 0, 0)" stroke-linecap="butt" stroke-linejoin="round" stroke-opacity="1.0" stroke-width="3.0" />
                <path d=" M 248.314, 182.030 257.269, 186.481 266.224, 190.931 275.179, 195.381 284.135, 199.832 293.090, 204.282 302.045, 208.732 311.000, 213.183 319.955, 217.633 328.910, 222.083 337.866, 226.534 346.821, 230.984 355.776, 235.434 364.731, 239.885 373.686, 244.335 382.641, 248.785 391.596, 253.236 400.552, 257.686 409.507, 262.136 418.462, 266.586 426.301, 270.482 " fill="none" stroke="rgb(0, 0, 0)" stroke-linecap="butt" stroke-linejoin="round" stroke-opacity="1.0" stroke-width="3.0" />
                <path d=" M 432.864, 528.456 432.609, 518.459 432.355, 508.462 432.101, 498.466 431.846, 488.469 431.592, 478.472 431.338, 468.475 431.083, 458.479 430.829, 448.482 430.575, 438.485 430.321, 428.488 430.066, 418.492 429.812, 408.495 429.558, 398.498 429.303, 388.501 429.049, 378.505 428.795, 368.508 428.540, 358.511 428.286, 348.514 428.032, 338.517 427.777, 328.521 427.523, 318.524 427.269, 308.527 427.015, 298.530 426.760, 288.534 426.506, 278.537 426.301, 270.482 435.577, 266.747 444.853, 263.011 454.129, 259.275 463.405, 255.539 472.681, 251.804 481.957, 248.068 491.233, 244.332 500.509, 240.597 509.785, 236.861 519.061, 233.125 528.337, 229.390 537.613, 225.654 546.889, 221.918 556.165, 218.183 565.441, 214.447 574.718, 210.711 583.994, 206.976 593.270, 203.240 602.546, 199.504 611.822, 195.769 621.098, 192.033 630.374, 188.297 635.362, 186.288 " fill="none" stroke="rgb(0, 0, 0)" stroke-linecap="butt" stroke-linejoin="round" stroke-opacity="1.0" stroke-width="3.0" />
            </g>
            <animate attributeName="display" begin="-0.042s" dur="0.417s" id="anim_RenderLayer_LineSet_000010" keyTimes="0.0;0.1;0.2;0.3;0.4;0.5;0.6;0.7;0.8;0.9;1" repeatCount="indefinite" values="none;none;none;none;none;none;none;none;none;inline;none" />
        </g>
    </g>
</svg>
