<?xml version='1.0' encoding='ascii'?>
<svg xmlns="http://www.w3.org/2000/svg" xmlns:inkscape="http://www.inkscape.org/namespaces/inkscape" height="540" version="1.1" width="960">
    <g id="RenderLayer_LineSet" inkscape:groupmode="lineset" inkscape:label="RenderLayer_LineSet">
        <g id="frame_0001" inkscape:groupmode="frame" inkscape:label="frame_0001">
            <g id="fills" inkscape:groupmode="layer" inkscape:label="fills">
                <path d=" M 477.507, 309.145 558.366, 309.145 558.366, 228.286 477.507, 228.286 477.507, 309.145  z" fill="rgb(204, 33, 27)" fill-opacity="1.0" fill_rule="evenodd" stroke="none" />
                <path d=" M 331.170, 317.507 399.160, 284.508 364.633, 212.536 297.185, 246.666 331.170, 317.507  z" fill="rgb(71, 186, 255)" fill-opacity="1.0" fill_rule="evenodd" stroke="none" />
            </g>
            <g id="strokes" inkscape:groupmode="layer" inkscape:label="strokes">
                <path d=" M 331.170, 317.507 340.166, 313.140 349.163, 308.774 358.159, 304.408 367.155, 300.041 376.152, 295.675 385.148, 291.308 394.144, 286.942 399.160, 284.508 394.835, 275.491 390.510, 266.475 386.184, 257.459 381.859, 248.443 377.533, 239.427 373.208, 230.411 368.883, 221.395 364.633, 212.536 355.710, 217.051 346.788, 221.566 337.865, 226.081 328.942, 230.596 320.020, 235.111 311.097, 239.626 302.174, 244.142 297.185, 246.666 301.510, 255.682 305.836, 264.698 310.161, 273.715 314.487, 282.731 318.812, 291.747 323.137, 300.763 327.463, 309.779 331.170, 317.507 " fill="none" stroke="rgb(0, 0, 0)" stroke-linecap="butt" stroke-linejoin="round" stroke-opacity="1.0" stroke-width="3.0" />
                <path d=" M 477.507, 309.145 487.507, 309.145 497.507, 309.145 507.507, 309.145 517.507, 309.145 527.507, 309.145 537.507, 309.145 547.507, 309.145 557.507, 309.145 558.366, 309.145 558.366, 299.145 558.366, 289.145 558.366, 279.145 558.366, 269.145 558.366, 259.145 558.366, 249.145 558.366, 239.145 558.366, 229.145 558.366, 228.286 548.366, 228.286 538.366, 228.286 528.366, 228.286 518.366, 228.286 508.366, 228.286 498.366, 228.286 488.366, 228.286 478.366, 228.286 477.507, 228.286 477.507, 238.286 477.507, 248.286 477.507, 258.286 477.507, 268.286 477.507, 278.286 477.507, 288.286 477.507, 298.286 477.507, 308.286 477.507, 309.145 " fill="none" stroke="rgb(0, 0, 0)" stroke-linecap="butt" stroke-linejoin="round" stroke-opacity="1.0" stroke-width="3.0" />
            </g>
            <animate attributeName="display" begin="-0.417s" dur="0.417s" id="anim_RenderLayer_LineSet_000001" keyTimes="0.0;0.1;0.2;0.3;0.4;0.5;0.6;0.7;0.8;0.9;1" repeatCount="indefinite" values="none;none;none;none;none;none;none;none;none;inline;none" />
        </g>
        <g id="frame_0002" inkscape:groupmode="frame" inkscape:label="frame_0002">
            <g id="fills" inkscape:groupmode="layer" inkscape:label="fills">
                <path d=" M 486.278, 309.145 567.137, 309.145 567.137, 228.286 486.278, 228.286 485.829, 231.268 485.829, 306.346 486.278, 309.145  z" fill="rgb(204, 33, 27)" fill-opacity="1.0" fill_rule="evenodd" stroke="none" />
                <path d=" M 339.693, 317.507 407.819, 284.508 373.292, 212.536 305.708, 246.666 339.693, 317.507  z" fill="rgb(71, 186, 255)" fill-opacity="1.0" fill_rule="evenodd" stroke="none" />
            </g>
            <g id="strokes" inkscape:groupmode="layer" inkscape:label="strokes">
                <path d=" M 339.693, 317.507 348.692, 313.147 357.692, 308.788 366.692, 304.429 375.692, 300.069 384.692, 295.710 393.691, 291.351 402.691, 286.992 407.819, 284.508 403.494, 275.491 399.168, 266.475 394.843, 257.459 390.518, 248.443 386.192, 239.427 381.867, 230.411 377.541, 221.395 373.292, 212.536 364.365, 217.044 355.439, 221.552 346.513, 226.060 337.586, 230.567 328.660, 235.075 319.734, 239.583 310.807, 244.091 305.708, 246.666 310.033, 255.682 314.358, 264.698 318.684, 273.715 323.009, 282.731 327.335, 291.747 331.660, 300.763 335.985, 309.779 339.693, 317.507 " fill="none" stroke="rgb(0, 0, 0)" stroke-linecap="butt" stroke-linejoin="round" stroke-opacity="1.0" stroke-width="3.0" />
                <path d=" M 486.278, 309.145 496.278, 309.145 506.278, 309.145 516.278, 309.145 526.278, 309.145 536.278, 309.145 546.278, 309.145 556.278, 309.145 566.278, 309.145 567.137, 309.145 567.137, 299.145 567.137, 289.145 567.137, 279.145 567.137, 269.145 567.137, 259.145 567.137, 249.145 567.137, 239.145 567.137, 229.145 567.137, 228.286 557.137, 228.286 547.137, 228.286 537.137, 228.286 527.137, 228.286 517.137, 228.286 507.137, 228.286 497.137, 228.286 487.137, 228.286 486.278, 228.286 485.829, 231.268 485.829, 241.268 485.829, 251.268 485.829, 261.268 485.829, 271.268 485.829, 281.268 485.829, 291.268 485.829, 301.268 485.829, 306.346 486.278, 309.145 " fill="none" stroke="rgb(0, 0, 0)" stroke-linecap="butt" stroke-linejoin="round" stroke-opacity="1.0" stroke-width="3.0" />
                <path d=" M 486.278, 228.286 486.278, 238.286 486.278, 248.286 486.278, 258.286 486.278, 268.286 486.278, 278.286 486.278, 288.286 486.278, 298.286 486.278, 308.286 486.278, 309.145 " fill="none" stroke="rgb(0, 0, 0)" stroke-linecap="butt" stroke-linejoin="round" stroke-opacity="1.0" stroke-width="3.0" />
            </g>
            <animate attributeName="display" begin="-0.375s" dur="0.417s" id="anim_RenderLayer_LineSet_000002" keyTimes="0.0;0.1;0.2;0.3;0.4;0.5;0.6;0.7;0.8;0.9;1" repeatCount="indefinite" values="none;none;none;none;none;none;none;none;none;inline;none" />
        </g>
        <g id="frame_0003" inkscape:groupmode="frame" inkscape:label="frame_0003">
            <g id="fills" inkscape:groupmode="layer" inkscape:label="fills">
                <path d=" M 512.593, 309.145 593.453, 309.145 593.453, 228.286 512.593, 228.286 510.263, 231.268 510.263, 306.346 512.593, 309.145  z" fill="rgb(204, 33, 27)" fill-opacity="1.0" fill_rule="evenodd" stroke="none" />
                <path d=" M 365.263, 317.507 433.798, 284.508 399.271, 212.536 331.278, 246.666 365.263, 317.507  z" fill="rgb(71, 186, 255)" fill-opacity="1.0" fill_rule="evenodd" stroke="none" />
            </g>
            <g id="strokes" inkscape:groupmode="layer" inkscape:label="strokes">
                <path d=" M 365.263, 317.507 374.273, 313.168 383.283, 308.830 392.293, 304.492 401.303, 300.154 410.313, 295.816 419.323, 291.477 428.333, 287.139 433.798, 284.508 429.473, 275.491 425.147, 266.475 420.822, 257.459 416.497, 248.443 412.171, 239.427 407.846, 230.411 403.520, 221.395 399.271, 212.536 390.333, 217.022 381.396, 221.509 372.459, 225.995 363.522, 230.481 354.585, 234.967 345.647, 239.453 336.710, 243.940 331.278, 246.666 335.604, 255.682 339.929, 264.698 344.255, 273.715 348.580, 282.731 352.905, 291.747 357.231, 300.763 361.556, 309.779 365.263, 317.507 " fill="none" stroke="rgb(0, 0, 0)" stroke-linecap="butt" stroke-linejoin="round" stroke-opacity="1.0" stroke-width="3.0" />
                <path d=" M 512.593, 309.145 522.593, 309.145 532.593, 309.145 542.593, 309.145 552.593, 309.145 562.593, 309.145 572.593, 309.145 582.593, 309.145 592.593, 309.145 593.453, 309.145 593.453, 299.145 593.453, 289.145 593.453, 279.145 593.453, 269.145 593.453, 259.145 593.453, 249.145 593.453, 239.145 593.453, 229.145 593.453, 228.286 583.453, 228.286 573.453, 228.286 563.453, 228.286 553.453, 228.286 543.453, 228.286 533.453, 228.286 523.453, 228.286 513.453, 228.286 512.593, 228.286 510.263, 231.268 510.263, 241.268 510.263, 251.268 510.263, 261.268 510.263, 271.268 510.263, 281.268 510.263, 291.268 510.263, 301.268 510.263, 306.346 512.593, 309.145 " fill="none" stroke="rgb(0, 0, 0)" stroke-linecap="butt" stroke-linejoin="round" stroke-opacity="1.0" stroke-width="3.0" />
                <path d=" M 512.593, 228.286 512.593, 238.286 512.593, 248.286 512.593, 258.286 512.593, 268.286 512.593, 278.286 512.593, 288.286 512.593, 298.286 512.593, 308.286 512.593, 309.145 " fill="none" stroke="rgb(0, 0, 0)" stroke-linecap="butt" stroke-linejoin="round" stroke-opacity="1.0" stroke-width="3.0" />
            </g>
            <animate attributeName="display" begin="-0.333s" dur="0.417s" id="anim_RenderLayer_LineSet_000003" keyTimes="0.0;0.1;0.2;0.3;0.4;0.5;0.6;0.7;0.8;0.9;1" repeatCount="indefinite" values="none;none;none;none;none;none;none;none;none;inline;none" />
        </g>
        <g id="frame_0004" inkscape:groupmode="frame" inkscape:label="frame_0004">
            <g id="fills" inkscape:groupmode="layer" inkscape:label="fills">
                <path d=" M 554.848, 309.145 635.707, 309.145 635.707, 228.286 554.848, 228.286 549.496, 231.268 549.496, 306.346 554.848, 309.145  z" fill="rgb(204, 33, 27)" fill-opacity="1.0" fill_rule="evenodd" stroke="none" />
                <path d=" M 406.322, 317.507 475.512, 284.508 440.984, 212.536 372.337, 246.666 406.322, 317.507  z" fill="rgb(71, 186, 255)" fill-opacity="1.0" fill_rule="evenodd" stroke="none" />
            </g>
            <g id="strokes" inkscape:groupmode="layer" inkscape:label="strokes">
                <path d=" M 406.322, 317.507 415.348, 313.202 424.374, 308.897 433.400, 304.592 442.426, 300.288 451.452, 295.983 460.478, 291.678 469.504, 287.373 475.512, 284.508 471.186, 275.491 466.861, 266.475 462.536, 257.459 458.210, 248.443 453.885, 239.427 449.560, 230.411 445.234, 221.395 440.984, 212.536 432.030, 216.988 423.076, 221.440 414.121, 225.892 405.167, 230.344 396.213, 234.796 387.258, 239.247 378.304, 243.699 372.337, 246.666 376.662, 255.682 380.987, 264.698 385.313, 273.715 389.638, 282.731 393.964, 291.747 398.289, 300.763 402.614, 309.779 406.322, 317.507 " fill="none" stroke="rgb(0, 0, 0)" stroke-linecap="butt" stroke-linejoin="round" stroke-opacity="1.0" stroke-width="3.0" />
                <path d=" M 554.848, 309.145 564.848, 309.145 574.848, 309.145 584.848, 309.145 594.848, 309.145 604.848, 309.145 614.848, 309.145 624.848, 309.145 634.848, 309.145 635.707, 309.145 635.707, 299.145 635.707, 289.145 635.707, 279.145 635.707, 269.145 635.707, 259.145 635.707, 249.145 635.707, 239.145 635.707, 229.145 635.707, 228.286 625.707, 228.286 615.707, 228.286 605.707, 228.286 595.707, 228.286 585.707, 228.286 575.707, 228.286 565.707, 228.286 555.707, 228.286 554.848, 228.286 549.496, 231.268 549.496, 241.268 549.496, 251.268 549.496, 261.268 549.496, 271.268 549.496, 281.268 549.496, 291.268 549.496, 301.268 549.496, 306.346 554.848, 309.145 " fill="none" stroke="rgb(0, 0, 0)" stroke-linecap="butt" stroke-linejoin="round" stroke-opacity="1.0" stroke-width="3.0" />
                <path d=" M 554.848, 228.286 554.848, 238.286 554.848, 248.286 554.848, 258.286 554.848, 268.286 554.848, 278.286 554.848, 288.286 554.848, 298.286 554.848, 308.286 554.848, 309.145 " fill="none" stroke="rgb(0, 0, 0)" stroke-linecap="butt" stroke-linejoin="round" stroke-opacity="1.0" stroke-width="3.0" />
            </g>
            <animate attributeName="display" begin="-0.292s" dur="0.417s" id="anim_RenderLayer_LineSet_000004" keyTimes="0.0;0.1;0.2;0.3;0.4;0.5;0.6;0.7;0.8;0.9;1" repeatCount="indefinite" values="none;none;none;none;none;none;none;none;none;inline;none" />
        </g>
        <g id="frame_0005" inkscape:groupmode="frame" inkscape:label="frame_0005">
            <g id="fills" inkscape:groupmode="layer" inkscape:label="fills">
                <path d=" M 608.601, 309.145 689.461, 309.145 689.460, 228.286 608.601, 228.286 599.406, 231.268 599.406, 306.346 608.601, 309.145  z" fill="rgb(204, 33, 27)" fill-opacity="1.0" fill_rule="evenodd" stroke="none" />
                <path d=" M 458.553, 317.507 528.577, 284.508 494.050, 212.536 424.568, 246.666 458.553, 317.507  z" fill="rgb(71, 186, 255)" fill-opacity="1.0" fill_rule="evenodd" stroke="none" />
            </g>
            <g id="strokes" inkscape:groupmode="layer" inkscape:label="strokes">
                <path d=" M 458.553, 317.507 467.599, 313.244 476.645, 308.981 485.691, 304.718 494.736, 300.455 503.782, 296.192 512.828, 291.929 521.874, 287.667 528.577, 284.508 524.252, 275.491 519.926, 266.475 515.601, 257.459 511.276, 248.443 506.950, 239.427 502.625, 230.411 498.299, 221.395 494.050, 212.536 485.074, 216.945 476.099, 221.354 467.123, 225.763 458.147, 230.172 449.172, 234.581 440.196, 238.990 431.221, 243.398 424.568, 246.666 428.894, 255.682 433.219, 264.698 437.544, 273.715 441.870, 282.731 446.195, 291.747 450.520, 300.763 454.846, 309.779 458.553, 317.507 " fill="none" stroke="rgb(0, 0, 0)" stroke-linecap="butt" stroke-linejoin="round" stroke-opacity="1.0" stroke-width="3.0" />
                <path d=" M 608.601, 309.145 618.601, 309.145 628.601, 309.145 638.601, 309.145 648.601, 309.145 658.601, 309.145 668.601, 309.145 678.601, 309.145 688.601, 309.145 689.461, 309.145 689.460, 299.145 689.460, 289.145 689.460, 279.145 689.460, 269.145 689.460, 259.145 689.460, 249.145 689.460, 239.145 689.460, 229.145 689.460, 228.286 679.460, 228.286 669.460, 228.286 659.460, 228.286 649.460, 228.286 639.460, 228.286 629.460, 228.286 619.460, 228.286 609.460, 228.286 608.601, 228.286 599.406, 231.268 599.406, 241.268 599.406, 251.268 599.406, 261.268 599.406, 271.268 599.406, 281.268 599.406, 291.268 599.406, 301.268 599.406, 306.346 608.601, 309.145 " fill="none" stroke="rgb(0, 0, 0)" stroke-linecap="butt" stroke-linejoin="round" stroke-opacity="1.0" stroke-width="3.0" />
                <path d=" M 608.601, 228.286 608.601, 238.286 608.601, 248.286 608.601, 258.286 608.601, 268.286 608.601, 278.286 608.601, 288.286 608.601, 298.286 608.601, 308.286 608.601, 309.145 " fill="none" stroke="rgb(0, 0, 0)" stroke-linecap="butt" stroke-linejoin="round" stroke-opacity="1.0" stroke-width="3.0" />
            </g>
            <animate attributeName="display" begin="-0.250s" dur="0.417s" id="anim_RenderLayer_LineSet_000005" keyTimes="0.0;0.1;0.2;0.3;0.4;0.5;0.6;0.7;0.8;0.9;1" repeatCount="indefinite" values="none;none;none;none;none;none;none;none;none;inline;none" />
        </g>
        <g id="frame_0006" inkscape:groupmode="frame" inkscape:label="frame_0006">
            <g id="fills" inkscape:groupmode="layer" inkscape:label="fills">
                <path d=" M 666.595, 309.145 747.454, 309.145 747.454, 228.286 666.595, 228.286 653.253, 231.268 653.253, 306.346 666.595, 309.145  z" fill="rgb(204, 33, 27)" fill-opacity="1.0" fill_rule="evenodd" stroke="none" />
                <path d=" M 514.905, 317.507 585.829, 284.508 551.302, 212.536 480.920, 246.666 514.905, 317.507  z" fill="rgb(71, 186, 255)" fill-opacity="1.0" fill_rule="evenodd" stroke="none" />
            </g>
            <g id="strokes" inkscape:groupmode="layer" inkscape:label="strokes">
                <path d=" M 514.905, 317.507 523.972, 313.288 533.039, 309.070 542.105, 304.851 551.172, 300.633 560.239, 296.414 569.305, 292.196 578.372, 287.977 585.829, 284.508 581.504, 275.491 577.178, 266.475 572.853, 257.459 568.528, 248.443 564.202, 239.427 559.877, 230.411 555.551, 221.395 551.302, 212.536 542.304, 216.899 533.306, 221.263 524.308, 225.626 515.310, 229.989 506.312, 234.353 497.315, 238.716 488.317, 243.079 480.920, 246.666 485.246, 255.682 489.571, 264.698 493.897, 273.715 498.222, 282.731 502.547, 291.747 506.873, 300.763 511.198, 309.779 514.905, 317.507 " fill="none" stroke="rgb(0, 0, 0)" stroke-linecap="butt" stroke-linejoin="round" stroke-opacity="1.0" stroke-width="3.0" />
                <path d=" M 666.595, 309.145 676.595, 309.145 686.595, 309.145 696.595, 309.145 706.595, 309.145 716.595, 309.145 726.595, 309.145 736.595, 309.145 746.595, 309.145 747.454, 309.145 747.454, 299.145 747.454, 289.145 747.454, 279.145 747.454, 269.145 747.454, 259.145 747.454, 249.145 747.454, 239.145 747.454, 229.145 747.454, 228.286 737.454, 228.286 727.454, 228.286 717.454, 228.286 707.454, 228.286 697.454, 228.286 687.454, 228.286 677.454, 228.286 667.454, 228.286 666.595, 228.286 656.836, 230.467 653.253, 231.268 653.253, 241.268 653.253, 251.268 653.253, 261.268 653.253, 271.268 653.253, 281.268 653.253, 291.268 653.253, 301.268 653.253, 306.346 663.040, 308.400 666.595, 309.145 " fill="none" stroke="rgb(0, 0, 0)" stroke-linecap="butt" stroke-linejoin="round" stroke-opacity="1.0" stroke-width="3.0" />
                <path d=" M 666.595, 228.286 666.595, 238.286 666.595, 248.286 666.595, 258.286 666.595, 268.286 666.595, 278.286 666.595, 288.286 666.595, 298.286 666.595, 308.286 666.595, 309.145 " fill="none" stroke="rgb(0, 0, 0)" stroke-linecap="butt" stroke-linejoin="round" stroke-opacity="1.0" stroke-width="3.0" />
            </g>
            <animate attributeName="display" begin="-0.208s" dur="0.417s" id="anim_RenderLayer_LineSet_000006" keyTimes="0.0;0.1;0.2;0.3;0.4;0.5;0.6;0.7;0.8;0.9;1" repeatCount="indefinite" values="none;none;none;none;none;none;none;none;none;inline;none" />
        </g>
        <g id="frame_0007" inkscape:groupmode="frame" inkscape:label="frame_0007">
            <g id="fills" inkscape:groupmode="layer" inkscape:label="fills">
                <path d=" M 720.348, 309.145 801.208, 309.145 801.207, 228.286 720.348, 228.286 703.162, 231.268 703.162, 306.346 720.348, 309.145  z" fill="rgb(204, 33, 27)" fill-opacity="1.0" fill_rule="evenodd" stroke="none" />
                <path d=" M 567.137, 317.507 638.895, 284.508 604.367, 212.536 533.152, 246.666 567.137, 317.507  z" fill="rgb(71, 186, 255)" fill-opacity="1.0" fill_rule="evenodd" stroke="none" />
            </g>
            <g id="strokes" inkscape:groupmode="layer" inkscape:label="strokes">
                <path d=" M 567.137, 317.507 576.222, 313.329 585.307, 309.151 594.393, 304.973 603.478, 300.794 612.564, 296.616 621.649, 292.438 630.734, 288.260 638.895, 284.508 634.569, 275.491 630.244, 266.475 625.918, 257.459 621.593, 248.443 617.268, 239.427 612.942, 230.411 608.617, 221.395 604.367, 212.536 595.349, 216.858 586.331, 221.180 577.313, 225.502 568.296, 229.823 559.278, 234.145 550.260, 238.467 541.242, 242.789 533.152, 246.666 537.477, 255.682 541.803, 264.698 546.128, 273.715 550.453, 282.731 554.779, 291.747 559.104, 300.763 563.430, 309.779 567.137, 317.507 " fill="none" stroke="rgb(0, 0, 0)" stroke-linecap="butt" stroke-linejoin="round" stroke-opacity="1.0" stroke-width="3.0" />
                <path d=" M 720.348, 309.145 730.348, 309.145 740.348, 309.145 750.348, 309.145 760.348, 309.145 770.348, 309.145 780.348, 309.145 790.348, 309.145 800.348, 309.145 801.208, 309.145 801.208, 299.145 801.208, 289.145 801.208, 279.145 801.208, 269.145 801.207, 259.145 801.207, 249.145 801.207, 239.145 801.207, 229.145 801.207, 228.286 791.207, 228.286 781.207, 228.286 771.207, 228.286 761.207, 228.286 751.207, 228.286 741.207, 228.286 731.207, 228.286 721.207, 228.286 720.348, 228.286 710.495, 229.996 703.162, 231.268 703.162, 241.268 703.162, 251.268 703.162, 261.268 703.162, 271.268 703.162, 281.268 703.162, 291.268 703.162, 301.268 703.162, 306.346 713.032, 307.954 720.348, 309.145 " fill="none" stroke="rgb(0, 0, 0)" stroke-linecap="butt" stroke-linejoin="round" stroke-opacity="1.0" stroke-width="3.0" />
                <path d=" M 720.348, 228.286 720.348, 238.286 720.348, 248.286 720.348, 258.286 720.348, 268.286 720.348, 278.286 720.348, 288.286 720.348, 298.286 720.348, 308.286 720.348, 309.145 " fill="none" stroke="rgb(0, 0, 0)" stroke-linecap="butt" stroke-linejoin="round" stroke-opacity="1.0" stroke-width="3.0" />
            </g>
            <animate attributeName="display" begin="-0.167s" dur="0.417s" id="anim_RenderLayer_LineSet_000007" keyTimes="0.0;0.1;0.2;0.3;0.4;0.5;0.6;0.7;0.8;0.9;1" repeatCount="indefinite" values="none;none;none;none;none;none;none;none;none;inline;none" />
        </g>
        <g id="frame_0008" inkscape:groupmode="frame" inkscape:label="frame_0008">
            <g id="fills" inkscape:groupmode="layer" inkscape:label="fills">
                <path d=" M 762.602, 309.145 843.462, 309.145 843.462, 228.286 762.602, 228.286 742.395, 231.268 742.395, 306.346 762.602, 309.145  z" fill="rgb(204, 33, 27)" fill-opacity="1.0" fill_rule="evenodd" stroke="none" />
                <path d=" M 608.195, 317.507 680.608, 284.508 646.081, 212.536 574.210, 246.666 608.195, 317.507  z" fill="rgb(71, 186, 255)" fill-opacity="1.0" fill_rule="evenodd" stroke="none" />
            </g>
            <g id="strokes" inkscape:groupmode="layer" inkscape:label="strokes">
                <path d=" M 608.195, 317.507 617.295, 313.360 626.394, 309.213 635.494, 305.066 644.594, 300.920 653.693, 296.773 662.793, 292.626 671.893, 288.479 680.608, 284.508 676.283, 275.491 671.958, 266.475 667.632, 257.459 663.307, 248.443 658.981, 239.427 654.656, 230.411 650.331, 221.395 646.081, 212.536 637.048, 216.826 628.014, 221.116 618.981, 225.405 609.948, 229.695 600.915, 233.985 591.882, 238.274 582.849, 242.564 574.210, 246.666 578.536, 255.682 582.861, 264.698 587.186, 273.715 591.512, 282.731 595.837, 291.747 600.162, 300.763 604.488, 309.779 608.195, 317.507 " fill="none" stroke="rgb(0, 0, 0)" stroke-linecap="butt" stroke-linejoin="round" stroke-opacity="1.0" stroke-width="3.0" />
                <path d=" M 762.602, 309.145 772.602, 309.145 782.602, 309.145 792.602, 309.145 802.602, 309.145 812.602, 309.145 822.602, 309.145 832.602, 309.145 842.602, 309.145 843.462, 309.145 843.462, 299.145 843.462, 289.145 843.462, 279.145 843.462, 269.145 843.462, 259.145 843.462, 249.145 843.462, 239.145 843.462, 229.145 843.462, 228.286 833.462, 228.286 823.462, 228.286 813.462, 228.286 803.462, 228.286 793.462, 228.286 783.462, 228.286 773.462, 228.286 763.462, 228.286 762.602, 228.286 752.709, 229.746 742.817, 231.206 742.395, 231.268 742.395, 241.268 742.395, 251.268 742.395, 261.268 742.395, 271.268 742.395, 281.268 742.395, 291.268 742.395, 301.268 742.395, 306.346 752.301, 307.719 762.206, 309.091 762.602, 309.145 " fill="none" stroke="rgb(0, 0, 0)" stroke-linecap="butt" stroke-linejoin="round" stroke-opacity="1.0" stroke-width="3.0" />
                <path d=" M 762.602, 228.286 762.602, 238.286 762.602, 248.286 762.602, 258.286 762.602, 268.286 762.602, 278.286 762.602, 288.286 762.602, 298.286 762.602, 308.286 762.602, 309.145 " fill="none" stroke="rgb(0, 0, 0)" stroke-linecap="butt" stroke-linejoin="round" stroke-opacity="1.0" stroke-width="3.0" />
            </g>
            <animate attributeName="display" begin="-0.125s" dur="0.417s" id="anim_RenderLayer_LineSet_000008" keyTimes="0.0;0.1;0.2;0.3;0.4;0.5;0.6;0.7;0.8;0.9;1" repeatCount="indefinite" values="none;none;none;none;none;none;none;none;none;inline;none" />
        </g>
        <g id="frame_0009" inkscape:groupmode="frame" inkscape:label="frame_0009">
            <g id="fills" inkscape:groupmode="layer" inkscape:label="fills">
                <path d=" M 788.918, 309.145 869.778, 309.145 869.778, 228.286 788.918, 228.286 766.830, 231.268 766.830, 306.346 788.918, 309.145  z" fill="rgb(204, 33, 27)" fill-opacity="1.0" fill_rule="evenodd" stroke="none" />
                <path d=" M 633.766, 317.507 706.587, 284.508 672.060, 212.536 599.781, 246.666 633.766, 317.507  z" fill="rgb(71, 186, 255)" fill-opacity="1.0" fill_rule="evenodd" stroke="none" />
            </g>
            <g id="strokes" inkscape:groupmode="layer" inkscape:label="strokes">
                <path d=" M 633.766, 317.507 642.874, 313.379 651.983, 309.252 661.091, 305.124 670.200, 300.997 679.308, 296.869 688.416, 292.742 697.525, 288.614 706.587, 284.508 702.262, 275.491 697.937, 266.475 693.611, 257.459 689.286, 248.443 684.960, 239.427 680.635, 230.411 676.310, 221.395 672.060, 212.536 663.017, 216.806 653.975, 221.076 644.932, 225.346 635.890, 229.616 626.847, 233.886 617.804, 238.155 608.762, 242.425 599.781, 246.666 604.106, 255.682 608.432, 264.698 612.757, 273.715 617.082, 282.731 621.408, 291.747 625.733, 300.763 630.059, 309.779 633.766, 317.507 " fill="none" stroke="rgb(0, 0, 0)" stroke-linecap="butt" stroke-linejoin="round" stroke-opacity="1.0" stroke-width="3.0" />
                <path d=" M 788.918, 309.145 798.918, 309.145 808.918, 309.145 818.918, 309.145 828.918, 309.145 838.918, 309.145 848.918, 309.145 858.918, 309.145 868.918, 309.145 869.778, 309.145 869.778, 299.145 869.778, 289.145 869.778, 279.145 869.778, 269.145 869.778, 259.145 869.778, 249.145 869.778, 239.145 869.778, 229.145 869.778, 228.286 859.778, 228.286 849.778, 228.286 839.778, 228.286 829.778, 228.286 819.778, 228.286 809.778, 228.286 799.778, 228.286 789.778, 228.286 788.918, 228.286 779.008, 229.624 769.098, 230.962 766.830, 231.268 766.830, 241.268 766.830, 251.268 766.830, 261.268 766.830, 271.268 766.830, 281.268 766.830, 291.268 766.830, 301.268 766.830, 306.346 776.750, 307.604 786.671, 308.861 788.918, 309.145 " fill="none" stroke="rgb(0, 0, 0)" stroke-linecap="butt" stroke-linejoin="round" stroke-opacity="1.0" stroke-width="3.0" />
                <path d=" M 788.918, 228.286 788.918, 238.286 788.918, 248.286 788.918, 258.286 788.918, 268.286 788.918, 278.286 788.918, 288.286 788.918, 298.286 788.918, 308.286 788.918, 309.145 " fill="none" stroke="rgb(0, 0, 0)" stroke-linecap="butt" stroke-linejoin="round" stroke-opacity="1.0" stroke-width="3.0" />
            </g>
            <animate attributeName="display" begin="-0.083s" dur="0.417s" id="anim_RenderLayer_LineSet_000009" keyTimes="0.0;0.1;0.2;0.3;0.4;0.5;0.6;0.7;0.8;0.9;1" repeatCount="indefinite" values="none;none;none;none;none;none;none;none;none;inline;none" />
        </g>
        <g id="frame_0010" inkscape:groupmode="frame" inkscape:label="frame_0010">
            <g id="fills" inkscape:groupmode="layer" inkscape:label="fills">
                <path d=" M 797.689, 309.145 878.549, 309.145 878.549, 228.286 797.689, 228.286 774.973, 231.268 774.973, 306.346 797.689, 309.145  z" fill="rgb(204, 33, 27)" fill-opacity="1.0" fill_rule="evenodd" stroke="none" />
                <path d=" M 642.288, 317.507 715.246, 284.508 680.719, 212.536 608.304, 246.666 642.288, 317.507  z" fill="rgb(71, 186, 255)" fill-opacity="1.0" fill_rule="evenodd" stroke="none" />
            </g>
            <g id="strokes" inkscape:groupmode="layer" inkscape:label="strokes">
                <path d=" M 642.288, 317.507 651.400, 313.386 660.511, 309.265 669.622, 305.143 678.734, 301.022 687.845, 296.901 696.956, 292.780 706.068, 288.659 715.246, 284.508 710.921, 275.491 706.595, 266.475 702.270, 257.459 697.945, 248.443 693.619, 239.427 689.294, 230.411 684.968, 221.395 680.719, 212.536 671.673, 216.799 662.627, 221.063 653.582, 225.326 644.536, 229.589 635.490, 233.853 626.445, 238.116 617.399, 242.379 608.304, 246.666 612.629, 255.682 616.954, 264.698 621.280, 273.715 625.605, 282.731 629.931, 291.747 634.256, 300.763 638.581, 309.779 642.288, 317.507 " fill="none" stroke="rgb(0, 0, 0)" stroke-linecap="butt" stroke-linejoin="round" stroke-opacity="1.0" stroke-width="3.0" />
                <path d=" M 797.689, 309.145 807.689, 309.145 817.689, 309.145 827.689, 309.145 837.689, 309.145 847.689, 309.145 857.689, 309.145 867.689, 309.145 877.689, 309.145 878.549, 309.145 878.549, 299.145 878.549, 289.145 878.549, 279.145 878.549, 269.145 878.549, 259.145 878.549, 249.145 878.549, 239.145 878.549, 229.145 878.549, 228.286 868.549, 228.286 858.549, 228.286 848.549, 228.286 838.549, 228.286 828.549, 228.286 818.549, 228.286 808.549, 228.286 798.549, 228.286 797.689, 228.286 787.774, 229.588 777.859, 230.890 774.973, 231.268 774.973, 241.268 774.973, 251.268 774.973, 261.268 774.973, 271.268 774.973, 281.268 774.973, 291.268 774.973, 301.268 774.973, 306.346 784.898, 307.569 794.823, 308.792 797.689, 309.145 " fill="none" stroke="rgb(0, 0, 0)" stroke-linecap="butt" stroke-linejoin="round" stroke-opacity="1.0" stroke-width="3.0" />
                <path d=" M 797.689, 228.286 797.689, 238.286 797.689, 248.286 797.689, 258.286 797.689, 268.286 797.689, 278.286 797.689, 288.286 797.689, 298.286 797.689, 308.286 797.689, 309.145 " fill="none" stroke="rgb(0, 0, 0)" stroke-linecap="butt" stroke-linejoin="round" stroke-opacity="1.0" stroke-width="3.0" />
            </g>
            <animate attributeName="display" begin="-0.042s" dur="0.417s" id="anim_RenderLayer_LineSet_000010" keyTimes="0.0;0.1;0.2;0.3;0.4;0.5;0.6;0.7;0.8;0.9;1" repeatCount="indefinite" values="none;none;none;none;none;none;none;none;none;inline;none" />
        </g>
    </g>
</svg>
