<?xml version='1.0' encoding='ascii'?>
<svg xmlns="http://www.w3.org/2000/svg" xmlns:inkscape="http://www.inkscape.org/namespaces/inkscape" height="540" version="1.1" width="960">
    <g id="RenderLayer_LineSet" inkscape:groupmode="lineset" inkscape:label="RenderLayer_LineSet">
        <g id="fills" inkscape:groupmode="layer" inkscape:label="fills" xmlns:inkscape="http://www.inkscape.org/namespaces/inkscape">
            <path d=" M 311.672, 302.980 433.965, 375.430 575.287, 306.682 450.282, 248.499 311.672, 302.980  z" fill="rgb(204, 204, 204)" fill-opacity="1.0" fill_rule="evenodd" stroke="none" />
        </g>
        <g id="strokes" inkscape:groupmode="layer" inkscape:label="strokes">
            <path d=" M 311.672, 302.980 320.275, 308.077 328.879, 313.174 337.482, 318.271 346.086, 323.368 354.689, 328.465 363.293, 333.562 371.896, 338.659 380.500, 343.755 389.103, 348.852 397.707, 353.949 406.310, 359.046 414.914, 364.143 423.518, 369.240 432.121, 374.337 433.965, 375.430 442.958, 371.055 451.950, 366.681 460.942, 362.306 469.935, 357.932 478.927, 353.557 487.920, 349.183 496.912, 344.808 505.905, 340.434 514.897, 336.059 523.889, 331.685 532.882, 327.310 541.874, 322.936 550.867, 318.561 559.859, 314.187 568.852, 309.812 575.287, 306.682 566.221, 302.462 557.155, 298.242 548.089, 294.022 539.023, 289.803 529.956, 285.583 520.890, 281.363 511.824, 277.144 502.758, 272.924 493.692, 268.704 484.626, 264.484 475.560, 260.265 466.494, 256.045 457.428, 251.825 450.282, 248.499 440.975, 252.157 431.668, 255.815 422.361, 259.473 413.054, 263.131 403.747, 266.789 394.440, 270.448 385.133, 274.106 375.826, 277.764 366.520, 281.422 357.213, 285.080 347.906, 288.738 338.599, 292.396 329.292, 296.054 319.985, 299.712 311.672, 302.980 " fill="none" stroke="rgb(0, 0, 0)" stroke-linecap="butt" stroke-linejoin="round" stroke-opacity="1.0" stroke-width="3.0" />
        </g>
    </g>
</svg>
