<?xml version='1.0' encoding='ascii'?>
<svg xmlns="http://www.w3.org/2000/svg" xmlns:inkscape="http://www.inkscape.org/namespaces/inkscape" height="540" version="1.1" width="960">
    <g id="RenderLayer_LineSet" inkscape:groupmode="lineset" inkscape:label="RenderLayer_LineSet">
        <g id="fills" inkscape:groupmode="layer" inkscape:label="fills" xmlns:inkscape="http://www.inkscape.org/namespaces/inkscape">
            <path d=" M 362.575, 308.421 365.143, 308.467 366.211, 310.274 368.043, 311.833 370.287, 315.799 376.432, 334.837 379.371, 338.298 378.538, 340.515 376.710, 346.338 381.182, 350.667 380.362, 356.701 380.821, 375.117 382.074, 382.961 386.483, 390.330 391.873, 396.451 399.730, 401.759 410.060, 406.504 414.284, 407.982 427.969, 410.087 436.790, 403.098 435.122, 384.980 431.744, 366.853 436.685, 352.879 445.204, 348.974 468.811, 337.315 485.524, 335.886 493.387, 330.667 501.747, 338.625 533.903, 337.979 567.441, 327.635 570.263, 309.629 565.419, 289.026 544.697, 286.219 526.082, 288.734 523.467, 289.914 523.065, 279.526 520.528, 262.116 515.711, 254.072 507.439, 244.116 500.380, 234.407 480.182, 213.837 440.538, 208.531 418.395, 211.032 407.646, 218.230 406.327, 216.724 398.721, 216.982 392.891, 228.811 393.639, 232.052 385.158, 237.833 377.116, 253.513 377.078, 253.475 366.831, 251.806 360.934, 258.903 356.344, 259.927 347.750, 259.858 347.537, 270.146 350.704, 271.473 356.259, 284.384 357.527, 288.385 357.030, 292.772 358.682, 301.291 362.575, 308.421  z M 360.022, 283.921 360.021, 283.918 360.373, 281.375  z  M 426.552, 315.917 428.831, 321.351  z  M 366.331, 282.568 368.436, 285.487 370.294, 287.895  z  M 401.124, 305.969 403.392, 304.398 408.114, 305.097  z" fill="rgb(204, 204, 204)" fill-opacity="1.0" fill_rule="evenodd" stroke="none" />
        </g>
        <g id="strokes" inkscape:groupmode="layer" inkscape:label="strokes">
            <path d=" M 413.744, 316.156 416.634, 324.628 414.208, 330.632 " fill="none" stroke="rgb(0, 0, 0)" stroke-linecap="butt" stroke-linejoin="round" stroke-opacity="1.0" stroke-width="3.0" />
            <path d=" M 367.950, 310.978 369.049, 312.364 369.501, 312.933 369.861, 312.996 " fill="none" stroke="rgb(0, 0, 0)" stroke-linecap="butt" stroke-linejoin="round" stroke-opacity="1.0" stroke-width="3.0" />
            <path d=" M 363.215, 287.054 366.818, 292.776 367.007, 293.480 369.055, 301.077 369.087, 301.195 367.578, 306.818 " fill="none" stroke="rgb(0, 0, 0)" stroke-linecap="butt" stroke-linejoin="round" stroke-opacity="1.0" stroke-width="3.0" />
            <path d=" M 406.840, 310.848 413.744, 316.156 413.017, 316.268 " fill="none" stroke="rgb(0, 0, 0)" stroke-linecap="butt" stroke-linejoin="round" stroke-opacity="1.0" stroke-width="3.0" />
            <path d=" M 363.215, 287.054 361.329, 286.424 360.329, 286.315 359.543, 286.229 357.794, 286.038 357.792, 286.038 357.728, 286.606 357.629, 287.481 357.621, 287.549 357.527, 288.385 357.030, 292.772 358.682, 301.291 362.575, 308.421 365.143, 308.467 365.970, 308.481 366.149, 308.485 366.281, 308.487 366.685, 307.968 367.084, 307.454 367.578, 306.818 " fill="none" stroke="rgb(0, 0, 0)" stroke-linecap="butt" stroke-linejoin="round" stroke-opacity="1.0" stroke-width="3.0" />
            <path d=" M 406.840, 310.848 404.960, 310.240 400.550, 310.874 398.992, 311.098 398.337, 311.193 397.346, 314.344 396.233, 317.888 396.191, 318.023 396.178, 318.063 398.959, 326.962 399.282, 327.245 399.342, 327.297 402.792, 330.319 403.536, 330.971 405.783, 332.938 406.321, 332.883 406.723, 332.841 407.291, 332.783 407.625, 332.748 411.155, 332.384 412.821, 332.213 413.531, 332.139 414.208, 330.632 " fill="none" stroke="rgb(0, 0, 0)" stroke-linecap="butt" stroke-linejoin="round" stroke-opacity="1.0" stroke-width="3.0" />
            <path d=" M 361.329, 286.424 361.561, 286.800 365.436, 293.087 368.217, 302.456 366.849, 306.717 366.786, 306.913 366.536, 307.692 366.281, 308.487 " fill="none" stroke="rgb(0, 0, 0)" stroke-linecap="butt" stroke-linejoin="round" stroke-opacity="1.0" stroke-width="3.0" />
            <path d=" M 413.531, 332.139 414.072, 330.635 415.935, 325.446 413.017, 316.268 405.884, 310.931 404.960, 310.240 " fill="none" stroke="rgb(0, 0, 0)" stroke-linecap="butt" stroke-linejoin="round" stroke-opacity="1.0" stroke-width="3.0" />
            <path d=" M 381.182, 350.667 380.362, 356.701 380.611, 366.698 380.821, 375.117 382.074, 382.961 386.483, 390.330 391.873, 396.451 399.730, 401.759 408.818, 405.933 410.060, 406.504 414.284, 407.982 424.168, 409.502 427.969, 410.087 435.807, 403.876 436.790, 403.098 435.873, 393.140 435.122, 384.980 433.290, 375.149 431.744, 366.853 435.078, 357.425 436.685, 352.879 445.204, 348.974 454.170, 344.546 463.136, 340.118 468.811, 337.315 " fill="none" stroke="rgb(0, 0, 0)" stroke-linecap="butt" stroke-linejoin="round" stroke-opacity="1.0" stroke-width="3.0" />
            <path d=" M 427.969, 410.087 429.713, 407.563 426.981, 397.943 425.509, 392.760 424.172, 382.849 422.836, 372.939 422.479, 370.292 420.516, 360.486 419.901, 357.417 " fill="none" stroke="rgb(0, 0, 0)" stroke-linecap="butt" stroke-linejoin="round" stroke-opacity="1.0" stroke-width="3.0" />
            <path d=" M 391.661, 343.761 391.845, 343.783 395.343, 344.212 395.661, 344.251 405.587, 345.469 406.919, 345.633 416.844, 346.851 425.252, 347.882 432.661, 348.792 442.611, 347.802 444.662, 347.598 453.165, 342.336 460.073, 338.062 464.470, 335.341 464.609, 335.255 466.088, 329.459 " fill="none" stroke="rgb(0, 0, 0)" stroke-linecap="butt" stroke-linejoin="round" stroke-opacity="1.0" stroke-width="3.0" />
            <path d=" M 464.609, 335.255 462.799, 331.603 458.358, 322.644 455.280, 316.435 " fill="none" stroke="rgb(0, 0, 0)" stroke-linecap="butt" stroke-linejoin="round" stroke-opacity="1.0" stroke-width="3.0" />
            <path d=" M 455.280, 316.435 445.513, 318.581 442.471, 319.249 " fill="none" stroke="rgb(0, 0, 0)" stroke-linecap="butt" stroke-linejoin="round" stroke-opacity="1.0" stroke-width="3.0" />
            <path d=" M 465.640, 305.108 461.099, 311.761 455.280, 316.435 447.198, 310.545 442.571, 307.172 434.834, 300.838 427.096, 294.503 422.712, 290.914 421.611, 289.592 415.210, 281.909 412.477, 278.629 412.408, 278.546 412.175, 278.267 407.887, 273.119 407.736, 272.938 407.222, 272.322 " fill="none" stroke="rgb(0, 0, 0)" stroke-linecap="butt" stroke-linejoin="round" stroke-opacity="1.0" stroke-width="3.0" />
            <path d=" M 390.617, 280.859 387.496, 271.358 384.376, 261.858 384.145, 261.155 383.949, 260.558 383.872, 260.479 382.661, 259.230 382.636, 259.205 382.635, 259.204 380.371, 256.870 380.068, 256.557 377.116, 253.513 377.078, 253.475 367.208, 251.868 366.831, 251.806 360.934, 258.903 356.344, 259.927 353.552, 260.549 347.750, 259.858 " fill="none" stroke="rgb(0, 0, 0)" stroke-linecap="butt" stroke-linejoin="round" stroke-opacity="1.0" stroke-width="3.0" />
            <path d=" M 356.344, 259.927 347.750, 259.858 347.543, 269.856 347.537, 270.146 350.704, 271.473 357.441, 274.295 " fill="none" stroke="rgb(0, 0, 0)" stroke-linecap="butt" stroke-linejoin="round" stroke-opacity="1.0" stroke-width="3.0" />
            <path d=" M 347.537, 270.146 355.979, 268.551 359.914, 265.426 365.051, 271.052 365.429, 271.466 365.974, 272.856 367.625, 277.069 368.235, 278.625 371.885, 287.935 373.126, 291.103 378.303, 298.747 " fill="none" stroke="rgb(0, 0, 0)" stroke-linecap="butt" stroke-linejoin="round" stroke-opacity="1.0" stroke-width="3.0" />
            <path d=" M 432.571, 290.582 426.603, 283.430 426.244, 283.000 423.076, 279.204 419.434, 274.839 418.768, 274.702 417.461, 274.432 413.717, 273.660 413.424, 273.600 413.074, 273.528 412.971, 273.507 412.006, 273.308 407.222, 272.322 404.891, 272.107 403.613, 271.989 394.864, 271.181 392.049, 280.776 391.689, 282.005 390.841, 284.896 389.049, 289.490 388.439, 291.053 387.548, 293.338 385.742, 297.967 " fill="none" stroke="rgb(0, 0, 0)" stroke-linecap="butt" stroke-linejoin="round" stroke-opacity="1.0" stroke-width="3.0" />
            <path d=" M 375.205, 261.096 374.032, 259.795 373.629, 259.348 372.374, 257.955 366.831, 251.806 " fill="none" stroke="rgb(0, 0, 0)" stroke-linecap="butt" stroke-linejoin="round" stroke-opacity="1.0" stroke-width="3.0" />
            <path d=" M 387.305, 291.298 387.114, 291.608 381.865, 300.120 381.553, 300.626 " fill="none" stroke="rgb(0, 0, 0)" stroke-linecap="butt" stroke-linejoin="round" stroke-opacity="1.0" stroke-width="3.0" />
            <path d=" M 373.126, 291.103 377.370, 295.898 381.553, 300.626 385.742, 297.967 " fill="none" stroke="rgb(0, 0, 0)" stroke-linecap="butt" stroke-linejoin="round" stroke-opacity="1.0" stroke-width="3.0" />
            <path d=" M 401.759, 296.808 402.420, 296.966 402.932, 297.088 407.999, 298.296 416.073, 304.196 416.570, 304.560 425.051, 309.859 427.279, 311.251 " fill="none" stroke="rgb(0, 0, 0)" stroke-linecap="butt" stroke-linejoin="round" stroke-opacity="1.0" stroke-width="3.0" />
            <path d=" M 436.335, 322.276 433.225, 316.147 427.279, 311.251 419.560, 304.895 411.840, 298.538 410.656, 297.563 405.836, 292.752 401.521, 288.444 399.065, 285.993 390.841, 284.896 " fill="none" stroke="rgb(0, 0, 0)" stroke-linecap="butt" stroke-linejoin="round" stroke-opacity="1.0" stroke-width="3.0" />
            <path d=" M 357.441, 274.295 362.186, 275.700 363.017, 275.947 365.355, 276.263 367.072, 276.496 367.625, 277.069 " fill="none" stroke="rgb(0, 0, 0)" stroke-linecap="butt" stroke-linejoin="round" stroke-opacity="1.0" stroke-width="3.0" />
            <path d=" M 436.335, 322.276 440.727, 320.109 442.471, 319.249 440.164, 318.475 433.232, 316.149 433.225, 316.147 " fill="none" stroke="rgb(0, 0, 0)" stroke-linecap="butt" stroke-linejoin="round" stroke-opacity="1.0" stroke-width="3.0" />
            <path d=" M 366.211, 310.274 368.043, 311.833 369.372, 312.964 370.287, 315.799 373.359, 325.316 376.432, 334.837 379.371, 338.298 " fill="none" stroke="rgb(0, 0, 0)" stroke-linecap="butt" stroke-linejoin="round" stroke-opacity="1.0" stroke-width="3.0" />
            <path d=" M 393.780, 307.242 395.245, 299.221 " fill="none" stroke="rgb(0, 0, 0)" stroke-linecap="butt" stroke-linejoin="round" stroke-opacity="1.0" stroke-width="3.0" />
            <path d=" M 399.286, 401.178 396.160, 399.142 391.873, 396.451 387.356, 391.273 " fill="none" stroke="rgb(0, 0, 0)" stroke-linecap="butt" stroke-linejoin="round" stroke-opacity="1.0" stroke-width="3.0" />
            <path d=" M 395.253, 355.651 396.848, 352.137 393.295, 346.398 392.575, 345.237 391.661, 343.761 391.651, 343.641 391.473, 341.557 390.621, 331.593 390.583, 331.147 390.555, 330.811 389.960, 323.853 " fill="none" stroke="rgb(0, 0, 0)" stroke-linecap="butt" stroke-linejoin="round" stroke-opacity="1.0" stroke-width="3.0" />
            <path d=" M 383.356, 337.247 379.873, 336.964 379.371, 338.298 378.538, 340.515 376.710, 346.338 381.182, 350.667 384.317, 353.701 385.316, 354.668 387.203, 356.452 392.735, 355.982 395.253, 355.651 " fill="none" stroke="rgb(0, 0, 0)" stroke-linecap="butt" stroke-linejoin="round" stroke-opacity="1.0" stroke-width="3.0" />
            <path d=" M 389.473, 340.185 388.842, 341.581 389.333, 341.941 391.651, 343.641 " fill="none" stroke="rgb(0, 0, 0)" stroke-linecap="butt" stroke-linejoin="round" stroke-opacity="1.0" stroke-width="3.0" />
            <path d=" M 379.873, 336.964 383.102, 338.369 384.084, 338.796 " fill="none" stroke="rgb(0, 0, 0)" stroke-linecap="butt" stroke-linejoin="round" stroke-opacity="1.0" stroke-width="3.0" />
            <path d=" M 389.473, 340.185 387.505, 343.049 385.514, 345.948 " fill="none" stroke="rgb(0, 0, 0)" stroke-linecap="butt" stroke-linejoin="round" stroke-opacity="1.0" stroke-width="3.0" />
            <path d=" M 385.514, 345.948 384.152, 347.343 383.203, 348.315 " fill="none" stroke="rgb(0, 0, 0)" stroke-linecap="butt" stroke-linejoin="round" stroke-opacity="1.0" stroke-width="3.0" />
            <path d=" M 383.203, 348.315 384.183, 347.439 385.990, 345.824 387.033, 344.891 " fill="none" stroke="rgb(0, 0, 0)" stroke-linecap="butt" stroke-linejoin="round" stroke-opacity="1.0" stroke-width="3.0" />
            <path d=" M 381.332, 341.529 382.041, 344.102 383.203, 348.315 385.828, 350.620 389.970, 354.257 " fill="none" stroke="rgb(0, 0, 0)" stroke-linecap="butt" stroke-linejoin="round" stroke-opacity="1.0" stroke-width="3.0" />
            <path d=" M 392.575, 345.237 389.937, 347.244 389.970, 354.257 393.785, 354.037 393.295, 346.398 " fill="none" stroke="rgb(0, 0, 0)" stroke-linecap="butt" stroke-linejoin="round" stroke-opacity="1.0" stroke-width="3.0" />
            <path d=" M 389.473, 340.185 383.356, 337.247 387.778, 328.278 389.960, 323.853 382.197, 330.157 376.432, 334.837 " fill="none" stroke="rgb(0, 0, 0)" stroke-linecap="butt" stroke-linejoin="round" stroke-opacity="1.0" stroke-width="3.0" />
            <path d=" M 387.246, 385.282 391.026, 389.492 392.309, 390.921 396.908, 391.970 398.417, 392.314 398.753, 393.672 399.817, 397.981 398.871, 399.071 " fill="none" stroke="rgb(0, 0, 0)" stroke-linecap="butt" stroke-linejoin="round" stroke-opacity="1.0" stroke-width="3.0" />
            <path d=" M 388.674, 390.915 387.246, 385.282 " fill="none" stroke="rgb(0, 0, 0)" stroke-linecap="butt" stroke-linejoin="round" stroke-opacity="1.0" stroke-width="3.0" />
            <path d=" M 398.871, 399.071 396.108, 397.913 393.307, 395.533 388.674, 390.915 391.026, 389.492 " fill="none" stroke="rgb(0, 0, 0)" stroke-linecap="butt" stroke-linejoin="round" stroke-opacity="1.0" stroke-width="3.0" />
            <path d=" M 398.753, 393.672 397.219, 392.378 396.908, 391.970 " fill="none" stroke="rgb(0, 0, 0)" stroke-linecap="butt" stroke-linejoin="round" stroke-opacity="1.0" stroke-width="3.0" />
            <path d=" M 368.193, 283.949 370.294, 287.895 371.572, 290.297 373.810, 298.087 374.624, 305.066 374.581, 307.837 374.553, 309.632 " fill="none" stroke="rgb(0, 0, 0)" stroke-linecap="butt" stroke-linejoin="round" stroke-opacity="1.0" stroke-width="3.0" />
            <path d=" M 365.143, 308.467 366.211, 310.274 367.443, 310.773 367.950, 310.978 368.402, 311.161 371.818, 312.543 374.634, 313.093 376.266, 313.413 " fill="none" stroke="rgb(0, 0, 0)" stroke-linecap="butt" stroke-linejoin="round" stroke-opacity="1.0" stroke-width="3.0" />
            <path d=" M 374.553, 309.632 374.474, 309.715 372.195, 312.142 371.818, 312.543 " fill="none" stroke="rgb(0, 0, 0)" stroke-linecap="butt" stroke-linejoin="round" stroke-opacity="1.0" stroke-width="3.0" />
            <path d=" M 399.282, 327.245 399.317, 327.343 399.660, 328.309 403.536, 330.971 " fill="none" stroke="rgb(0, 0, 0)" stroke-linecap="butt" stroke-linejoin="round" stroke-opacity="1.0" stroke-width="3.0" />
            <path d=" M 369.372, 312.964 369.861, 312.996 " fill="none" stroke="rgb(0, 0, 0)" stroke-linecap="butt" stroke-linejoin="round" stroke-opacity="1.0" stroke-width="3.0" />
            <path d=" M 356.755, 279.219 356.992, 282.738 357.728, 286.606 " fill="none" stroke="rgb(0, 0, 0)" stroke-linecap="butt" stroke-linejoin="round" stroke-opacity="1.0" stroke-width="3.0" />
            <path d=" M 357.447, 278.418 359.463, 281.193 360.373, 281.375 360.543, 281.409 362.273, 281.756 364.452, 282.192 366.331, 282.568 " fill="none" stroke="rgb(0, 0, 0)" stroke-linecap="butt" stroke-linejoin="round" stroke-opacity="1.0" stroke-width="3.0" />
            <path d=" M 407.433, 303.266 409.541, 306.247 411.909, 309.596 421.090, 313.560 426.552, 315.917 " fill="none" stroke="rgb(0, 0, 0)" stroke-linecap="butt" stroke-linejoin="round" stroke-opacity="1.0" stroke-width="3.0" />
            <path d=" M 365.619, 280.779 364.523, 280.853 361.393, 281.063 360.604, 281.117 360.407, 281.130 359.463, 281.193 " fill="none" stroke="rgb(0, 0, 0)" stroke-linecap="butt" stroke-linejoin="round" stroke-opacity="1.0" stroke-width="3.0" />
            <path d=" M 406.723, 332.841 409.141, 334.392 411.399, 335.841 412.260, 336.393 417.423, 336.089 420.522, 335.906 429.028, 330.648 429.973, 330.063 429.689, 322.322 427.386, 316.174 425.288, 315.282 416.085, 311.371 411.909, 309.596 " fill="none" stroke="rgb(0, 0, 0)" stroke-linecap="butt" stroke-linejoin="round" stroke-opacity="1.0" stroke-width="3.0" />
            <path d=" M 357.447, 278.418 357.114, 281.576 356.992, 282.738 " fill="none" stroke="rgb(0, 0, 0)" stroke-linecap="butt" stroke-linejoin="round" stroke-opacity="1.0" stroke-width="3.0" />
            <path d=" M 399.660, 328.309 402.792, 330.319 " fill="none" stroke="rgb(0, 0, 0)" stroke-linecap="butt" stroke-linejoin="round" stroke-opacity="1.0" stroke-width="3.0" />
            <path d=" M 397.755, 304.543 396.047, 310.332 395.831, 316.883 396.191, 318.023 " fill="none" stroke="rgb(0, 0, 0)" stroke-linecap="butt" stroke-linejoin="round" stroke-opacity="1.0" stroke-width="3.0" />
            <path d=" M 383.949, 260.558 375.205, 261.096 376.334, 264.601 379.398, 274.120 379.806, 275.387 382.571, 283.977 " fill="none" stroke="rgb(0, 0, 0)" stroke-linecap="butt" stroke-linejoin="round" stroke-opacity="1.0" stroke-width="3.0" />
            <path d=" M 436.685, 352.879 427.292, 349.448 426.527, 349.169 425.252, 347.882 " fill="none" stroke="rgb(0, 0, 0)" stroke-linecap="butt" stroke-linejoin="round" stroke-opacity="1.0" stroke-width="3.0" />
            <path d=" M 507.439, 244.116 501.558, 236.028 500.380, 234.407 493.374, 227.272 486.368, 220.136 480.182, 213.837 470.271, 212.510 460.359, 211.184 450.447, 209.857 440.538, 208.531 430.601, 209.653 420.664, 210.775 418.395, 211.032 410.086, 216.596 407.646, 218.230 402.480, 221.689 401.085, 222.623 396.424, 225.745 395.235, 228.574 393.827, 231.923 393.686, 232.258 393.597, 232.471 393.567, 232.542 389.692, 241.761 385.817, 250.980 383.754, 255.887 380.068, 256.557 " fill="none" stroke="rgb(0, 0, 0)" stroke-linecap="butt" stroke-linejoin="round" stroke-opacity="1.0" stroke-width="3.0" />
            <path d=" M 426.603, 283.430 435.984, 286.893 440.573, 288.587 450.089, 291.662 459.604, 294.736 463.282, 295.925 465.640, 305.108 " fill="none" stroke="rgb(0, 0, 0)" stroke-linecap="butt" stroke-linejoin="round" stroke-opacity="1.0" stroke-width="3.0" />
            <path d=" M 466.088, 329.459 465.904, 319.460 465.720, 309.462 465.640, 305.108 473.067, 298.412 480.495, 291.717 486.018, 286.738 " fill="none" stroke="rgb(0, 0, 0)" stroke-linecap="butt" stroke-linejoin="round" stroke-opacity="1.0" stroke-width="3.0" />
            <path d=" M 393.827, 231.923 393.639, 232.052 385.376, 237.684 385.158, 237.833 380.594, 246.731 377.116, 253.513 " fill="none" stroke="rgb(0, 0, 0)" stroke-linecap="butt" stroke-linejoin="round" stroke-opacity="1.0" stroke-width="3.0" />
            <path d=" M 523.467, 289.914 523.080, 279.922 523.065, 279.526 521.623, 269.630 520.528, 262.116 515.711, 254.072 509.321, 246.381 507.439, 244.116 501.048, 236.424 499.405, 234.446 498.792, 233.708 " fill="none" stroke="rgb(0, 0, 0)" stroke-linecap="butt" stroke-linejoin="round" stroke-opacity="1.0" stroke-width="3.0" />
            <path d=" M 383.754, 255.887 382.651, 259.204 382.661, 259.230 " fill="none" stroke="rgb(0, 0, 0)" stroke-linecap="butt" stroke-linejoin="round" stroke-opacity="1.0" stroke-width="3.0" />
            <path d=" M 382.651, 259.204 382.635, 259.204 " fill="none" stroke="rgb(0, 0, 0)" stroke-linecap="butt" stroke-linejoin="round" stroke-opacity="1.0" stroke-width="3.0" />
            <path d=" M 494.749, 315.340 500.715, 307.315 502.591, 304.792 510.618, 302.419 510.640, 302.413 512.990, 301.718 510.875, 297.794 518.061, 292.354 523.467, 289.914 526.082, 288.734 535.992, 287.395 544.697, 286.219 554.607, 287.562 564.516, 288.904 565.419, 289.026 567.708, 298.761 569.997, 308.496 570.263, 309.629 568.715, 319.508 567.441, 327.635 557.885, 330.583 548.329, 333.530 538.773, 336.477 533.903, 337.979 523.905, 338.180 513.907, 338.381 503.909, 338.582 501.747, 338.625 494.504, 331.730 493.387, 330.667 " fill="none" stroke="rgb(0, 0, 0)" stroke-linecap="butt" stroke-linejoin="round" stroke-opacity="1.0" stroke-width="3.0" />
            <path d=" M 555.916, 288.992 545.923, 288.624 535.930, 288.256 533.018, 288.149 523.502, 290.824 518.061, 292.354 " fill="none" stroke="rgb(0, 0, 0)" stroke-linecap="butt" stroke-linejoin="round" stroke-opacity="1.0" stroke-width="3.0" />
            <path d=" M 563.913, 309.592 560.294, 300.270 556.675, 290.947 555.916, 288.992 565.419, 289.026 " fill="none" stroke="rgb(0, 0, 0)" stroke-linecap="butt" stroke-linejoin="round" stroke-opacity="1.0" stroke-width="3.0" />
            <path d=" M 533.903, 337.979 543.402, 334.854 552.901, 331.728 558.391, 329.921 561.012, 320.271 563.634, 310.621 563.913, 309.592 570.263, 309.629 " fill="none" stroke="rgb(0, 0, 0)" stroke-linecap="butt" stroke-linejoin="round" stroke-opacity="1.0" stroke-width="3.0" />
            <path d=" M 531.906, 333.215 541.339, 329.893 550.771, 326.571 551.816, 326.203 552.439, 323.998 552.790, 322.754 555.508, 313.130 556.357, 310.121 556.433, 309.854 " fill="none" stroke="rgb(0, 0, 0)" stroke-linecap="butt" stroke-linejoin="round" stroke-opacity="1.0" stroke-width="3.0" />
            <path d=" M 556.433, 309.854 552.607, 300.615 552.170, 299.561 552.146, 299.501 552.142, 299.492 550.131, 294.635 551.961, 299.475 551.964, 299.484 551.990, 299.547 555.808, 308.789 556.357, 310.121 " fill="none" stroke="rgb(0, 0, 0)" stroke-linecap="butt" stroke-linejoin="round" stroke-opacity="1.0" stroke-width="3.0" />
            <path d=" M 460.073, 338.062 468.811, 337.315 478.775, 336.463 485.524, 335.886 493.387, 330.667 501.395, 325.352 " fill="none" stroke="rgb(0, 0, 0)" stroke-linecap="butt" stroke-linejoin="round" stroke-opacity="1.0" stroke-width="3.0" />
            <path d=" M 511.141, 313.534 502.958, 319.282 502.528, 319.583 501.395, 325.352 " fill="none" stroke="rgb(0, 0, 0)" stroke-linecap="butt" stroke-linejoin="round" stroke-opacity="1.0" stroke-width="3.0" />
            <path d=" M 520.627, 321.821 517.905, 323.107 514.718, 324.627 504.733, 325.170 501.395, 325.352 511.289, 323.898 516.900, 323.073 " fill="none" stroke="rgb(0, 0, 0)" stroke-linecap="butt" stroke-linejoin="round" stroke-opacity="1.0" stroke-width="3.0" />
            <path d=" M 516.900, 323.073 511.731, 314.513 511.141, 313.534 " fill="none" stroke="rgb(0, 0, 0)" stroke-linecap="butt" stroke-linejoin="round" stroke-opacity="1.0" stroke-width="3.0" />
            <path d=" M 519.960, 305.608 516.599, 309.539 " fill="none" stroke="rgb(0, 0, 0)" stroke-linecap="butt" stroke-linejoin="round" stroke-opacity="1.0" stroke-width="3.0" />
            <path d=" M 515.398, 316.322 511.141, 313.534 514.873, 312.305 " fill="none" stroke="rgb(0, 0, 0)" stroke-linecap="butt" stroke-linejoin="round" stroke-opacity="1.0" stroke-width="3.0" />
            <path d=" M 519.121, 315.743 514.873, 312.305 520.349, 308.309 523.704, 304.538 529.785, 301.185 " fill="none" stroke="rgb(0, 0, 0)" stroke-linecap="butt" stroke-linejoin="round" stroke-opacity="1.0" stroke-width="3.0" />
            <path d=" M 541.002, 326.584 531.008, 326.918 521.013, 327.251 518.999, 327.319 526.788, 321.047 527.704, 320.309 520.627, 321.821 519.121, 315.743 515.398, 316.322 516.900, 323.073 520.627, 321.821 " fill="none" stroke="rgb(0, 0, 0)" stroke-linecap="butt" stroke-linejoin="round" stroke-opacity="1.0" stroke-width="3.0" />
            <path d=" M 535.943, 298.311 540.075, 298.629 550.045, 299.397 551.990, 299.547 " fill="none" stroke="rgb(0, 0, 0)" stroke-linecap="butt" stroke-linejoin="round" stroke-opacity="1.0" stroke-width="3.0" />
            <path d=" M 540.075, 298.629 530.370, 301.040 529.785, 301.185 539.234, 304.459 542.354, 305.540 " fill="none" stroke="rgb(0, 0, 0)" stroke-linecap="butt" stroke-linejoin="round" stroke-opacity="1.0" stroke-width="3.0" />
            <path d=" M 407.646, 218.230 406.327, 216.724 398.721, 216.982 394.300, 225.951 392.891, 228.811 393.639, 232.052 " fill="none" stroke="rgb(0, 0, 0)" stroke-linecap="butt" stroke-linejoin="round" stroke-opacity="1.0" stroke-width="3.0" />
            <path d=" M 398.721, 216.982 401.085, 222.623 " fill="none" stroke="rgb(0, 0, 0)" stroke-linecap="butt" stroke-linejoin="round" stroke-opacity="1.0" stroke-width="3.0" />
            <path d=" M 501.747, 338.625 506.063, 334.399 " fill="none" stroke="rgb(0, 0, 0)" stroke-linecap="butt" stroke-linejoin="round" stroke-opacity="1.0" stroke-width="3.0" />
            <path d=" M 360.022, 283.921 360.021, 283.918 360.373, 281.375 " fill="none" stroke="rgb(0, 0, 0)" stroke-linecap="butt" stroke-linejoin="round" stroke-opacity="1.0" stroke-width="3.0" />
            <path d=" M 426.552, 315.917 428.831, 321.351 " fill="none" stroke="rgb(0, 0, 0)" stroke-linecap="butt" stroke-linejoin="round" stroke-opacity="1.0" stroke-width="3.0" />
            <path d=" M 366.331, 282.568 368.436, 285.487 370.294, 287.895 " fill="none" stroke="rgb(0, 0, 0)" stroke-linecap="butt" stroke-linejoin="round" stroke-opacity="1.0" stroke-width="3.0" />
            <path d=" M 401.124, 305.969 403.392, 304.398 408.114, 305.097 " fill="none" stroke="rgb(0, 0, 0)" stroke-linecap="butt" stroke-linejoin="round" stroke-opacity="1.0" stroke-width="3.0" />
            <path d=" M 403.441, 359.952 405.336, 369.771 405.784, 372.091 " fill="none" stroke="rgb(0, 0, 0)" stroke-linecap="butt" stroke-linejoin="round" stroke-opacity="1.0" stroke-width="3.0" />
            <path d=" M 391.473, 341.557 389.473, 340.185 384.084, 338.796 387.505, 343.049 " fill="none" stroke="rgb(0, 0, 0)" stroke-linecap="butt" stroke-linejoin="round" stroke-opacity="1.0" stroke-width="3.0" />
            <path d=" M 411.462, 336.412 412.636, 337.434 413.043, 337.497 " fill="none" stroke="rgb(0, 0, 0)" stroke-linecap="butt" stroke-linejoin="round" stroke-opacity="1.0" stroke-width="3.0" />
            <path d=" M 350.704, 271.473 354.657, 280.659 356.259, 284.384 357.621, 287.549 " fill="none" stroke="rgb(0, 0, 0)" stroke-linecap="butt" stroke-linejoin="round" stroke-opacity="1.0" stroke-width="3.0" />
            <path d=" M 356.259, 284.384 357.527, 288.385 " fill="none" stroke="rgb(0, 0, 0)" stroke-linecap="butt" stroke-linejoin="round" stroke-opacity="1.0" stroke-width="3.0" />
            <path d=" M 360.543, 281.409 360.022, 283.921 359.543, 286.229 " fill="none" stroke="rgb(0, 0, 0)" stroke-linecap="butt" stroke-linejoin="round" stroke-opacity="1.0" stroke-width="3.0" />
            <path d=" M 365.970, 308.481 366.588, 309.260 367.780, 310.764 " fill="none" stroke="rgb(0, 0, 0)" stroke-linecap="butt" stroke-linejoin="round" stroke-opacity="1.0" stroke-width="3.0" />
            <path d=" M 368.043, 311.833 370.287, 315.799 " fill="none" stroke="rgb(0, 0, 0)" stroke-linecap="butt" stroke-linejoin="round" stroke-opacity="1.0" stroke-width="3.0" />
            <path d=" M 389.049, 289.490 387.305, 291.298 " fill="none" stroke="rgb(0, 0, 0)" stroke-linecap="butt" stroke-linejoin="round" stroke-opacity="1.0" stroke-width="3.0" />
            <path d=" M 391.689, 282.005 390.617, 280.859 " fill="none" stroke="rgb(0, 0, 0)" stroke-linecap="butt" stroke-linejoin="round" stroke-opacity="1.0" stroke-width="3.0" />
            <path d=" M 413.043, 337.497 415.372, 339.096 " fill="none" stroke="rgb(0, 0, 0)" stroke-linecap="butt" stroke-linejoin="round" stroke-opacity="1.0" stroke-width="3.0" />
            <path d=" M 406.321, 332.883 408.242, 334.202 411.211, 336.240 411.462, 336.412 " fill="none" stroke="rgb(0, 0, 0)" stroke-linecap="butt" stroke-linejoin="round" stroke-opacity="1.0" stroke-width="3.0" />
            <path d=" M 552.790, 322.754 543.279, 325.844 541.002, 326.584 " fill="none" stroke="rgb(0, 0, 0)" stroke-linecap="butt" stroke-linejoin="round" stroke-opacity="1.0" stroke-width="3.0" />
        </g>
    </g>
</svg>
