<?xml version='1.0' encoding='ascii'?>
<svg xmlns="http://www.w3.org/2000/svg" height="540" version="1.1" width="960">
    <g id="RenderLayer_LineSet" inkscape:groupmode="lineset" inkscape:label="RenderLayer_LineSet" xmlns:inkscape="http://www.inkscape.org/namespaces/inkscape">
        <g id="strokes" inkscape:groupmode="layer" inkscape:label="strokes" xmlns:inkscape="http://www.inkscape.org/namespaces/inkscape">
            <path d=" M 875.812, 489.792 872.584, 488.054 868.996, 486.440 865.395, 485.126 861.808, 484.112 858.260, 483.394 854.774, 482.971 851.376, 482.843 848.092, 483.011 844.946, 483.474 841.965, 484.236 839.175, 485.297 836.602, 486.662 834.274, 488.334 832.466, 490.083 831.057, 491.984 830.068, 494.015 829.520, 496.156 829.434, 498.385 829.831, 500.679 830.736, 503.016 832.170, 505.372 834.157, 507.723 836.719, 510.045 839.880, 512.313 843.661, 514.501 845.849, 515.610 847.971, 516.618 850.039, 517.532 852.067, 518.356 854.067, 519.098 856.052, 519.762 858.035, 520.354 860.029, 520.882 862.047, 521.351 864.104, 521.768 866.211, 522.138 868.383, 522.469 873.933, 517.444 871.851, 517.121 869.812, 516.765 867.817, 516.374 865.866, 515.946 863.958, 515.479 862.095, 514.971 860.274, 514.421 858.497, 513.826 856.763, 513.185 855.073, 512.495 853.426, 511.756 851.822, 510.965 849.454, 509.655 847.390, 508.330 845.627, 506.990 844.165, 505.637 843.002, 504.272 842.138, 502.897 841.570, 501.512 841.296, 500.118 841.316, 498.717 841.628, 497.310 842.231, 495.897 843.122, 494.480 852.036, 499.012 860.950, 503.545 869.864, 508.077 878.778, 512.609 880.054, 513.257 882.375, 510.888 884.096, 508.550 885.238, 506.248 885.820, 503.989 885.862, 501.777 885.383, 499.618 884.402, 497.517 882.936, 495.479 881.004, 493.509 878.624, 491.611 875.812, 489.792 " fill="none" stroke="rgb(0, 0, 0)" stroke-linecap="butt" stroke-linejoin="round" stroke-opacity="1.0" stroke-width="3.0" />
            <path d=" M 866.083, 491.427 868.032, 492.328 869.741, 493.255 871.225, 494.219 872.484, 495.214 873.514, 496.234 874.314, 497.274 874.883, 498.327 875.219, 499.389 875.318, 500.452 875.181, 501.512 874.803, 502.562 874.185, 503.596 873.323, 504.608 864.396, 500.100 855.470, 495.593 847.137, 491.385 848.639, 490.667 850.190, 490.090 851.789, 489.655 853.434, 489.363 855.123, 489.215 856.854, 489.212 858.625, 489.356 860.435, 489.648 862.283, 490.089 864.166, 490.681 866.083, 491.427 " fill="none" stroke="rgb(0, 0, 0)" stroke-linecap="butt" stroke-linejoin="round" stroke-opacity="1.0" stroke-width="3.0" />
            <path d=" M 833.483, 468.762 832.526, 468.260 831.334, 467.728 830.049, 467.266 828.669, 466.877 827.189, 466.561 825.605, 466.322 823.915, 466.160 822.115, 466.079 820.200, 466.079 818.167, 466.164 816.011, 466.335 813.730, 466.594 811.318, 466.944 811.103, 466.836 817.681, 461.655 808.718, 457.222 808.212, 456.971 800.305, 463.093 792.398, 469.216 784.491, 475.338 778.711, 479.813 787.578, 484.436 788.287, 484.805 796.143, 478.618 803.905, 472.505 805.244, 471.587 806.727, 470.816 808.334, 470.192 810.040, 469.716 811.824, 469.388 813.663, 469.209 815.536, 469.181 817.420, 469.305 819.293, 469.583 821.134, 470.016 822.920, 470.606 824.630, 471.355 825.210, 471.675 825.800, 472.060 826.394, 472.504 826.987, 473.001 827.572, 473.545 828.143, 474.131 828.695, 474.753 829.220, 475.405 829.713, 476.081 830.168, 476.775 830.578, 477.482 830.936, 478.195 840.839, 476.806 841.037, 476.778 840.545, 475.836 840.019, 474.940 839.457, 474.090 838.858, 473.284 838.220, 472.521 837.542, 471.799 836.821, 471.117 836.057, 470.473 835.247, 469.867 834.389, 469.297 833.483, 468.762 " fill="none" stroke="rgb(0, 0, 0)" stroke-linecap="butt" stroke-linejoin="round" stroke-opacity="1.0" stroke-width="3.0" />
            <path d=" M 780.885, 442.875 778.070, 441.350 774.901, 439.933 771.683, 438.780 768.442, 437.889 765.202, 437.258 761.984, 436.887 758.815, 436.774 755.717, 436.921 752.714, 437.329 749.830, 437.998 747.091, 438.930 744.521, 440.128 742.145, 441.596 740.247, 443.131 738.706, 444.799 737.544, 446.581 736.782, 448.458 736.443, 450.411 736.549, 452.421 737.125, 454.467 738.193, 456.529 739.779, 458.587 741.905, 460.618 744.596, 462.601 747.876, 464.513 749.791, 465.482 751.657, 466.363 753.483, 467.161 755.281, 467.881 757.063, 468.528 758.840, 469.108 760.623, 469.625 762.423, 470.086 764.254, 470.495 766.125, 470.859 768.050, 471.182 770.040, 471.471 775.824, 467.084 773.916, 466.802 772.053, 466.491 770.235, 466.149 768.462, 465.775 766.734, 465.367 765.052, 464.924 763.415, 464.443 761.824, 463.923 760.279, 463.363 758.780, 462.760 757.327, 462.114 755.920, 461.422 753.860, 460.277 752.084, 459.117 750.593, 457.945 749.383, 456.761 748.455, 455.567 747.807, 454.363 747.437, 453.150 747.344, 451.929 747.527, 450.702 747.984, 449.468 748.713, 448.230 749.714, 446.988 758.628, 451.520 767.542, 456.052 776.456, 460.585 782.045, 463.426 784.499, 461.355 786.389, 459.310 787.734, 457.296 788.550, 455.319 788.856, 453.382 788.667, 451.491 788.002, 449.650 786.875, 447.864 785.303, 446.136 783.301, 444.472 780.885, 442.875 " fill="none" stroke="rgb(0, 0, 0)" stroke-linecap="butt" stroke-linejoin="round" stroke-opacity="1.0" stroke-width="3.0" />
            <path d=" M 771.577, 444.310 773.295, 445.100 774.785, 445.914 776.060, 446.759 777.120, 447.632 777.962, 448.526 778.588, 449.437 778.994, 450.360 779.181, 451.290 779.147, 452.222 778.892, 453.150 778.413, 454.070 777.711, 454.975 776.784, 455.861 767.857, 451.353 758.931, 446.846 753.837, 444.274 755.328, 443.643 756.849, 443.137 758.398, 442.755 759.973, 442.499 761.573, 442.369 763.195, 442.367 764.837, 442.493 766.499, 442.749 768.177, 443.136 769.870, 443.656 771.577, 444.310 " fill="none" stroke="rgb(0, 0, 0)" stroke-linecap="butt" stroke-linejoin="round" stroke-opacity="1.0" stroke-width="3.0" />
            <path d=" M 734.219, 402.984 726.026, 399.036 717.651, 404.500 709.276, 409.965 700.901, 415.429 692.526, 420.893 684.151, 426.358 680.607, 428.670 688.887, 432.987 697.226, 427.468 705.565, 421.949 710.797, 418.486 712.498, 418.475 714.084, 418.498 715.565, 418.555 716.949, 418.648 718.246, 418.779 719.464, 418.948 720.612, 419.158 721.699, 419.410 722.734, 419.705 723.725, 420.046 724.682, 420.432 725.614, 420.867 726.793, 421.522 727.777, 422.215 728.566, 422.938 729.159, 423.687 729.556, 424.457 729.755, 425.242 729.757, 426.037 729.560, 426.837 729.163, 427.636 728.567, 428.428 727.769, 429.209 726.770, 429.972 718.516, 435.618 710.262, 441.263 707.884, 442.890 716.514, 447.389 724.729, 441.686 732.943, 435.983 735.160, 434.444 736.986, 433.021 738.383, 431.600 739.370, 430.186 739.962, 428.787 740.177, 427.408 740.033, 426.056 739.546, 424.738 738.732, 423.458 737.609, 422.224 736.192, 421.041 734.496, 419.914 732.538, 418.851 731.322, 418.290 730.047, 417.776 728.719, 417.313 727.346, 416.900 725.933, 416.540 724.488, 416.233 723.016, 415.981 721.525, 415.785 720.021, 415.647 718.509, 415.568 716.998, 415.550 715.492, 415.595 715.306, 415.502 723.645, 409.983 731.983, 404.463 734.219, 402.984 " fill="none" stroke="rgb(0, 0, 0)" stroke-linecap="butt" stroke-linejoin="round" stroke-opacity="1.0" stroke-width="3.0" />
            <path d=" M 718.926, 395.615 709.918, 391.274 700.909, 386.933 691.900, 382.592 682.892, 378.251 673.883, 373.910 669.225, 371.665 663.519, 375.040 672.510, 379.415 681.502, 383.791 683.666, 384.844 675.138, 390.065 666.609, 395.287 658.081, 400.509 649.552, 405.730 643.597, 409.376 652.209, 413.866 660.702, 408.588 669.196, 403.310 677.690, 398.032 686.184, 392.754 692.217, 389.005 701.209, 393.381 710.201, 397.756 713.279, 399.254 718.926, 395.615 " fill="none" stroke="rgb(0, 0, 0)" stroke-linecap="butt" stroke-linejoin="round" stroke-opacity="1.0" stroke-width="3.0" />
            <path d=" M 610.583, 358.724 608.019, 357.321 605.323, 356.130 602.496, 355.145 599.571, 354.364 596.581, 353.786 593.559, 353.410 590.538, 353.238 587.551, 353.268 584.630, 353.502 581.809, 353.941 579.120, 354.587 576.596, 355.441 574.273, 356.505 572.113, 357.809 570.365, 359.204 569.031, 360.677 568.113, 362.211 567.612, 363.792 567.532, 365.405 567.873, 367.032 568.639, 368.658 569.832, 370.266 571.454, 371.839 573.507, 373.360 575.992, 374.811 578.881, 376.169 581.889, 377.301 584.987, 378.200 588.143, 378.866 591.329, 379.295 594.512, 379.485 597.663, 379.435 600.750, 379.145 603.743, 378.613 606.612, 377.840 609.327, 376.826 611.857, 375.574 613.904, 374.238 615.499, 372.811 616.647, 371.311 617.356, 369.755 617.632, 368.161 617.481, 366.546 616.912, 364.926 615.931, 363.318 614.544, 361.738 612.760, 360.202 610.583, 358.724 " fill="none" stroke="rgb(0, 0, 0)" stroke-linecap="butt" stroke-linejoin="round" stroke-opacity="1.0" stroke-width="3.0" />
            <path d=" M 600.894, 359.457 602.582, 360.208 604.194, 361.103 605.552, 362.047 606.651, 363.029 607.490, 364.040 608.066, 365.069 608.375, 366.106 608.416, 367.141 608.185, 368.163 607.679, 369.161 606.895, 370.125 605.831, 371.044 604.484, 371.906 602.777, 372.754 600.989, 373.445 599.131, 373.978 597.217, 374.354 595.261, 374.572 593.276, 374.632 591.277, 374.534 589.276, 374.279 587.287, 373.867 585.324, 373.300 583.401, 372.578 581.530, 371.703 579.985, 370.809 578.716, 369.871 577.724, 368.899 577.009, 367.901 576.570, 366.887 576.408, 365.865 576.521, 364.843 576.911, 363.830 577.575, 362.834 578.516, 361.864 579.731, 360.927 581.222, 360.031 582.756, 359.309 584.396, 358.723 586.125, 358.271 587.922, 357.953 589.771, 357.768 591.651, 357.716 593.545, 357.798 595.435, 358.012 597.302, 358.360 599.128, 358.841 600.894, 359.457 " fill="none" stroke="rgb(0, 0, 0)" stroke-linecap="butt" stroke-linejoin="round" stroke-opacity="1.0" stroke-width="3.0" />
            <path d=" M 596.919, 336.824 590.294, 333.631 581.409, 338.221 572.525, 342.812 563.641, 347.402 554.757, 351.992 545.872, 356.583 544.091, 357.503 550.726, 360.962 559.589, 356.331 568.452, 351.699 577.315, 347.068 586.178, 342.437 595.041, 337.806 596.919, 336.824 " fill="none" stroke="rgb(0, 0, 0)" stroke-linecap="butt" stroke-linejoin="round" stroke-opacity="1.0" stroke-width="3.0" />
            <path d=" M 580.743, 329.029 574.291, 325.920 565.357, 330.412 556.423, 334.904 547.488, 339.396 538.554, 343.888 529.620, 348.380 528.078, 349.155 534.532, 352.520 543.447, 347.988 552.361, 343.457 561.276, 338.926 570.190, 334.394 579.104, 329.863 580.743, 329.029 " fill="none" stroke="rgb(0, 0, 0)" stroke-linecap="butt" stroke-linejoin="round" stroke-opacity="1.0" stroke-width="3.0" />
            <path d=" M 540.645, 324.139 538.746, 323.090 536.523, 322.115 534.182, 321.320 531.746, 320.706 529.234, 320.271 526.669, 320.015 524.068, 319.938 521.454, 320.040 518.846, 320.320 516.264, 320.781 513.728, 321.424 511.260, 322.249 508.879, 323.259 506.877, 324.315 505.137, 325.461 503.679, 326.684 502.528, 327.972 501.707, 329.310 501.239, 330.686 501.150, 332.086 501.464, 333.495 502.206, 334.899 503.401, 336.284 505.074, 337.635 507.250, 338.936 508.562, 339.595 509.855, 340.194 511.139, 340.736 512.422, 341.225 513.710, 341.665 515.012, 342.058 516.337, 342.410 517.691, 342.722 519.085, 343.000 520.524, 343.247 522.019, 343.466 523.577, 343.661 529.575, 340.684 528.082, 340.492 526.634, 340.281 525.231, 340.049 523.875, 339.795 522.565, 339.517 521.302, 339.216 520.087, 338.889 518.920, 338.535 517.802, 338.154 516.734, 337.743 515.715, 337.303 514.747, 336.832 513.365, 336.051 512.222, 335.261 511.317, 334.461 510.647, 333.653 510.212, 332.837 510.012, 332.014 510.043, 331.185 510.306, 330.350 510.800, 329.509 511.522, 328.664 512.471, 327.816 513.647, 326.964 522.561, 331.496 531.475, 336.028 535.741, 338.197 538.355, 336.786 540.499, 335.392 542.185, 334.018 543.425, 332.668 544.233, 331.344 544.619, 330.050 544.597, 328.789 544.177, 327.564 543.371, 326.379 542.190, 325.236 540.645, 324.139 " fill="none" stroke="rgb(0, 0, 0)" stroke-linecap="butt" stroke-linejoin="round" stroke-opacity="1.0" stroke-width="3.0" />
            <path d=" M 532.518, 325.125 533.718, 325.668 534.720, 326.226 535.536, 326.807 536.164, 327.405 536.607, 328.018 536.865, 328.643 536.938, 329.275 536.828, 329.912 536.534, 330.550 536.058, 331.185 535.401, 331.814 534.563, 332.433 533.545, 333.038 524.618, 328.531 517.824, 325.100 519.237, 324.667 520.641, 324.319 522.033, 324.056 523.411, 323.880 524.774, 323.791 526.120, 323.789 527.447, 323.876 528.752, 324.052 530.033, 324.318 531.289, 324.675 532.518, 325.125 " fill="none" stroke="rgb(0, 0, 0)" stroke-linecap="butt" stroke-linejoin="round" stroke-opacity="1.0" stroke-width="3.0" />
            <path d=" M 499.891, 290.070 493.708, 287.090 484.549, 291.105 475.390, 295.119 466.232, 299.133 457.073, 303.147 447.702, 307.254 453.854, 310.461 462.997, 306.411 472.141, 302.362 474.321, 301.396 483.254, 305.892 492.186, 310.388 499.044, 313.840 489.966, 318.034 480.888, 322.229 478.523, 323.321 485.034, 326.716 494.094, 322.483 503.154, 318.250 512.214, 314.017 521.274, 309.785 530.334, 305.552 531.190, 305.152 524.660, 302.005 515.582, 306.199 506.504, 310.393 504.995, 311.090 496.044, 306.631 487.094, 302.171 480.260, 298.765 489.403, 294.715 498.546, 290.666 499.891, 290.070 " fill="none" stroke="rgb(0, 0, 0)" stroke-linecap="butt" stroke-linejoin="round" stroke-opacity="1.0" stroke-width="3.0" />
        </g>
    </g>
</svg>
