<?xml version='1.0' encoding='ascii'?>
<svg xmlns="http://www.w3.org/2000/svg" xmlns:inkscape="http://www.inkscape.org/namespaces/inkscape" height="540" version="1.1" width="960">
    <g id="RenderLayer_LineSet" inkscape:groupmode="lineset" inkscape:label="RenderLayer_LineSet">
        <g id="frame_0001" inkscape:groupmode="frame" inkscape:label="frame_0001">
            <g id="fills" inkscape:groupmode="layer" inkscape:label="fills">
                <path d=" M 331.170, 317.507 399.160, 284.508 364.633, 212.536 297.185, 246.666 331.170, 317.507  z" fill="rgb(71, 186, 255)" fill-opacity="1.0" fill_rule="evenodd" stroke="none" />
                <path d=" M 451.353, 296.354 536.187, 296.354 536.187, 211.519 451.353, 211.519 451.353, 296.354  z" fill="rgb(204, 204, 204)" fill-opacity="1.0" fill_rule="evenodd" stroke="none" />
            </g>
            <g id="strokes" inkscape:groupmode="layer" inkscape:label="strokes">
                <path d=" M 451.353, 296.354 461.353, 296.354 471.353, 296.354 481.353, 296.354 491.353, 296.354 501.353, 296.354 511.353, 296.354 521.353, 296.354 531.353, 296.354 536.187, 296.354 536.187, 286.354 536.187, 276.354 536.187, 266.354 536.187, 256.354 536.187, 246.354 536.187, 236.354 536.187, 226.354 536.187, 216.354 536.187, 211.519 526.187, 211.519 516.187, 211.519 506.187, 211.519 496.187, 211.519 486.187, 211.519 476.187, 211.519 466.187, 211.519 456.187, 211.519 451.353, 211.519 451.353, 221.519 451.353, 231.519 451.353, 241.519 451.353, 251.519 451.353, 261.519 451.353, 271.519 451.353, 281.519 451.353, 291.519 451.353, 296.354 " fill="none" stroke="rgb(0, 0, 0)" stroke-linecap="butt" stroke-linejoin="round" stroke-opacity="1.0" stroke-width="3.0" />
                <path d=" M 331.170, 317.507 340.166, 313.140 349.163, 308.774 358.159, 304.408 367.155, 300.041 376.152, 295.675 385.148, 291.308 394.144, 286.942 399.160, 284.508 394.835, 275.491 390.510, 266.475 386.184, 257.459 381.859, 248.443 377.533, 239.427 373.208, 230.411 368.883, 221.395 364.633, 212.536 355.710, 217.051 346.788, 221.566 337.865, 226.081 328.942, 230.596 320.020, 235.111 311.097, 239.626 302.174, 244.142 297.185, 246.666 301.510, 255.682 305.836, 264.698 310.161, 273.715 314.487, 282.731 318.812, 291.747 323.137, 300.763 327.463, 309.779 331.170, 317.507 " fill="none" stroke="rgb(0, 0, 0)" stroke-linecap="butt" stroke-linejoin="round" stroke-opacity="1.0" stroke-width="3.0" />
            </g>
            <animate attributeName="display" begin="-0.417s" dur="0.417s" id="anim_RenderLayer_LineSet_000001" keyTimes="0.0;0.1;0.2;0.3;0.4;0.5;0.6;0.7;0.8;0.9;1" repeatCount="indefinite" values="none;none;none;none;none;none;none;none;none;inline;none" />
        </g>
        <g id="frame_0002" inkscape:groupmode="frame" inkscape:label="frame_0002">
            <g id="fills" inkscape:groupmode="layer" inkscape:label="fills">
                <path d=" M 339.693, 317.507 407.819, 284.508 373.292, 212.536 305.708, 246.666 339.693, 317.507  z" fill="rgb(71, 186, 255)" fill-opacity="1.0" fill_rule="evenodd" stroke="none" />
                <path d=" M 460.124, 296.354 544.958, 296.354 544.958, 211.519 460.124, 211.519 460.124, 296.354  z" fill="rgb(204, 204, 204)" fill-opacity="1.0" fill_rule="evenodd" stroke="none" />
            </g>
            <g id="strokes" inkscape:groupmode="layer" inkscape:label="strokes">
                <path d=" M 460.124, 296.354 470.124, 296.354 480.124, 296.354 490.124, 296.354 500.124, 296.354 510.124, 296.354 520.124, 296.354 530.124, 296.354 540.124, 296.354 544.958, 296.354 544.958, 286.354 544.958, 276.354 544.958, 266.354 544.958, 256.354 544.958, 246.354 544.958, 236.354 544.958, 226.354 544.958, 216.354 544.958, 211.519 534.958, 211.519 524.958, 211.519 514.958, 211.519 504.958, 211.519 494.958, 211.519 484.958, 211.519 474.958, 211.519 464.958, 211.519 460.124, 211.519 460.124, 221.519 460.124, 231.519 460.124, 241.519 460.124, 251.519 460.124, 261.519 460.124, 271.519 460.124, 281.519 460.124, 291.519 460.124, 296.354 " fill="none" stroke="rgb(0, 0, 0)" stroke-linecap="butt" stroke-linejoin="round" stroke-opacity="1.0" stroke-width="3.0" />
                <path d=" M 339.693, 317.507 348.692, 313.147 357.692, 308.788 366.692, 304.429 375.692, 300.069 384.692, 295.710 393.691, 291.351 402.691, 286.992 407.819, 284.508 403.494, 275.491 399.168, 266.475 394.843, 257.459 390.518, 248.443 386.192, 239.427 381.867, 230.411 377.541, 221.395 373.292, 212.536 364.365, 217.044 355.439, 221.552 346.513, 226.060 337.586, 230.567 328.660, 235.075 319.734, 239.583 310.807, 244.091 305.708, 246.666 310.033, 255.682 314.358, 264.698 318.684, 273.715 323.009, 282.731 327.335, 291.747 331.660, 300.763 335.985, 309.779 339.693, 317.507 " fill="none" stroke="rgb(0, 0, 0)" stroke-linecap="butt" stroke-linejoin="round" stroke-opacity="1.0" stroke-width="3.0" />
            </g>
            <animate attributeName="display" begin="-0.375s" dur="0.417s" id="anim_RenderLayer_LineSet_000002" keyTimes="0.0;0.1;0.2;0.3;0.4;0.5;0.6;0.7;0.8;0.9;1" repeatCount="indefinite" values="none;none;none;none;none;none;none;none;none;inline;none" />
        </g>
        <g id="frame_0003" inkscape:groupmode="frame" inkscape:label="frame_0003">
            <g id="fills" inkscape:groupmode="layer" inkscape:label="fills">
                <path d=" M 365.263, 317.507 433.798, 284.508 399.271, 212.536 331.278, 246.666 365.263, 317.507  z" fill="rgb(71, 186, 255)" fill-opacity="1.0" fill_rule="evenodd" stroke="none" />
                <path d=" M 486.439, 296.354 571.274, 296.354 571.274, 211.519 486.439, 211.519 486.439, 296.354  z" fill="rgb(204, 204, 204)" fill-opacity="1.0" fill_rule="evenodd" stroke="none" />
            </g>
            <g id="strokes" inkscape:groupmode="layer" inkscape:label="strokes">
                <path d=" M 486.439, 296.354 496.439, 296.354 506.439, 296.354 516.439, 296.354 526.439, 296.354 536.439, 296.354 546.439, 296.354 556.439, 296.354 566.439, 296.354 571.274, 296.354 571.274, 286.354 571.274, 276.354 571.274, 266.354 571.274, 256.354 571.274, 246.354 571.274, 236.354 571.274, 226.354 571.274, 216.354 571.274, 211.519 561.274, 211.519 551.274, 211.519 541.274, 211.519 531.274, 211.519 521.274, 211.519 511.274, 211.519 501.274, 211.519 491.274, 211.519 486.439, 211.519 486.439, 221.519 486.439, 231.519 486.439, 241.519 486.439, 251.519 486.439, 261.519 486.439, 271.519 486.439, 281.519 486.439, 291.519 486.439, 296.354 " fill="none" stroke="rgb(0, 0, 0)" stroke-linecap="butt" stroke-linejoin="round" stroke-opacity="1.0" stroke-width="3.0" />
                <path d=" M 365.263, 317.507 374.273, 313.168 383.283, 308.830 392.293, 304.492 401.303, 300.154 410.313, 295.816 419.323, 291.477 428.333, 287.139 433.798, 284.508 429.473, 275.491 425.147, 266.475 420.822, 257.459 416.497, 248.443 412.171, 239.427 407.846, 230.411 403.520, 221.395 399.271, 212.536 390.333, 217.022 381.396, 221.509 372.459, 225.995 363.522, 230.481 354.585, 234.967 345.647, 239.453 336.710, 243.940 331.278, 246.666 335.604, 255.682 339.929, 264.698 344.255, 273.715 348.580, 282.731 352.905, 291.747 357.231, 300.763 361.556, 309.779 365.263, 317.507 " fill="none" stroke="rgb(0, 0, 0)" stroke-linecap="butt" stroke-linejoin="round" stroke-opacity="1.0" stroke-width="3.0" />
            </g>
            <animate attributeName="display" begin="-0.333s" dur="0.417s" id="anim_RenderLayer_LineSet_000003" keyTimes="0.0;0.1;0.2;0.3;0.4;0.5;0.6;0.7;0.8;0.9;1" repeatCount="indefinite" values="none;none;none;none;none;none;none;none;none;inline;none" />
        </g>
        <g id="frame_0004" inkscape:groupmode="frame" inkscape:label="frame_0004">
            <g id="fills" inkscape:groupmode="layer" inkscape:label="fills">
                <path d=" M 406.322, 317.507 475.512, 284.508 440.984, 212.536 372.337, 246.666 406.322, 317.507  z" fill="rgb(71, 186, 255)" fill-opacity="1.0" fill_rule="evenodd" stroke="none" />
                <path d=" M 528.694, 296.354 613.529, 296.354 613.529, 211.519 528.694, 211.519 528.694, 296.354  z" fill="rgb(204, 204, 204)" fill-opacity="1.0" fill_rule="evenodd" stroke="none" />
            </g>
            <g id="strokes" inkscape:groupmode="layer" inkscape:label="strokes">
                <path d=" M 528.694, 296.354 538.694, 296.354 548.694, 296.354 558.694, 296.354 568.694, 296.354 578.694, 296.354 588.694, 296.354 598.694, 296.354 608.694, 296.354 613.529, 296.354 613.529, 286.354 613.529, 276.354 613.529, 266.354 613.529, 256.354 613.529, 246.354 613.529, 236.354 613.529, 226.354 613.529, 216.354 613.529, 211.519 603.529, 211.519 593.529, 211.519 583.529, 211.519 573.529, 211.519 563.529, 211.519 553.529, 211.519 543.529, 211.519 533.529, 211.519 528.694, 211.519 528.694, 221.519 528.694, 231.519 528.694, 241.519 528.694, 251.519 528.694, 261.519 528.694, 271.519 528.694, 281.519 528.694, 291.519 528.694, 296.354 " fill="none" stroke="rgb(0, 0, 0)" stroke-linecap="butt" stroke-linejoin="round" stroke-opacity="1.0" stroke-width="3.0" />
                <path d=" M 406.322, 317.507 415.348, 313.202 424.374, 308.897 433.400, 304.592 442.426, 300.288 451.452, 295.983 460.478, 291.678 469.504, 287.373 475.512, 284.508 471.186, 275.491 466.861, 266.475 462.536, 257.459 458.210, 248.443 453.885, 239.427 449.560, 230.411 445.234, 221.395 440.984, 212.536 432.030, 216.988 423.076, 221.440 414.121, 225.892 405.167, 230.344 396.213, 234.796 387.258, 239.247 378.304, 243.699 372.337, 246.666 376.662, 255.682 380.987, 264.698 385.313, 273.715 389.638, 282.731 393.964, 291.747 398.289, 300.763 402.614, 309.779 406.322, 317.507 " fill="none" stroke="rgb(0, 0, 0)" stroke-linecap="butt" stroke-linejoin="round" stroke-opacity="1.0" stroke-width="3.0" />
            </g>
            <animate attributeName="display" begin="-0.292s" dur="0.417s" id="anim_RenderLayer_LineSet_000004" keyTimes="0.0;0.1;0.2;0.3;0.4;0.5;0.6;0.7;0.8;0.9;1" repeatCount="indefinite" values="none;none;none;none;none;none;none;none;none;inline;none" />
        </g>
        <g id="frame_0005" inkscape:groupmode="frame" inkscape:label="frame_0005">
            <g id="fills" inkscape:groupmode="layer" inkscape:label="fills">
                <path d=" M 458.553, 317.507 528.577, 284.508 494.050, 212.536 424.568, 246.666 458.553, 317.507  z" fill="rgb(71, 186, 255)" fill-opacity="1.0" fill_rule="evenodd" stroke="none" />
                <path d=" M 582.448, 296.354 667.282, 296.354 667.282, 211.519 582.448, 211.519 582.448, 296.354  z" fill="rgb(204, 204, 204)" fill-opacity="1.0" fill_rule="evenodd" stroke="none" />
            </g>
            <g id="strokes" inkscape:groupmode="layer" inkscape:label="strokes">
                <path d=" M 582.448, 296.354 592.448, 296.354 602.448, 296.354 612.448, 296.354 622.448, 296.354 632.448, 296.354 642.448, 296.354 652.448, 296.354 662.448, 296.354 667.282, 296.354 667.282, 286.354 667.282, 276.354 667.282, 266.354 667.282, 256.354 667.282, 246.354 667.282, 236.354 667.282, 226.354 667.282, 216.354 667.282, 211.519 657.282, 211.519 647.282, 211.519 637.282, 211.519 627.282, 211.519 617.282, 211.519 607.282, 211.519 597.282, 211.519 587.282, 211.519 582.448, 211.519 582.448, 221.519 582.448, 231.519 582.448, 241.519 582.448, 251.519 582.448, 261.519 582.448, 271.519 582.448, 281.519 582.448, 291.519 582.448, 296.354 " fill="none" stroke="rgb(0, 0, 0)" stroke-linecap="butt" stroke-linejoin="round" stroke-opacity="1.0" stroke-width="3.0" />
                <path d=" M 458.553, 317.507 467.599, 313.244 476.645, 308.981 485.691, 304.718 494.736, 300.455 503.782, 296.192 512.828, 291.929 521.874, 287.667 528.577, 284.508 524.252, 275.491 519.926, 266.475 515.601, 257.459 511.276, 248.443 506.950, 239.427 502.625, 230.411 498.299, 221.395 494.050, 212.536 485.074, 216.945 476.099, 221.354 467.123, 225.763 458.147, 230.172 449.172, 234.581 440.196, 238.990 431.221, 243.398 424.568, 246.666 428.894, 255.682 433.219, 264.698 437.544, 273.715 441.870, 282.731 446.195, 291.747 450.520, 300.763 454.846, 309.779 458.553, 317.507 " fill="none" stroke="rgb(0, 0, 0)" stroke-linecap="butt" stroke-linejoin="round" stroke-opacity="1.0" stroke-width="3.0" />
            </g>
            <animate attributeName="display" begin="-0.250s" dur="0.417s" id="anim_RenderLayer_LineSet_000005" keyTimes="0.0;0.1;0.2;0.3;0.4;0.5;0.6;0.7;0.8;0.9;1" repeatCount="indefinite" values="none;none;none;none;none;none;none;none;none;inline;none" />
        </g>
        <g id="frame_0006" inkscape:groupmode="frame" inkscape:label="frame_0006">
            <g id="fills" inkscape:groupmode="layer" inkscape:label="fills">
                <path d=" M 514.905, 317.507 585.829, 284.508 551.302, 212.536 480.920, 246.666 514.905, 317.507  z" fill="rgb(71, 186, 255)" fill-opacity="1.0" fill_rule="evenodd" stroke="none" />
                <path d=" M 640.442, 296.354 725.276, 296.354 725.276, 211.519 640.442, 211.519 640.442, 296.354  z" fill="rgb(204, 204, 204)" fill-opacity="1.0" fill_rule="evenodd" stroke="none" />
            </g>
            <g id="strokes" inkscape:groupmode="layer" inkscape:label="strokes">
                <path d=" M 640.442, 296.354 650.442, 296.354 660.442, 296.354 670.442, 296.354 680.442, 296.354 690.442, 296.354 700.442, 296.354 710.442, 296.354 720.442, 296.354 725.276, 296.354 725.276, 286.354 725.276, 276.354 725.276, 266.354 725.276, 256.354 725.276, 246.354 725.276, 236.354 725.276, 226.354 725.276, 216.354 725.276, 211.519 715.276, 211.519 705.276, 211.519 695.276, 211.519 685.276, 211.519 675.276, 211.519 665.276, 211.519 655.276, 211.519 645.276, 211.519 640.442, 211.519 640.442, 221.519 640.442, 231.519 640.442, 241.519 640.442, 251.519 640.442, 261.519 640.442, 271.519 640.442, 281.519 640.442, 291.519 640.442, 296.354 " fill="none" stroke="rgb(0, 0, 0)" stroke-linecap="butt" stroke-linejoin="round" stroke-opacity="1.0" stroke-width="3.0" />
                <path d=" M 514.905, 317.507 523.972, 313.288 533.039, 309.070 542.105, 304.851 551.172, 300.633 560.239, 296.414 569.305, 292.196 578.372, 287.977 585.829, 284.508 581.504, 275.491 577.178, 266.475 572.853, 257.459 568.528, 248.443 564.202, 239.427 559.877, 230.411 555.551, 221.395 551.302, 212.536 542.304, 216.899 533.306, 221.263 524.308, 225.626 515.310, 229.989 506.312, 234.353 497.315, 238.716 488.317, 243.079 480.920, 246.666 485.246, 255.682 489.571, 264.698 493.897, 273.715 498.222, 282.731 502.547, 291.747 506.873, 300.763 511.198, 309.779 514.905, 317.507 " fill="none" stroke="rgb(0, 0, 0)" stroke-linecap="butt" stroke-linejoin="round" stroke-opacity="1.0" stroke-width="3.0" />
            </g>
            <animate attributeName="display" begin="-0.208s" dur="0.417s" id="anim_RenderLayer_LineSet_000006" keyTimes="0.0;0.1;0.2;0.3;0.4;0.5;0.6;0.7;0.8;0.9;1" repeatCount="indefinite" values="none;none;none;none;none;none;none;none;none;inline;none" />
        </g>
        <g id="frame_0007" inkscape:groupmode="frame" inkscape:label="frame_0007">
            <g id="fills" inkscape:groupmode="layer" inkscape:label="fills">
                <path d=" M 567.137, 317.507 638.895, 284.508 604.367, 212.536 533.152, 246.666 567.137, 317.507  z" fill="rgb(71, 186, 255)" fill-opacity="1.0" fill_rule="evenodd" stroke="none" />
                <path d=" M 694.195, 296.354 779.030, 296.354 779.030, 211.519 694.195, 211.519 694.195, 296.354  z" fill="rgb(204, 204, 204)" fill-opacity="1.0" fill_rule="evenodd" stroke="none" />
            </g>
            <g id="strokes" inkscape:groupmode="layer" inkscape:label="strokes">
                <path d=" M 694.195, 296.354 704.195, 296.354 714.195, 296.354 724.195, 296.354 734.195, 296.354 744.195, 296.354 754.195, 296.354 764.195, 296.354 774.195, 296.354 779.030, 296.354 779.030, 286.354 779.030, 276.354 779.030, 266.354 779.030, 256.354 779.030, 246.354 779.030, 236.354 779.030, 226.354 779.030, 216.354 779.030, 211.519 769.030, 211.519 759.030, 211.519 749.030, 211.519 739.030, 211.519 729.030, 211.519 719.030, 211.519 709.030, 211.519 699.030, 211.519 694.195, 211.519 694.195, 221.519 694.195, 231.519 694.195, 241.519 694.195, 251.519 694.195, 261.519 694.195, 271.519 694.195, 281.519 694.195, 291.519 694.195, 296.354 " fill="none" stroke="rgb(0, 0, 0)" stroke-linecap="butt" stroke-linejoin="round" stroke-opacity="1.0" stroke-width="3.0" />
                <path d=" M 567.137, 317.507 576.222, 313.329 585.307, 309.151 594.393, 304.973 603.478, 300.794 612.564, 296.616 621.649, 292.438 630.734, 288.260 638.895, 284.508 634.569, 275.491 630.244, 266.475 625.918, 257.459 621.593, 248.443 617.268, 239.427 612.942, 230.411 608.617, 221.395 604.367, 212.536 595.349, 216.858 586.331, 221.180 577.313, 225.502 568.296, 229.823 559.278, 234.145 550.260, 238.467 541.242, 242.789 533.152, 246.666 537.477, 255.682 541.803, 264.698 546.128, 273.715 550.453, 282.731 554.779, 291.747 559.104, 300.763 563.430, 309.779 567.137, 317.507 " fill="none" stroke="rgb(0, 0, 0)" stroke-linecap="butt" stroke-linejoin="round" stroke-opacity="1.0" stroke-width="3.0" />
            </g>
            <animate attributeName="display" begin="-0.167s" dur="0.417s" id="anim_RenderLayer_LineSet_000007" keyTimes="0.0;0.1;0.2;0.3;0.4;0.5;0.6;0.7;0.8;0.9;1" repeatCount="indefinite" values="none;none;none;none;none;none;none;none;none;inline;none" />
        </g>
        <g id="frame_0008" inkscape:groupmode="frame" inkscape:label="frame_0008">
            <g id="fills" inkscape:groupmode="layer" inkscape:label="fills">
                <path d=" M 608.195, 317.507 680.608, 284.508 646.081, 212.536 574.210, 246.666 608.195, 317.507  z" fill="rgb(71, 186, 255)" fill-opacity="1.0" fill_rule="evenodd" stroke="none" />
                <path d=" M 736.450, 296.354 821.284, 296.354 821.284, 211.519 736.450, 211.519 736.450, 296.354  z" fill="rgb(204, 204, 204)" fill-opacity="1.0" fill_rule="evenodd" stroke="none" />
            </g>
            <g id="strokes" inkscape:groupmode="layer" inkscape:label="strokes">
                <path d=" M 736.450, 296.354 746.450, 296.354 756.450, 296.354 766.450, 296.354 776.450, 296.354 786.450, 296.354 796.450, 296.354 806.450, 296.354 816.450, 296.354 821.284, 296.354 821.284, 286.354 821.284, 276.354 821.284, 266.354 821.284, 256.354 821.284, 246.354 821.284, 236.354 821.284, 226.354 821.284, 216.354 821.284, 211.519 811.284, 211.519 801.284, 211.519 791.284, 211.519 781.284, 211.519 771.284, 211.519 761.284, 211.519 751.284, 211.519 741.284, 211.519 736.450, 211.519 736.450, 221.519 736.450, 231.519 736.450, 241.519 736.450, 251.519 736.450, 261.519 736.450, 271.519 736.450, 281.519 736.450, 291.519 736.450, 296.354 " fill="none" stroke="rgb(0, 0, 0)" stroke-linecap="butt" stroke-linejoin="round" stroke-opacity="1.0" stroke-width="3.0" />
                <path d=" M 608.195, 317.507 617.295, 313.360 626.394, 309.213 635.494, 305.066 644.594, 300.920 653.693, 296.773 662.793, 292.626 671.893, 288.479 680.608, 284.508 676.283, 275.491 671.958, 266.475 667.632, 257.459 663.307, 248.443 658.981, 239.427 654.656, 230.411 650.331, 221.395 646.081, 212.536 637.048, 216.826 628.014, 221.116 618.981, 225.405 609.948, 229.695 600.915, 233.985 591.882, 238.274 582.849, 242.564 574.210, 246.666 578.536, 255.682 582.861, 264.698 587.186, 273.715 591.512, 282.731 595.837, 291.747 600.162, 300.763 604.488, 309.779 608.195, 317.507 " fill="none" stroke="rgb(0, 0, 0)" stroke-linecap="butt" stroke-linejoin="round" stroke-opacity="1.0" stroke-width="3.0" />
            </g>
            <animate attributeName="display" begin="-0.125s" dur="0.417s" id="anim_RenderLayer_LineSet_000008" keyTimes="0.0;0.1;0.2;0.3;0.4;0.5;0.6;0.7;0.8;0.9;1" repeatCount="indefinite" values="none;none;none;none;none;none;none;none;none;inline;none" />
        </g>
        <g id="frame_0009" inkscape:groupmode="frame" inkscape:label="frame_0009">
            <g id="fills" inkscape:groupmode="layer" inkscape:label="fills">
                <path d=" M 633.766, 317.507 706.587, 284.508 672.060, 212.536 599.781, 246.666 633.766, 317.507  z" fill="rgb(71, 186, 255)" fill-opacity="1.0" fill_rule="evenodd" stroke="none" />
                <path d=" M 762.766, 296.354 847.600, 296.354 847.600, 211.519 762.766, 211.519 762.766, 296.354  z" fill="rgb(204, 204, 204)" fill-opacity="1.0" fill_rule="evenodd" stroke="none" />
            </g>
            <g id="strokes" inkscape:groupmode="layer" inkscape:label="strokes">
                <path d=" M 762.766, 296.354 772.766, 296.354 782.766, 296.354 792.766, 296.354 802.766, 296.354 812.766, 296.354 822.766, 296.354 832.766, 296.354 842.766, 296.354 847.600, 296.354 847.600, 286.354 847.600, 276.354 847.600, 266.354 847.600, 256.354 847.600, 246.354 847.600, 236.354 847.600, 226.354 847.600, 216.354 847.600, 211.519 837.600, 211.519 827.600, 211.519 817.600, 211.519 807.600, 211.519 797.600, 211.519 787.600, 211.519 777.600, 211.519 767.600, 211.519 762.766, 211.519 762.766, 221.519 762.766, 231.519 762.766, 241.519 762.766, 251.519 762.766, 261.519 762.766, 271.519 762.766, 281.519 762.766, 291.519 762.766, 296.354 " fill="none" stroke="rgb(0, 0, 0)" stroke-linecap="butt" stroke-linejoin="round" stroke-opacity="1.0" stroke-width="3.0" />
                <path d=" M 633.766, 317.507 642.874, 313.379 651.983, 309.252 661.091, 305.124 670.200, 300.997 679.308, 296.869 688.416, 292.742 697.525, 288.614 706.587, 284.508 702.262, 275.491 697.937, 266.475 693.611, 257.459 689.286, 248.443 684.960, 239.427 680.635, 230.411 676.310, 221.395 672.060, 212.536 663.017, 216.806 653.975, 221.076 644.932, 225.346 635.890, 229.616 626.847, 233.886 617.804, 238.155 608.762, 242.425 599.781, 246.666 604.106, 255.682 608.432, 264.698 612.757, 273.715 617.082, 282.731 621.408, 291.747 625.733, 300.763 630.059, 309.779 633.766, 317.507 " fill="none" stroke="rgb(0, 0, 0)" stroke-linecap="butt" stroke-linejoin="round" stroke-opacity="1.0" stroke-width="3.0" />
            </g>
            <animate attributeName="display" begin="-0.083s" dur="0.417s" id="anim_RenderLayer_LineSet_000009" keyTimes="0.0;0.1;0.2;0.3;0.4;0.5;0.6;0.7;0.8;0.9;1" repeatCount="indefinite" values="none;none;none;none;none;none;none;none;none;inline;none" />
        </g>
        <g id="frame_0010" inkscape:groupmode="frame" inkscape:label="frame_0010">
            <g id="fills" inkscape:groupmode="layer" inkscape:label="fills">
                <path d=" M 642.288, 317.507 715.246, 284.508 680.719, 212.536 608.304, 246.666 642.288, 317.507  z" fill="rgb(71, 186, 255)" fill-opacity="1.0" fill_rule="evenodd" stroke="none" />
                <path d=" M 771.537, 296.354 856.371, 296.354 856.371, 211.519 771.537, 211.519 771.537, 296.354  z" fill="rgb(204, 204, 204)" fill-opacity="1.0" fill_rule="evenodd" stroke="none" />
            </g>
            <g id="strokes" inkscape:groupmode="layer" inkscape:label="strokes">
                <path d=" M 771.537, 296.354 781.537, 296.354 791.537, 296.354 801.537, 296.354 811.537, 296.354 821.537, 296.354 831.537, 296.354 841.537, 296.354 851.537, 296.354 856.371, 296.354 856.371, 286.354 856.371, 276.354 856.371, 266.354 856.371, 256.354 856.371, 246.354 856.371, 236.354 856.371, 226.354 856.371, 216.354 856.371, 211.519 846.371, 211.519 836.371, 211.519 826.371, 211.519 816.371, 211.519 806.371, 211.519 796.371, 211.519 786.371, 211.519 776.371, 211.519 771.537, 211.519 771.537, 221.519 771.537, 231.519 771.537, 241.519 771.537, 251.519 771.537, 261.519 771.537, 271.519 771.537, 281.519 771.537, 291.519 771.537, 296.354 " fill="none" stroke="rgb(0, 0, 0)" stroke-linecap="butt" stroke-linejoin="round" stroke-opacity="1.0" stroke-width="3.0" />
                <path d=" M 642.288, 317.507 651.400, 313.386 660.511, 309.265 669.622, 305.143 678.734, 301.022 687.845, 296.901 696.956, 292.780 706.068, 288.659 715.246, 284.508 710.921, 275.491 706.595, 266.475 702.270, 257.459 697.945, 248.443 693.619, 239.427 689.294, 230.411 684.968, 221.395 680.719, 212.536 671.673, 216.799 662.627, 221.063 653.582, 225.326 644.536, 229.589 635.490, 233.853 626.445, 238.116 617.399, 242.379 608.304, 246.666 612.629, 255.682 616.954, 264.698 621.280, 273.715 625.605, 282.731 629.931, 291.747 634.256, 300.763 638.581, 309.779 642.288, 317.507 " fill="none" stroke="rgb(0, 0, 0)" stroke-linecap="butt" stroke-linejoin="round" stroke-opacity="1.0" stroke-width="3.0" />
            </g>
            <animate attributeName="display" begin="-0.042s" dur="0.417s" id="anim_RenderLayer_LineSet_000010" keyTimes="0.0;0.1;0.2;0.3;0.4;0.5;0.6;0.7;0.8;0.9;1" repeatCount="indefinite" values="none;none;none;none;none;none;none;none;none;inline;none" />
        </g>
    </g>
</svg>
